# This file uses centimeters as units for non-parametric coordinates.

mtllib PerednyaBabka.mtl
g default
v -0.559500 1.931325 -0.417738
v -0.559500 1.931325 0.269136
v -0.559500 1.369804 0.269136
v -0.559500 1.369804 -0.417738
v 0.364541 1.931325 -0.417738
v 0.364541 1.369804 -0.417738
v -0.597590 1.931325 -0.448119
v 0.509274 1.931325 -0.448119
v 0.509274 1.334018 -0.448119
v -0.597590 1.334018 -0.448119
v 0.509274 1.931325 0.292042
v 0.509274 1.929136 0.297328
v 0.514560 1.929136 0.292042
v 0.514560 1.923849 0.297328
v 0.516749 1.923849 0.292042
v 0.513588 1.928164 0.296357
v 0.509274 1.923849 0.299518
v 0.368954 1.931325 -0.415726
v 0.368954 1.369804 -0.415726
v 0.370782 1.931325 -0.410870
v 0.370782 1.369804 -0.410870
v 0.514560 1.929136 -0.445930
v 0.514560 1.334018 -0.445930
v 0.516749 1.923849 -0.440644
v 0.516749 1.334018 -0.440644
v 0.364541 1.931325 0.269136
v 0.364541 1.369804 0.269136
v -0.597590 1.334018 0.299518
v 0.509274 1.334018 0.299518
v -0.597590 1.923849 0.299518
v 0.370782 1.931325 0.262268
v 0.370782 1.369804 0.262268
v 0.516749 1.334018 0.292042
v -0.597590 1.929136 0.297328
v -0.597590 1.931325 0.292042
v 0.368954 1.931325 0.267125
v 0.368954 1.369804 0.267125
v 0.514560 1.334018 0.297328
vt 0.125000 0.242746
vt 0.375000 0.242746
vt 0.375000 0.000000
vt 0.125000 0.000000
vt 0.623323 0.507254
vt 0.375000 0.507254
vt 0.375000 0.750000
vt 0.623323 0.750000
vt 0.375000 0.500000
vt 0.623323 0.500000
vt 0.623323 0.750000
vt 0.375000 0.750000
vt 0.623323 0.252500
vt 0.623332 0.250121
vt 0.625000 0.251557
vt 0.625125 0.246875
vt 0.627500 0.246871
vt 0.625000 0.250000
vt 0.626557 0.250000
vt 0.623323 0.246871
vt 0.625000 0.506361
vt 0.625000 0.750000
vt 0.872500 0.242746
vt 0.875000 0.243639
vt 0.875000 0.000000
vt 0.872500 -0.000000
vt 0.625000 0.500000
vt 0.625000 0.750000
vt 0.875000 0.250000
vt 0.872500 0.246871
vt 0.872500 -0.000000
vt 0.875000 0.000000
vt 0.623323 0.242746
vt 0.623323 0.000000
vt 0.375000 0.000000
vt 0.623323 0.000000
vt 0.375000 0.246871
vt 0.627500 0.242746
vt 0.627500 0.000000
vt 0.627500 0.000000
vt 0.375000 0.250000
vt 0.375000 0.252500
vt 0.625123 0.242749
vt 0.625000 0.000000
vt 0.625000 0.000000
vt 0.372500 0.250000
vt 0.125000 0.250000
vt 0.125000 0.000000
vt 0.625000 0.752500
vt 0.375000 1.000000
vt 0.623323 1.000000
vt 0.625000 1.000000
vt 0.625000 0.997500
vt 0.625000 0.752500
vt 0.625000 0.997500
vt 0.625000 1.000000
vt 0.623323 1.000000
vt 0.375000 1.000000
vt 0.383545 0.489841
vt 0.590852 0.489841
vt 0.591842 0.489168
vt 0.592252 0.487544
vt 0.592252 0.262456
vt 0.591842 0.260832
vt 0.590852 0.260159
vt 0.383545 0.260159
vn 1.000000 0.000000 0.000000
vn 1.000000 0.000000 0.000000
vn 1.000000 0.000000 0.000000
vn 1.000000 0.000000 0.000000
vn -0.002167 0.000000 0.999998
vn 0.000000 0.000000 1.000000
vn 0.000000 0.000000 1.000000
vn -0.002167 0.000000 0.999998
vn 0.000000 0.000000 -1.000000
vn 0.001510 0.000000 -0.999999
vn 0.001965 0.000000 -0.999998
vn 0.000000 0.000000 -1.000000
vn 0.382499 0.923954 0.001820
vn 0.012647 0.999741 0.018912
vn 0.001217 0.923922 0.382578
vn 0.325290 0.887907 0.325282
vn 0.887915 0.325279 0.325270
vn 0.923980 0.002277 0.382434
vn 0.999989 0.003683 0.002958
vn 0.923961 0.382482 0.001829
vn 0.001963 0.003673 0.999991
vn 0.382441 0.002277 0.923977
vn 0.325267 0.325258 0.887924
vn 0.001217 0.382546 0.923936
vn -0.414783 0.000000 0.909920
vn -0.414783 0.000000 0.909920
vn -0.999996 0.000000 0.002696
vn -0.935903 0.000000 0.352258
vn -0.935903 0.000000 0.352258
vn -0.999996 0.000000 0.002696
vn 0.382697 0.000000 -0.923874
vn 0.382697 0.000000 -0.923874
vn 0.923876 0.000000 -0.382691
vn 0.999976 0.005366 -0.004323
vn 0.999996 0.000000 -0.002980
vn 0.923876 0.000000 -0.382691
vn 0.000000 0.000000 -1.000000
vn -0.002167 0.000000 -0.999998
vn -0.002167 0.000000 -0.999998
vn 0.000000 0.000000 -1.000000
vn 0.000000 0.000000 1.000000
vn 0.001969 0.000000 0.999998
vn 0.000000 0.003679 0.999993
vn -0.999996 0.000000 -0.002696
vn -0.999996 0.000000 -0.002696
vn 0.999996 0.000000 0.002967
vn 0.000000 0.382682 0.923880
vn 0.000000 0.999092 0.042598
vn 0.000000 0.923867 0.382715
vn -0.935901 0.000000 -0.352263
vn -0.935901 0.000000 -0.352263
vn -0.414792 0.000000 -0.909916
vn -0.414792 0.000000 -0.909916
vn 0.382702 0.923872 0.000000
vn 0.009386 0.999956 -0.000001
vn 0.923878 0.382686 0.000000
vn 0.923877 0.000000 0.382689
vn 0.382696 0.000000 0.923874
vn -1.000000 0.000000 0.000000
vn -1.000000 0.000000 0.000000
vn -1.000000 0.000000 0.000000
vn -1.000000 0.000000 0.000000
vn -1.000000 0.000000 0.000000
vn -1.000000 0.000000 0.000000
vn 0.000000 1.000000 -0.000000
vn 0.000000 1.000000 -0.000000
vn 0.000000 1.000000 -0.000000
vn 0.000000 1.000000 -0.000000
vn 0.000000 1.000000 -0.000000
vn 0.000000 1.000000 -0.000000
vn 0.000000 1.000000 -0.000000
vn 0.000000 1.000000 -0.000000
vn 0.000000 -1.000000 0.000000
vn 0.000000 -1.000000 0.000000
vn 0.000000 -1.000000 0.000000
vn 0.000000 -1.000000 0.000000
vn 0.000000 -1.000000 0.000000
vn 0.000000 -1.000000 0.000000
vn 0.000000 -1.000000 0.000000
vn 0.000000 -1.000000 0.000000
vn 0.000000 1.000000 -0.000000
vn 0.000000 1.000000 -0.000001
vn 0.000000 1.000000 -0.000001
vn 0.000000 1.000000 -0.000001
vn 0.000000 1.000000 -0.000001
vn 0.000000 1.000000 -0.000001
vn 0.000000 1.000000 0.000000
vn 0.000000 1.000000 0.000000
vn 0.000000 1.000000 0.000000
s off
g pasted__pasted__pCube101 pasted__group group
usemtl initialShadingGroup
f 1/1/1 2/2/2 3/3/3 4/4/4
s 1
f 5/5/5 1/6/6 4/7/7 6/8/8
s 2
f 7/9/9 8/10/10 9/11/11 10/12/12
s 3
f 13/15/13 11/13/14 12/14/15 16/18/16
s 4
f 16/18/17 14/16/18 15/17/19 13/19/20
s 5
f 17/20/21 14/16/22 16/18/23 12/14/24
s 1
f 18/21/25 5/5/5 6/8/8 19/22/26
s 6
f 20/23/27 18/24/28 19/25/29 21/26/30
s 2
f 8/10/10 22/27/31 23/28/32 9/11/11
s 4
f 22/29/33 24/30/34 25/31/35 23/32/36
s 8
f 2/2/37 26/33/38 27/34/39 3/3/40
s 5
f 28/35/41 29/36/42 17/20/21 30/37/43
s 6
f 31/38/44 20/23/27 21/26/30 32/39/45
s 4
f 15/17/19 33/40/46 25/31/35 24/30/34
s 5
f 34/41/47 30/37/43 17/20/21 12/14/24
s 3
f 35/42/48 34/41/49 12/14/15 11/13/14
s 6
f 36/43/50 31/38/44 32/39/45 37/44/51
s 8
f 26/33/38 36/43/52 37/44/53 27/34/39
s 3
f 11/13/14 13/15/13 22/27/54 8/10/55
s 4
f 13/19/20 15/17/19 24/30/34 22/29/56
f 15/17/19 14/16/18 38/45/57 33/40/46
s 5
f 14/16/22 17/20/21 29/36/42 38/45/58
s off
f 35/46/59 7/47/60 10/48/61 28/35/62 30/37/63 34/41/64
f 21/49/65 19/22/66 6/8/67 4/7/68 3/50/69 27/51/70 37/52/71 32/53/72
f 25/54/73 33/55/74 38/56/75 29/57/76 28/58/77 10/12/78 9/11/79 23/28/80
s 3
f 11/13/14 8/10/55 7/9/81 1/59/82 5/60/83 18/61/84 20/62/85 31/63/86
f 35/42/48 11/13/14 31/63/86 36/64/87 26/65/88 2/66/89 1/59/82 7/9/81
