# This file uses centimeters as units for non-parametric coordinates.

mtllib Salazki.mtl
g default
v 0.517084 1.291753 0.363506
v 3.447205 1.291753 0.363506
v 0.517084 1.312468 0.363506
v 3.447205 1.312468 0.363506
v 0.517084 1.312468 0.189842
v 3.447205 1.312468 0.189842
v 0.517084 1.291753 0.189842
v 3.447205 1.291753 0.189842
v 0.517084 1.312468 0.339519
v 3.447205 1.312468 0.339519
v 3.447205 1.291753 0.339519
v 0.517084 1.291753 0.339519
v 0.517084 1.291753 0.291545
v 3.447205 1.291753 0.291545
v 3.447205 1.312468 0.291545
v 0.517084 1.312468 0.291545
v 0.517084 1.328780 0.320329
v 3.447205 1.328780 0.320329
v 3.447205 1.291753 0.320329
v 0.517084 1.291753 0.320329
v 0.517084 1.291753 0.314572
v 3.447205 1.291753 0.314572
v 3.447205 1.328780 0.314572
v 0.517084 1.328780 0.314572
v 0.517084 1.291753 0.272355
v 3.447205 1.291753 0.272355
v 3.447205 1.312468 0.272355
v 0.517084 1.312468 0.272355
v 0.517084 1.291753 0.238446
v 3.447205 1.291753 0.238446
v 3.447205 1.312468 0.238446
v 0.517084 1.312468 0.238446
v 3.447205 1.309086 0.240302
v 3.447205 1.291753 0.241837
v 0.517084 1.291753 0.241837
v 0.517084 1.309086 0.240302
v 3.447205 1.309086 0.270838
v 3.447205 1.291753 0.269303
v 0.517084 1.291753 0.269303
v 0.517084 1.309086 0.270838
vt 0.375000 0.000000
vt 0.625000 0.000000
vt 0.375000 0.250000
vt 0.625000 0.250000
vt 0.375000 0.500000
vt 0.625000 0.500000
vt 0.375000 0.750000
vt 0.625000 0.750000
vt 0.375000 1.000000
vt 0.625000 1.000000
vt 0.875000 0.000000
vt 0.875000 0.250000
vt 0.125000 0.000000
vt 0.125000 0.250000
vt 0.325000 0.250000
vt 0.375000 0.300000
vt 0.625000 0.300000
vt 0.675000 0.250000
vt 0.625000 0.950000
vt 0.675000 0.000000
vt 0.325000 0.000000
vt 0.375000 0.950000
vt 0.225000 0.000000
vt 0.375000 0.850000
vt 0.625000 0.850000
vt 0.775000 0.000000
vt 0.625000 0.400000
vt 0.775000 0.250000
vt 0.225000 0.250000
vt 0.375000 0.400000
vt 0.285000 0.250000
vt 0.375000 0.340000
vt 0.625000 0.340000
vt 0.715000 0.250000
vt 0.625000 0.910000
vt 0.715000 0.000000
vt 0.285000 0.000000
vt 0.375000 0.910000
vt 0.273000 0.000000
vt 0.375000 0.898000
vt 0.625000 0.898000
vt 0.727000 0.000000
vt 0.625000 0.352000
vt 0.727000 0.250000
vt 0.273000 0.250000
vt 0.375000 0.352000
vt 0.185000 0.000000
vt 0.375000 0.810000
vt 0.625000 0.810000
vt 0.815000 0.000000
vt 0.625000 0.440000
vt 0.815000 0.250000
vt 0.185000 0.250000
vt 0.375000 0.440000
vt 0.155000 0.000000
vt 0.375000 0.780000
vt 0.625000 0.780000
vt 0.845000 0.000000
vt 0.625000 0.470000
vt 0.845000 0.250000
vt 0.155000 0.250000
vt 0.375000 0.470000
vt 0.625000 0.467000
vt 0.842000 0.250000
vt 0.625000 0.783000
vt 0.842000 0.000000
vt 0.158000 0.000000
vt 0.375000 0.783000
vt 0.158000 0.250000
vt 0.375000 0.467000
vt 0.625000 0.442700
vt 0.817700 0.250000
vt 0.625000 0.807300
vt 0.817700 0.000000
vt 0.182300 0.000000
vt 0.375000 0.807300
vt 0.182300 0.250000
vt 0.375000 0.442700
vn 0.000000 0.000000 1.000000
vn 0.000000 0.000000 1.000000
vn 0.000000 0.000000 1.000000
vn 0.000000 0.000000 1.000000
vn 0.000000 0.836957 0.547269
vn 0.000000 0.836957 0.547269
vn 0.000000 0.870011 -0.493032
vn 0.000000 0.870011 -0.493032
vn 0.000000 0.000000 -1.000000
vn 0.000000 0.000000 -1.000000
vn 0.000000 0.000000 -1.000000
vn 0.000000 0.000000 -1.000000
vn 0.000000 -1.000000 0.000000
vn 0.000000 -1.000000 0.000000
vn 0.000000 -1.000000 0.000000
vn 0.000000 -1.000000 0.000000
vn 1.000000 0.000000 0.000000
vn 1.000000 0.000000 0.000000
vn 1.000000 0.000000 0.000000
vn 1.000000 0.000000 0.000000
vn -1.000000 0.000000 0.000000
vn -1.000000 0.000000 0.000000
vn -1.000000 0.000000 0.000000
vn -1.000000 0.000000 0.000000
vn 0.000000 1.000000 0.000000
vn 0.000000 1.000000 0.000000
vn 0.000000 0.935466 0.353417
vn 0.000000 0.935466 0.353417
vn 1.000000 0.000000 0.000000
vn 1.000000 0.000000 0.000000
vn 1.000000 0.000000 0.000000
vn 1.000000 0.000000 0.000000
vn 0.000000 -1.000000 0.000000
vn 0.000000 -1.000000 0.000000
vn 0.000000 -1.000000 0.000000
vn 0.000000 -1.000000 0.000000
vn -1.000000 0.000000 0.000000
vn -1.000000 0.000000 0.000000
vn -1.000000 0.000000 0.000000
vn -1.000000 0.000000 0.000000
vn 0.000000 -1.000000 0.000000
vn 0.000000 -1.000000 0.000000
vn 0.000000 -1.000000 0.000000
vn 0.000000 -1.000000 0.000000
vn 1.000000 0.000000 0.000000
vn 1.000000 0.000000 0.000000
vn 1.000000 0.000000 0.000000
vn 1.000000 0.000000 0.000000
vn 0.000000 0.932792 -0.360416
vn 0.000000 0.932792 -0.360416
vn 0.000000 0.986922 -0.161199
vn 0.000000 0.986922 -0.161199
vn -1.000000 -0.000000 0.000000
vn -1.000000 -0.000000 0.000000
vn -1.000000 0.000000 0.000000
vn -1.000000 0.000000 0.000000
vn 0.000000 -1.000000 0.000000
vn 0.000000 -1.000000 0.000000
vn 0.000000 -1.000000 0.000000
vn 0.000000 -1.000000 0.000000
vn 1.000000 0.000000 0.000000
vn 1.000000 0.000000 0.000000
vn 1.000000 0.000000 0.000000
vn 1.000000 0.000000 0.000000
vn 0.000000 0.994593 0.103849
vn 0.000000 0.994593 0.103849
vn 0.000000 0.997761 0.066876
vn 0.000000 0.997761 0.066876
vn -1.000000 0.000000 0.000000
vn -1.000000 0.000000 0.000000
vn -1.000000 0.000000 0.000000
vn -1.000000 0.000000 0.000000
vn 0.000000 -1.000000 0.000000
vn 0.000000 -1.000000 0.000000
vn 1.000000 0.000000 0.000000
vn 1.000000 0.000000 0.000000
vn 0.000000 1.000000 0.000000
vn 0.000000 1.000000 0.000000
vn -1.000000 0.000000 0.000000
vn -1.000000 0.000000 0.000000
vn 1.000000 0.000001 0.000000
vn 1.000000 0.000000 0.000000
vn 0.000000 -1.000000 0.000000
vn 0.000000 -1.000000 0.000000
vn -1.000000 -0.000000 0.000000
vn -1.000000 -0.000001 0.000000
vn 0.000000 0.994479 -0.104936
vn 0.000000 0.994479 -0.104936
s off
g pCube15
usemtl initialShadingGroup
f 1/1/1 2/2/2 4/4/3 3/3/4
s 1
f 17/32/5 18/33/6 23/43/7 24/46/8
s off
f 5/5/9 6/6/10 8/8/11 7/7/12
s 2
f 21/40/13 22/41/14 19/35/15 20/38/16
s 3
f 18/34/17 19/36/18 22/42/19 23/44/20
s 4
f 24/45/21 21/39/22 20/37/23 17/31/24
s 1
f 3/3/25 4/4/26 10/17/27 9/16/28
s 3
f 2/2/29 11/20/30 10/18/31 4/4/32
s 2
f 12/22/33 11/19/34 2/10/35 1/9/36
s 4
f 9/15/37 12/21/38 1/1/39 3/3/40
s 2
f 25/48/41 26/49/42 14/25/43 13/24/44
s 3
f 15/28/45 14/26/46 26/50/47 27/52/48
s 1
f 16/30/49 15/27/50 27/51/51 28/54/52
s 4
f 28/53/53 25/47/54 13/23/55 16/29/56
s 1
f 9/16/28 10/17/27 18/33/6 17/32/5
s 3
f 10/18/31 11/20/30 19/36/18 18/34/17
s 2
f 20/38/16 19/35/15 11/19/34 12/22/33
s 4
f 17/31/24 20/37/23 12/21/38 9/15/37
s 2
f 13/24/44 14/25/43 22/41/14 21/40/13
s 3
f 23/44/20 22/42/19 14/26/46 15/28/45
s 1
f 24/46/8 23/43/7 15/27/50 16/30/49
s 4
f 16/29/56 13/23/55 21/39/22 24/45/21
s 2
f 29/56/57 30/57/58 34/65/59 35/68/60
s 3
f 33/64/61 34/66/62 30/58/63 31/60/64
s 1
f 36/70/65 33/63/66 31/59/67 32/62/68
s 4
f 32/61/69 29/55/70 35/67/71 36/69/72
s 2
f 7/7/73 8/8/74 30/57/58 29/56/57
s 3
f 31/60/64 30/58/63 8/11/75 6/12/76
s 1
f 32/62/68 31/59/67 6/6/77 5/5/78
s 4
f 7/13/79 29/55/70 32/61/69 5/14/80
s 3
f 37/72/81 38/74/82 34/66/62 33/64/61
s 2
f 35/68/60 34/65/59 38/73/83 39/76/84
s 4
f 36/69/72 35/67/71 39/75/85 40/77/86
s 1
f 40/78/87 37/71/88 33/63/66 36/70/65
s 3
f 27/52/48 26/50/47 38/74/82 37/72/81
s 2
f 39/76/84 38/73/83 26/49/42 25/48/41
s 4
f 40/77/86 39/75/85 25/47/54 28/53/53
s 1
f 28/54/52 27/51/51 37/71/88 40/78/87
g default
v 0.517084 1.291753 -0.052458
v 3.447205 1.291753 -0.052458
v 0.517084 1.312468 -0.052458
v 3.447205 1.312468 -0.052458
v 0.517084 1.312468 -0.226122
v 3.447205 1.312468 -0.226122
v 0.517084 1.291753 -0.226122
v 3.447205 1.291753 -0.226122
v 0.517084 1.312468 -0.076445
v 3.447205 1.312468 -0.076445
v 3.447205 1.291753 -0.076445
v 0.517084 1.291753 -0.076445
v 0.517084 1.291753 -0.124419
v 3.447205 1.291753 -0.124419
v 3.447205 1.312468 -0.124419
v 0.517084 1.312468 -0.124419
v 0.517084 1.328780 -0.095635
v 3.447205 1.328780 -0.095635
v 3.447205 1.291753 -0.095635
v 0.517084 1.291753 -0.095635
v 0.517084 1.291753 -0.101392
v 3.447205 1.291753 -0.101392
v 3.447205 1.328780 -0.101392
v 0.517084 1.328780 -0.101392
v 0.517084 1.291753 -0.143609
v 3.447205 1.291753 -0.143609
v 3.447205 1.312468 -0.143609
v 0.517084 1.312468 -0.143609
v 0.517084 1.291753 -0.177518
v 3.447205 1.291753 -0.177518
v 3.447205 1.312468 -0.177518
v 0.517084 1.312468 -0.177518
v 3.447205 1.309086 -0.175662
v 3.447205 1.291753 -0.174127
v 0.517084 1.291753 -0.174127
v 0.517084 1.309086 -0.175662
v 3.447205 1.309086 -0.145126
v 3.447205 1.291753 -0.146661
v 0.517084 1.291753 -0.146661
v 0.517084 1.309086 -0.145126
vt 0.375000 0.000000
vt 0.625000 0.000000
vt 0.375000 0.250000
vt 0.625000 0.250000
vt 0.375000 0.500000
vt 0.625000 0.500000
vt 0.375000 0.750000
vt 0.625000 0.750000
vt 0.375000 1.000000
vt 0.625000 1.000000
vt 0.875000 0.000000
vt 0.875000 0.250000
vt 0.125000 0.000000
vt 0.125000 0.250000
vt 0.325000 0.250000
vt 0.375000 0.300000
vt 0.625000 0.300000
vt 0.675000 0.250000
vt 0.625000 0.950000
vt 0.675000 0.000000
vt 0.325000 0.000000
vt 0.375000 0.950000
vt 0.225000 0.000000
vt 0.375000 0.850000
vt 0.625000 0.850000
vt 0.775000 0.000000
vt 0.625000 0.400000
vt 0.775000 0.250000
vt 0.225000 0.250000
vt 0.375000 0.400000
vt 0.285000 0.250000
vt 0.375000 0.340000
vt 0.625000 0.340000
vt 0.715000 0.250000
vt 0.625000 0.910000
vt 0.715000 0.000000
vt 0.285000 0.000000
vt 0.375000 0.910000
vt 0.273000 0.000000
vt 0.375000 0.898000
vt 0.625000 0.898000
vt 0.727000 0.000000
vt 0.625000 0.352000
vt 0.727000 0.250000
vt 0.273000 0.250000
vt 0.375000 0.352000
vt 0.185000 0.000000
vt 0.375000 0.810000
vt 0.625000 0.810000
vt 0.815000 0.000000
vt 0.625000 0.440000
vt 0.815000 0.250000
vt 0.185000 0.250000
vt 0.375000 0.440000
vt 0.155000 0.000000
vt 0.375000 0.780000
vt 0.625000 0.780000
vt 0.845000 0.000000
vt 0.625000 0.470000
vt 0.845000 0.250000
vt 0.155000 0.250000
vt 0.375000 0.470000
vt 0.625000 0.467000
vt 0.842000 0.250000
vt 0.625000 0.783000
vt 0.842000 0.000000
vt 0.158000 0.000000
vt 0.375000 0.783000
vt 0.158000 0.250000
vt 0.375000 0.467000
vt 0.625000 0.442700
vt 0.817700 0.250000
vt 0.625000 0.807300
vt 0.817700 0.000000
vt 0.182300 0.000000
vt 0.375000 0.807300
vt 0.182300 0.250000
vt 0.375000 0.442700
vn 0.000000 0.000000 1.000000
vn 0.000000 0.000000 1.000000
vn 0.000000 0.000000 1.000000
vn 0.000000 0.000000 1.000000
vn 0.000000 0.836957 0.547269
vn 0.000000 0.836957 0.547269
vn 0.000000 0.870011 -0.493032
vn 0.000000 0.870011 -0.493032
vn 0.000000 0.000000 -1.000000
vn 0.000000 0.000000 -1.000000
vn 0.000000 0.000000 -1.000000
vn 0.000000 0.000000 -1.000000
vn 0.000000 -1.000000 0.000000
vn 0.000000 -1.000000 0.000000
vn 0.000000 -1.000000 0.000000
vn 0.000000 -1.000000 0.000000
vn 1.000000 0.000000 0.000000
vn 1.000000 0.000000 0.000000
vn 1.000000 0.000000 0.000000
vn 1.000000 0.000000 0.000000
vn -1.000000 0.000000 0.000000
vn -1.000000 0.000000 0.000000
vn -1.000000 0.000000 0.000000
vn -1.000000 0.000000 0.000000
vn 0.000000 1.000000 0.000000
vn 0.000000 1.000000 0.000000
vn 0.000000 0.935466 0.353417
vn 0.000000 0.935466 0.353417
vn 1.000000 0.000000 0.000000
vn 1.000000 0.000000 0.000000
vn 1.000000 0.000000 0.000000
vn 1.000000 0.000000 0.000000
vn 0.000000 -1.000000 0.000000
vn 0.000000 -1.000000 0.000000
vn 0.000000 -1.000000 0.000000
vn 0.000000 -1.000000 0.000000
vn -1.000000 0.000000 0.000000
vn -1.000000 0.000000 0.000000
vn -1.000000 0.000000 0.000000
vn -1.000000 0.000000 0.000000
vn 0.000000 -1.000000 0.000000
vn 0.000000 -1.000000 0.000000
vn 0.000000 -1.000000 0.000000
vn 0.000000 -1.000000 0.000000
vn 1.000000 0.000000 0.000000
vn 1.000000 0.000000 0.000000
vn 1.000000 0.000000 0.000000
vn 1.000000 0.000000 0.000000
vn 0.000000 0.932792 -0.360416
vn 0.000000 0.932792 -0.360416
vn 0.000000 0.986922 -0.161199
vn 0.000000 0.986922 -0.161199
vn -1.000000 -0.000000 0.000000
vn -1.000000 -0.000000 0.000000
vn -1.000000 0.000000 0.000000
vn -1.000000 0.000000 0.000000
vn 0.000000 -1.000000 0.000000
vn 0.000000 -1.000000 0.000000
vn 0.000000 -1.000000 0.000000
vn 0.000000 -1.000000 0.000000
vn 1.000000 0.000000 0.000000
vn 1.000000 0.000000 0.000000
vn 1.000000 0.000000 0.000000
vn 1.000000 0.000000 0.000000
vn 0.000000 0.994593 0.103849
vn 0.000000 0.994593 0.103849
vn 0.000000 0.997761 0.066876
vn 0.000000 0.997761 0.066876
vn -1.000000 0.000000 0.000000
vn -1.000000 0.000000 0.000000
vn -1.000000 0.000000 0.000000
vn -1.000000 0.000000 0.000000
vn 0.000000 -1.000000 0.000000
vn 0.000000 -1.000000 0.000000
vn 1.000000 0.000000 0.000000
vn 1.000000 0.000000 0.000000
vn 0.000000 1.000000 0.000000
vn 0.000000 1.000000 0.000000
vn -1.000000 0.000000 0.000000
vn -1.000000 0.000000 0.000000
vn 1.000000 0.000001 0.000000
vn 1.000000 0.000000 0.000000
vn 0.000000 -1.000000 0.000000
vn 0.000000 -1.000000 0.000000
vn -1.000000 -0.000000 0.000000
vn -1.000000 -0.000001 0.000000
vn 0.000000 0.994479 -0.104936
vn 0.000000 0.994479 -0.104936
s off
g pCube16
usemtl initialShadingGroup
f 41/79/89 42/80/90 44/82/91 43/81/92
s 1
f 57/110/93 58/111/94 63/121/95 64/124/96
s off
f 45/83/97 46/84/98 48/86/99 47/85/100
s 2
f 61/118/101 62/119/102 59/113/103 60/116/104
s 3
f 58/112/105 59/114/106 62/120/107 63/122/108
s 4
f 64/123/109 61/117/110 60/115/111 57/109/112
s 1
f 43/81/113 44/82/114 50/95/115 49/94/116
s 3
f 42/80/117 51/98/118 50/96/119 44/82/120
s 2
f 52/100/121 51/97/122 42/88/123 41/87/124
s 4
f 49/93/125 52/99/126 41/79/127 43/81/128
s 2
f 65/126/129 66/127/130 54/103/131 53/102/132
s 3
f 55/106/133 54/104/134 66/128/135 67/130/136
s 1
f 56/108/137 55/105/138 67/129/139 68/132/140
s 4
f 68/131/141 65/125/142 53/101/143 56/107/144
s 1
f 49/94/116 50/95/115 58/111/94 57/110/93
s 3
f 50/96/119 51/98/118 59/114/106 58/112/105
s 2
f 60/116/104 59/113/103 51/97/122 52/100/121
s 4
f 57/109/112 60/115/111 52/99/126 49/93/125
s 2
f 53/102/132 54/103/131 62/119/102 61/118/101
s 3
f 63/122/108 62/120/107 54/104/134 55/106/133
s 1
f 64/124/96 63/121/95 55/105/138 56/108/137
s 4
f 56/107/144 53/101/143 61/117/110 64/123/109
s 2
f 69/134/145 70/135/146 74/143/147 75/146/148
s 3
f 73/142/149 74/144/150 70/136/151 71/138/152
s 1
f 76/148/153 73/141/154 71/137/155 72/140/156
s 4
f 72/139/157 69/133/158 75/145/159 76/147/160
s 2
f 47/85/161 48/86/162 70/135/146 69/134/145
s 3
f 71/138/152 70/136/151 48/89/163 46/90/164
s 1
f 72/140/156 71/137/155 46/84/165 45/83/166
s 4
f 47/91/167 69/133/158 72/139/157 45/92/168
s 3
f 77/150/169 78/152/170 74/144/150 73/142/149
s 2
f 75/146/148 74/143/147 78/151/171 79/154/172
s 4
f 76/147/160 75/145/159 79/153/173 80/155/174
s 1
f 80/156/175 77/149/176 73/141/154 76/148/153
s 3
f 67/130/136 66/128/135 78/152/170 77/150/169
s 2
f 79/154/172 78/151/171 66/127/130 65/126/129
s 4
f 80/155/174 79/153/173 65/125/142 68/131/141
s 1
f 68/132/140 67/129/139 77/149/176 80/156/175
