# This file uses centimeters as units for non-parametric coordinates.

mtllib Stanina.mtl
g default
v 0.517084 0.851100 0.254508
v 3.447668 0.851100 0.254508
v 0.517084 1.291753 0.254508
v 3.447668 1.291753 0.254508
v 0.517084 1.291753 -0.152484
v 3.447668 1.291753 -0.152484
v 0.517084 0.851100 -0.152484
v 3.447668 0.851100 -0.152484
v 0.517084 1.291753 0.213809
v 3.447668 1.291753 0.213809
v 3.447668 0.851100 0.213809
v 0.517084 0.851100 0.213809
v 0.517084 0.851100 -0.115855
v 3.447668 0.851100 -0.115855
v 3.447668 1.291753 -0.115855
v 0.517084 1.291753 -0.115855
v 0.517084 1.247688 0.254508
v 3.447668 1.247688 0.254508
v 3.447668 1.247688 0.213809
v 3.447668 1.247688 -0.115855
v 3.447668 1.247688 -0.152484
v 0.517084 1.247688 -0.152484
v 0.517084 1.247688 -0.115855
v 0.517084 1.247688 0.213809
vt 0.375000 0.000000
vt 0.625000 0.000000
vt 0.375000 0.250000
vt 0.625000 0.250000
vt 0.375000 0.500000
vt 0.625000 0.500000
vt 0.375000 0.750000
vt 0.625000 0.750000
vt 0.375000 1.000000
vt 0.625000 1.000000
vt 0.875000 0.000000
vt 0.875000 0.250000
vt 0.125000 0.000000
vt 0.125000 0.250000
vt 0.362500 0.262500
vt 0.637500 0.262500
vt 0.625000 0.975000
vt 0.650000 0.000000
vt 0.350000 0.000000
vt 0.375000 0.975000
vt 0.147500 0.000000
vt 0.375000 0.772500
vt 0.625000 0.772500
vt 0.852500 0.000000
vt 0.738750 0.363750
vt 0.261250 0.363750
vt 0.375000 0.225000
vt 0.625000 0.225000
vt 0.650000 0.225000
vt 0.852500 0.225000
vt 0.625000 0.525000
vt 0.875000 0.225000
vt 0.125000 0.225000
vt 0.375000 0.525000
vt 0.147500 0.225000
vt 0.350000 0.225000
vn 0.000000 0.000000 1.000000
vn 0.000000 0.000000 1.000000
vn 0.000000 0.000000 1.000000
vn 0.000000 0.000000 1.000000
vn 0.000000 0.000000 -1.000000
vn 0.000000 0.000000 -1.000000
vn 0.000000 0.000000 -1.000000
vn 0.000000 0.000000 -1.000000
vn 0.000000 -1.000000 0.000000
vn 0.000000 -1.000000 0.000000
vn 0.000000 -1.000000 0.000000
vn 0.000000 -1.000000 0.000000
vn 0.000000 1.000000 0.000000
vn 0.000000 1.000000 0.000000
vn 0.000000 1.000000 0.000000
vn 0.000000 1.000000 0.000000
vn 1.000000 0.000000 0.000000
vn 1.000000 0.000000 0.000000
vn 1.000000 0.000000 0.000000
vn 1.000000 0.000000 0.000000
vn 0.000000 -1.000000 0.000000
vn 0.000000 -1.000000 0.000000
vn -1.000000 0.000000 0.000000
vn -1.000000 0.000000 0.000000
vn -1.000000 0.000000 0.000000
vn -1.000000 0.000000 0.000000
vn 0.000000 -1.000000 0.000000
vn 0.000000 -1.000000 0.000000
vn 1.000000 0.000000 0.000000
vn 1.000000 0.000000 0.000000
vn 1.000000 0.000000 0.000000
vn 1.000000 0.000000 0.000000
vn 0.000000 1.000000 0.000000
vn 0.000000 1.000000 0.000000
vn 0.000000 1.000000 0.000000
vn 0.000000 1.000000 0.000000
vn -1.000000 0.000000 0.000000
vn -1.000000 0.000000 0.000000
vn -1.000000 0.000000 0.000000
vn -1.000000 0.000000 0.000000
vn 0.000000 0.000000 1.000000
vn 0.000000 0.000000 1.000000
vn 1.000000 0.000000 0.000000
vn 1.000000 0.000000 0.000000
vn 1.000000 0.000000 0.000000
vn 1.000000 0.000000 0.000000
vn 0.000000 0.000000 -1.000000
vn 0.000000 0.000000 -1.000000
vn -1.000000 0.000000 0.000000
vn -1.000000 0.000000 0.000000
vn -1.000000 0.000000 0.000000
vn -1.000000 0.000000 0.000000
vn 0.000000 1.000000 0.000000
vn 0.000000 1.000000 0.000000
vn 0.000000 1.000000 0.000000
vn 0.000000 1.000000 0.000000
vn 0.000000 0.000000 -1.000000
vn 0.000000 0.000000 -1.000000
vn 0.000000 0.000000 -1.000000
vn 0.000000 0.000000 -1.000000
vn 0.000000 0.000000 1.000000
vn 0.000000 0.000000 1.000000
vn 0.000000 0.000000 1.000000
vn 0.000000 0.000000 1.000000
s 1
g pCube13
usemtl initialShadingGroup
f 17/27/1 18/28/2 4/4/3 3/3/4
s 2
f 5/5/5 6/6/6 21/31/7 22/34/8
s 3
f 13/22/9 14/23/10 11/17/11 12/20/12
s off
f 3/3/13 4/4/14 10/16/15 9/15/16
s 4
f 18/28/17 19/29/18 10/16/19 4/4/20
s 3
f 12/20/12 11/17/11 2/10/21 1/9/22
s 5
f 9/15/23 24/36/24 17/27/25 3/3/26
s 3
f 7/7/27 8/8/28 14/23/10 13/22/9
s 4
f 15/25/29 20/30/30 21/32/31 6/12/32
s off
f 16/26/33 15/25/34 6/6/35 5/5/36
s 5
f 22/33/37 23/35/38 16/26/39 5/14/40
s 1
f 1/1/41 2/2/42 18/28/2 17/27/1
s 4
f 2/2/43 11/18/44 19/29/18 18/28/17
f 20/30/30 19/29/18 11/18/44 14/24/45
f 21/32/31 20/30/30 14/24/45 8/11/46
s 2
f 22/34/8 21/31/7 8/8/47 7/7/48
s 5
f 7/13/49 13/21/50 23/35/38 22/33/37
f 24/36/24 23/35/38 13/21/50 12/19/51
f 17/27/25 24/36/24 12/19/51 1/1/52
s off
f 19/29/53 20/30/54 23/35/55 24/36/56
f 9/15/57 10/16/58 19/29/59 24/36/60
f 15/25/61 16/26/62 23/35/63 20/30/64
