# This file uses centimeters as units for non-parametric coordinates.

mtllib body_knopki.mtl
g default
v 1.430601 1.317762 0.428899
v 1.579017 1.317762 0.428899
v 1.430601 1.375557 0.428899
v 1.579017 1.375557 0.428899
v 1.430601 1.375557 0.397427
v 1.579017 1.375557 0.397427
v 1.430601 1.317762 0.397427
v 1.579017 1.317762 0.397427
v 1.430601 1.375557 0.428899
v 1.579017 1.375557 0.428899
v 1.579017 1.317762 0.428899
v 1.430601 1.317762 0.428899
v 1.443159 1.317762 0.447722
v 1.443159 1.317762 0.428899
v 1.443159 1.317762 0.397427
v 1.443159 1.375557 0.397427
v 1.443159 1.375557 0.428899
v 1.443159 1.375557 0.447722
v 1.565825 1.317762 0.428899
v 1.565825 1.317762 0.447722
v 1.565825 1.375557 0.447722
v 1.565825 1.375557 0.428899
v 1.565825 1.375557 0.397427
v 1.565825 1.317762 0.397427
v 1.430601 1.359388 0.447722
v 1.443159 1.359388 0.447722
v 1.565825 1.359388 0.447722
v 1.579017 1.359388 0.447722
v 1.579017 1.359388 0.428899
v 1.579017 1.359388 0.397427
v 1.565825 1.359388 0.397427
v 1.443159 1.359388 0.397427
v 1.430601 1.359388 0.397427
v 1.430601 1.359388 0.428899
v 1.430601 1.329104 0.447722
v 1.443159 1.329104 0.447722
v 1.565825 1.329104 0.447722
v 1.579017 1.329104 0.447722
v 1.579017 1.329104 0.428899
v 1.579017 1.329104 0.397427
v 1.565825 1.329104 0.397427
v 1.443159 1.329104 0.397427
v 1.430601 1.329104 0.397427
v 1.430601 1.329104 0.428899
v 1.541570 1.317762 0.447722
v 1.541570 1.317762 0.428899
v 1.541570 1.317762 0.397427
v 1.541570 1.329104 0.397427
v 1.541570 1.359388 0.397427
v 1.541570 1.375557 0.397427
v 1.541570 1.375557 0.428899
v 1.541570 1.375557 0.447722
v 1.541570 1.359388 0.447722
v 1.541570 1.329104 0.447722
v 1.462806 1.317762 0.447722
v 1.462806 1.317762 0.428899
v 1.462806 1.317762 0.397427
v 1.462806 1.329104 0.397427
v 1.462806 1.359388 0.397427
v 1.462806 1.375557 0.397427
v 1.462806 1.375557 0.428899
v 1.462806 1.375557 0.447722
v 1.462806 1.359388 0.447722
v 1.462806 1.329104 0.447722
v 1.443159 1.365110 0.447722
v 1.462806 1.365110 0.447722
v 1.541570 1.365110 0.447722
v 1.565825 1.365110 0.447722
v 1.443159 1.329887 0.447722
v 1.430601 1.329887 0.447722
v 1.430601 1.329887 0.428899
v 1.430601 1.329887 0.397427
v 1.443159 1.329887 0.397427
v 1.462806 1.329887 0.397427
v 1.541570 1.329887 0.397427
v 1.565825 1.329887 0.397427
v 1.579017 1.329887 0.397427
v 1.579017 1.329887 0.428899
v 1.579017 1.329887 0.447722
v 1.565825 1.329887 0.447722
v 1.541570 1.329887 0.447722
v 1.462806 1.329887 0.447722
v 1.462806 1.365110 0.444728
v 1.541570 1.365110 0.444728
v 1.462806 1.359388 0.444728
v 1.541570 1.359388 0.444728
v 1.541570 1.329887 0.444728
v 1.462806 1.329887 0.444728
vt 0.375000 0.000000
vt 0.625000 0.000000
vt 0.375000 0.250000
vt 0.625000 0.250000
vt 0.375000 0.500000
vt 0.625000 0.500000
vt 0.375000 0.750000
vt 0.625000 0.750000
vt 0.375000 1.000000
vt 0.625000 1.000000
vt 0.875000 0.000000
vt 0.875000 0.250000
vt 0.125000 0.000000
vt 0.125000 0.250000
vt 0.281436 0.250000
vt 0.375000 0.343564
vt 0.625000 0.343564
vt 0.718564 0.250000
vt 0.625000 0.906436
vt 0.718564 0.000000
vt 0.281436 0.000000
vt 0.375000 0.906436
vt 0.396153 0.000000
vt 0.396153 1.000000
vt 0.396153 0.906436
vt 0.396153 0.750000
vt 0.396153 0.500000
vt 0.396153 0.343564
vt 0.396153 0.250000
vt 0.602779 0.906436
vt 0.602778 0.000000
vt 0.602778 1.000000
vt 0.602778 0.250000
vt 0.602778 0.343564
vt 0.602778 0.500000
vt 0.602778 0.750000
vt 0.375000 0.180061
vt 0.396153 0.180061
vt 0.602778 0.180061
vt 0.625000 0.180061
vt 0.718564 0.180061
vt 0.625000 0.569939
vt 0.875000 0.180061
vt 0.602778 0.569939
vt 0.396153 0.569939
vt 0.125000 0.180061
vt 0.375000 0.569939
vt 0.281436 0.180061
vt 0.375000 0.049059
vt 0.396153 0.049059
vt 0.602778 0.049059
vt 0.625000 0.049059
vt 0.718564 0.049059
vt 0.625000 0.700941
vt 0.875000 0.049059
vt 0.602778 0.700941
vt 0.396153 0.700941
vt 0.125000 0.049059
vt 0.375000 0.700941
vt 0.281436 0.049059
vt 0.561922 0.000000
vt 0.561922 1.000000
vt 0.561922 0.906436
vt 0.561922 0.750000
vt 0.561922 0.700941
vt 0.561922 0.569939
vt 0.561922 0.500000
vt 0.561922 0.343564
vt 0.561922 0.250000
vt 0.561922 0.180061
vt 0.561922 0.049059
vt 0.429247 0.000000
vt 0.429247 1.000000
vt 0.429247 0.906436
vt 0.429247 0.750000
vt 0.429247 0.700941
vt 0.429247 0.569939
vt 0.429247 0.500000
vt 0.429247 0.343564
vt 0.429247 0.250000
vt 0.429247 0.180061
vt 0.429247 0.049059
vt 0.396153 0.204811
vt 0.429247 0.204811
vt 0.561922 0.204811
vt 0.602779 0.204811
vt 0.396153 0.052447
vt 0.375000 0.052447
vt 0.281436 0.052447
vt 0.125000 0.052447
vt 0.375000 0.697553
vt 0.396153 0.697553
vt 0.429247 0.697553
vt 0.561922 0.697553
vt 0.602778 0.697553
vt 0.625000 0.697553
vt 0.875000 0.052447
vt 0.718564 0.052447
vt 0.625000 0.052447
vt 0.602778 0.052447
vt 0.561922 0.052447
vt 0.429247 0.052447
vt 0.561922 0.204811
vt 0.429247 0.204811
vt 0.429247 0.180061
vt 0.561922 0.180061
vt 0.429247 0.052447
vt 0.561922 0.052447
vn 0.000000 0.000000 1.000000
vn 0.000000 0.000000 1.000000
vn 0.000000 0.000000 1.000000
vn 0.345855 0.282191 0.894848
vn 0.000000 1.000000 0.000000
vn 0.000000 1.000000 0.000000
vn 0.000000 1.000000 0.000000
vn 0.000000 1.000000 0.000000
vn 0.000000 0.000000 -1.000000
vn 0.000000 0.000000 -1.000000
vn 0.000000 0.000000 -1.000000
vn 0.000000 0.000000 -1.000000
vn 0.000000 -1.000000 0.000000
vn 0.000000 -1.000000 0.000000
vn 0.000000 -1.000000 0.000000
vn 0.000000 -1.000000 0.000000
vn 1.000000 0.000000 0.000000
vn 1.000000 0.000000 0.000000
vn 1.000000 0.000000 0.000000
vn 1.000000 0.000000 0.000000
vn -1.000000 0.000000 0.000000
vn -1.000000 0.000000 0.000000
vn -1.000000 0.000000 0.000000
vn -1.000000 0.000000 0.000000
vn 0.000000 1.000000 0.000000
vn 0.000000 1.000000 0.000000
vn 1.000000 0.000000 0.000000
vn 0.000000 0.000000 0.000000
vn 0.000000 -1.000000 0.000000
vn 0.000000 -1.000000 0.000000
vn -1.000000 0.000000 0.000000
vn -0.000000 0.000000 0.000000
vn 0.000000 -1.000000 0.000000
vn 0.000000 -1.000000 0.000000
vn 0.000000 -1.000000 0.000000
vn 0.000000 -0.000000 0.000000
vn 0.000000 -1.000000 0.000000
vn 0.000000 -1.000000 0.000000
vn 0.000000 0.000000 -1.000000
vn 0.000000 0.000000 -1.000000
vn 0.000000 0.000000 -1.000000
vn 0.000000 0.000000 -1.000000
vn 0.000000 1.000000 0.000000
vn 0.000000 1.000000 0.000000
vn 0.000000 1.000000 0.000000
vn 0.000000 1.000000 0.000000
vn 0.000000 0.000000 0.000000
vn 0.000000 1.000000 0.000000
vn -0.176104 0.136777 0.974823
vn 0.000000 0.000000 1.000000
vn 0.000000 0.000000 1.000000
vn -0.393536 0.305654 0.867009
vn 0.000000 -1.000000 0.000000
vn 0.000000 -0.000000 0.000000
vn 0.000000 0.000000 1.000000
vn 0.168602 0.137566 0.976037
vn 0.000000 0.000000 0.000000
vn 0.000000 1.000000 0.000000
vn 0.000000 1.000000 0.000000
vn 0.000000 0.000000 -1.000000
vn 0.000000 0.000000 -1.000000
vn 0.000000 -1.000000 0.000000
vn -0.475517 -0.526513 0.704747
vn 0.000000 0.000000 1.000000
vn 0.000000 0.000000 1.000000
vn 0.000000 0.000000 1.000000
vn 0.000000 0.000000 1.000000
vn 0.000000 0.000000 1.000000
vn 0.000000 0.000000 1.000000
vn 0.000000 0.000000 1.000000
vn 0.000000 0.000000 1.000000
vn 0.459641 -0.534645 0.709144
vn 1.000000 0.000000 0.000000
vn 1.000000 0.000000 0.000000
vn 1.000000 0.000000 0.000000
vn 1.000000 0.000000 0.000000
vn 1.000000 0.000000 0.000000
vn 1.000000 0.000000 0.000000
vn 0.000000 0.000000 -1.000000
vn 0.000000 0.000000 -1.000000
vn 0.000000 0.000000 -1.000000
vn 0.000000 0.000000 -1.000000
vn 0.000000 0.000000 -1.000000
vn 0.000000 0.000000 -1.000000
vn 0.000000 0.000000 -1.000000
vn 0.000000 0.000000 -1.000000
vn 0.000000 0.000000 -1.000000
vn 0.000000 0.000000 -1.000000
vn -1.000000 0.000000 0.000000
vn -1.000000 0.000000 0.000000
vn -1.000000 0.000000 0.000000
vn -1.000000 0.000000 0.000000
vn -1.000000 0.000000 0.000000
vn -1.000000 0.000000 0.000000
vn -0.293682 -0.325178 0.898894
vn 0.000000 0.000000 1.000000
vn 0.252761 -0.294006 0.921777
vn 0.000000 0.000000 0.000000
vn 1.000000 0.000000 0.000000
vn 1.000000 0.000000 0.000000
vn 0.000000 0.000000 -1.000000
vn 0.000000 0.000000 -1.000000
vn 0.000000 0.000000 -1.000000
vn 0.000000 0.000000 -1.000000
vn 0.000000 0.000000 -1.000000
vn -1.000000 0.000000 0.000000
vn -1.000000 0.000000 0.000000
vn -0.000000 0.000000 0.000000
vn -0.698717 0.542684 0.466142
vn -0.611868 -0.677488 0.408201
vn 0.592956 -0.689715 0.415568
vn 0.680901 0.555563 0.477204
vn 0.000000 -1.000000 0.000000
vn 0.000000 -1.000000 0.000000
vn 0.000000 -1.000000 0.000000
vn 0.000000 0.000000 -1.000000
vn 0.000000 0.000000 -1.000000
vn 0.000000 0.000000 -1.000000
vn 0.000000 0.000000 -1.000000
vn 0.000000 0.000000 -1.000000
vn 0.000000 1.000000 0.000000
vn 0.000000 1.000000 0.000000
vn 0.000000 1.000000 0.000000
vn 0.000000 0.000000 1.000000
vn 0.000000 0.000000 1.000000
vn 0.000000 0.000000 1.000000
vn 0.000000 0.000000 1.000000
vn 0.000000 0.000000 1.000000
vn 0.000000 0.000000 1.000000
vn 0.000000 0.000000 1.000000
vn 0.000000 0.000000 1.000000
vn 0.000000 0.000000 1.000000
vn 0.000000 0.000000 1.000000
vn 0.000000 0.000000 1.000000
vn 0.000000 0.000000 1.000000
vn 0.000000 0.000000 1.000000
vn 0.000000 -1.000000 0.000000
vn 0.000000 -1.000000 0.000000
vn 0.000000 -1.000000 0.000000
vn 0.000000 -1.000000 0.000000
vn 1.000000 0.000000 0.000000
vn 1.000000 0.000000 0.000000
vn 1.000000 0.000000 0.000000
vn 1.000000 0.000000 0.000000
vn -1.000000 0.000000 0.000000
vn -1.000000 0.000000 0.000000
vn -1.000000 0.000000 0.000000
vn -1.000000 0.000000 0.000000
vn 0.000000 1.000000 0.000000
vn 0.000000 1.000000 0.000000
vn 0.000000 1.000000 0.000000
vn 0.000000 1.000000 0.000000
vn -1.000000 0.000000 0.000000
vn -1.000000 0.000000 0.000000
vn 1.000000 0.000000 0.000000
vn 1.000000 0.000000 0.000000
s 1
g pCube50
usemtl initialShadingGroup
f 52/69/1 67/85/2 68/86/3 21/33/4
s 2
f 50/67/5 51/68/6 22/34/7 23/35/8
s 3
f 31/44/9 49/66/10 50/67/11 23/35/12
s 4
f 46/63/13 47/64/14 24/36/15 19/30/16
s 5
f 10/18/17 29/41/18 30/43/19 6/12/20
s 6
f 33/46/21 34/48/22 9/15/23 5/14/24
s 2
f 51/68/6 52/69/25 21/33/26 22/34/7
s 5
f 28/40/27 29/41/18 10/18/17 4/4/28
s 4
f 45/62/29 46/63/13 19/30/16 20/32/30
s 6
f 9/15/23 34/48/22 25/37/31 3/3/32
s 4
f 12/22/33 14/25/34 13/24/35 1/9/36
f 7/7/37 15/26/38 14/25/34 12/22/33
s 3
f 5/5/39 16/27/40 32/45/41 33/47/42
s 2
f 9/16/43 17/28/44 16/27/45 5/5/46
f 3/3/47 18/29/48 17/28/44 9/16/43
s 1
f 25/37/49 26/38/50 65/83/51 18/29/52
s 4
f 20/32/30 19/30/16 11/19/53 2/10/54
s 1
f 21/33/4 68/86/3 27/39/55 28/40/56
s 2
f 22/34/7 21/33/26 4/4/57 10/17/58
f 23/35/8 22/34/7 10/17/58 6/6/59
s 3
f 30/42/60 31/44/9 23/35/12 6/6/61
s 4
f 19/30/16 24/36/15 8/8/62 11/19/53
s 1
f 35/49/63 36/50/64 69/87/65 70/88/66
f 80/100/67 81/101/68 54/71/69 37/51/70
f 79/99/71 80/100/67 37/51/70 38/52/72
s 5
f 38/52/73 39/53/74 78/98/75 79/99/76
f 77/97/77 78/98/75 39/53/74 40/55/78
s 3
f 40/54/79 41/56/80 76/95/81 77/96/82
f 41/56/80 48/65/83 75/94/84 76/95/81
f 72/91/85 73/92/86 42/57/87 43/59/88
s 6
f 43/58/89 44/60/90 71/89/91 72/90/92
f 70/88/93 71/89/91 44/60/90 35/49/94
s 1
f 35/49/63 13/23/95 36/50/64
f 37/51/70 54/71/69 45/61/96 20/31/97
f 38/52/72 37/51/70 20/31/97
s 5
f 2/2/98 11/20/99 39/53/74 38/52/73
f 40/55/78 39/53/74 11/20/99 8/11/100
s 3
f 24/36/101 41/56/80 40/54/79 8/8/102
f 47/64/103 48/65/83 41/56/80 24/36/101
f 43/59/88 42/57/87 15/26/104 7/7/105
s 6
f 7/13/106 12/21/107 44/60/90 43/58/89
f 35/49/94 44/60/90 12/21/107 1/1/108
s 1
f 25/37/49 18/29/52 3/3/109
f 1/1/110 13/23/95 35/49/63
f 38/52/72 20/31/97 2/2/111
f 21/33/4 28/40/56 4/4/112
s 4
f 55/73/113 56/74/114 46/63/13 45/62/29
f 56/74/114 57/75/115 47/64/14 46/63/13
s 3
f 57/75/116 58/76/117 48/65/83 47/64/103
f 74/93/118 75/94/84 48/65/83 58/76/117
f 50/67/11 49/66/10 59/77/119 60/78/120
s 2
f 60/78/121 61/79/122 51/68/6 50/67/5
f 61/79/122 62/80/123 52/69/25 51/68/6
s 1
f 62/80/124 66/84/125 67/85/2 52/69/1
f 54/71/69 81/101/68 82/102/126 64/82/127
f 45/61/96 54/71/69 64/82/127 55/72/128
s 4
f 13/24/35 14/25/34 56/74/114 55/73/113
f 14/25/34 15/26/38 57/75/115 56/74/114
s 3
f 15/26/104 42/57/87 58/76/117 57/75/116
f 73/92/86 74/93/118 58/76/117 42/57/87
f 60/78/120 59/77/119 32/45/41 16/27/40
s 2
f 16/27/45 17/28/44 61/79/122 60/78/121
f 17/28/44 18/29/48 62/80/123 61/79/122
s 1
f 18/29/52 65/83/51 66/84/125 62/80/124
f 64/82/127 82/102/126 69/87/65 36/50/64
f 55/72/128 64/82/127 36/50/64 13/23/95
f 66/84/125 65/83/51 26/38/50 63/81/129
s 16
f 84/103/130 83/104/131 85/105/132 86/106/133
s 1
f 68/86/3 67/85/2 53/70/134 27/39/55
f 70/88/66 69/87/65 26/38/50 25/37/49
s 6
f 25/37/31 34/48/22 71/89/91 70/88/93
f 72/90/92 71/89/91 34/48/22 33/46/21
s 3
f 33/47/42 32/45/41 73/92/86 72/91/85
f 59/77/119 74/93/118 73/92/86 32/45/41
f 49/66/10 75/94/84 74/93/118 59/77/119
f 76/95/81 75/94/84 49/66/10 31/44/9
f 77/96/82 76/95/81 31/44/9 30/42/60
s 5
f 30/43/19 29/41/18 78/98/75 77/97/77
f 79/99/76 78/98/75 29/41/18 28/40/27
s 1
f 28/40/56 27/39/55 80/100/67 79/99/71
f 27/39/55 53/70/134 81/101/68 80/100/67
s 16
f 88/107/135 87/108/136 86/106/133 85/105/132
s 1
f 69/87/65 82/102/126 63/81/129 26/38/50
s off
f 67/85/137 66/84/138 83/104/139 84/103/140
s 17
f 66/84/141 63/81/142 85/105/143 83/104/144
s 18
f 53/70/145 67/85/146 84/103/147 86/106/148
s off
f 82/102/149 81/101/150 87/108/151 88/107/152
s 18
f 81/101/153 53/70/145 86/106/148 87/108/154
s 17
f 63/81/142 82/102/155 88/107/156 85/105/143
