# This file uses centimeters as units for non-parametric coordinates.

mtllib fartuk.mtl
g default
v 0.896963 1.311395 -0.142517
v 1.873062 1.311395 -0.142517
v 0.896963 1.377715 -0.142517
v 1.873062 1.377715 -0.142517
v 0.896963 1.377715 -0.328361
v 1.873062 1.377715 -0.328361
v 0.896963 1.311395 -0.328361
v 1.873062 1.311395 -0.328361
vt 0.375000 0.000000
vt 0.625000 0.000000
vt 0.625000 0.250000
vt 0.375000 0.250000
vt 0.625000 0.500000
vt 0.375000 0.500000
vt 0.625000 0.750000
vt 0.375000 0.750000
vt 0.625000 1.000000
vt 0.375000 1.000000
vt 0.875000 0.000000
vt 0.875000 0.250000
vt 0.125000 0.000000
vt 0.125000 0.250000
vn 0.000000 0.000000 1.000000
vn 0.000000 0.000000 1.000000
vn 0.000000 0.000000 1.000000
vn 0.000000 0.000000 1.000000
vn 0.000000 1.000000 0.000000
vn 0.000000 1.000000 0.000000
vn 0.000000 1.000000 0.000000
vn 0.000000 1.000000 0.000000
vn 0.000000 0.000000 -1.000000
vn 0.000000 0.000000 -1.000000
vn 0.000000 0.000000 -1.000000
vn 0.000000 0.000000 -1.000000
vn 0.000000 -1.000000 0.000000
vn 0.000000 -1.000000 0.000000
vn 0.000000 -1.000000 0.000000
vn 0.000000 -1.000000 0.000000
vn 1.000000 0.000000 0.000000
vn 1.000000 0.000000 0.000000
vn 1.000000 0.000000 0.000000
vn 1.000000 0.000000 0.000000
vn -1.000000 0.000000 0.000000
vn -1.000000 0.000000 0.000000
vn -1.000000 0.000000 0.000000
vn -1.000000 0.000000 0.000000
s off
g polySurface5 pCube33
usemtl initialShadingGroup
f 1/1/1 2/2/2 4/3/3 3/4/4
f 3/4/5 4/3/6 6/5/7 5/6/8
f 5/6/9 6/5/10 8/7/11 7/8/12
f 7/8/13 8/7/14 2/9/15 1/10/16
f 2/2/17 8/11/18 6/12/19 4/3/20
f 7/13/21 1/1/22 3/4/23 5/14/24
g default
v 0.920177 1.312826 0.352278
v 1.652260 1.312826 0.424274
v 0.920177 1.376368 0.352278
v 1.605706 1.376368 0.424274
v 0.920177 1.376368 0.114781
v 1.605706 1.376368 0.114781
v 0.920177 1.312826 0.114781
v 1.652260 1.312826 0.114781
v 0.993158 1.312826 0.352278
v 0.993158 1.312826 0.114781
v 0.993158 1.376368 0.114781
v 0.993158 1.376368 0.352278
v 0.993158 1.312826 0.424274
v 0.993158 1.376368 0.424274
v 0.993158 1.376368 0.246827
v 1.605706 1.376368 0.246827
v 1.652260 1.312826 0.246827
v 0.993158 1.312826 0.246827
v 1.605706 1.376368 0.246827
v 1.652260 1.312826 0.246827
v 1.652260 1.312826 0.114781
v 1.605706 1.376368 0.114781
v 1.871786 1.376368 0.246827
v 1.871786 1.312826 0.246827
v 1.871786 1.312826 0.114781
v 1.871786 1.376368 0.114781
v 1.652260 1.334556 0.424274
v 1.652260 1.334556 0.246827
v 1.871786 1.343773 0.246827
v 1.871786 1.343773 0.114781
v 1.629586 1.343773 0.114781
v 0.993158 1.343773 0.114781
v 0.920177 1.343773 0.114781
v 0.920177 1.343773 0.352278
v 0.993158 1.343773 0.352278
v 0.993158 1.343773 0.424274
vt 0.375000 0.000000
vt 0.625000 0.000000
vt 0.625000 0.250000
vt 0.375000 0.250000
vt 0.625000 0.500000
vt 0.375000 0.500000
vt 0.625000 0.750000
vt 0.375000 0.750000
vt 0.625000 1.000000
vt 0.375000 1.000000
vt 0.875000 0.000000
vt 0.875000 0.250000
vt 0.125000 0.000000
vt 0.125000 0.250000
vt 0.399020 0.000000
vt 0.399020 1.000000
vt 0.399805 0.750000
vt 0.399805 0.500000
vt 0.399020 0.250000
vt 0.400591 0.000000
vt 0.400591 1.000000
vt 0.400591 0.250000
vt 0.400141 0.393337
vt 0.625000 0.393337
vt 0.768337 0.250000
vt 0.625000 0.856663
vt 0.768337 0.000000
vt 0.400141 0.856663
vt 0.768337 0.250000
vt 0.768337 0.000000
vt 0.875000 0.000000
vt 0.875000 0.250000
vt 0.768337 0.250000
vt 0.768337 0.000000
vt 0.875000 0.000000
vt 0.875000 0.250000
vt 0.625000 0.121759
vt 0.768337 0.121759
vt 0.768337 0.121759
vt 0.875000 0.121759
vt 0.875000 0.121759
vt 0.399805 0.628241
vt 0.125000 0.121759
vt 0.375000 0.628241
vt 0.375000 0.121759
vt 0.399020 0.121759
vt 0.400591 0.121759
vn -0.702287 0.000000 0.711894
vn -0.702286 0.000000 0.711895
vn -0.110993 0.000000 0.993821
vn -0.099166 0.000000 0.995071
vn 0.000000 1.000000 0.000000
vn 0.000000 1.000000 0.000000
vn 0.000000 1.000000 0.000000
vn 0.000000 1.000000 0.000000
vn 0.000004 -1.000000 0.000000
vn 0.000000 -1.000000 0.000000
vn -0.000000 -1.000000 0.000000
vn -0.000000 -1.000000 0.000000
vn 1.000000 0.000000 0.000000
vn 1.000000 0.000000 0.000000
vn 1.000000 0.000000 0.000000
vn 1.000000 0.000000 0.000000
vn -1.000000 0.000000 0.000000
vn -1.000000 0.000000 0.000000
vn -1.000000 0.000000 0.000000
vn -1.000000 0.000000 0.000000
vn 0.000004 -1.000000 0.000000
vn 0.000004 -1.000000 0.000000
vn 0.000000 0.000000 -1.000000
vn -0.000000 0.000000 -1.000000
vn -0.000000 0.000000 -1.000000
vn 0.000000 0.000000 -1.000000
vn 0.000000 1.000000 0.000000
vn 0.000000 1.000000 0.000000
vn 0.000000 0.000000 1.000000
vn 0.000000 0.000000 1.000000
vn 0.000000 0.000000 1.000000
vn 0.000000 0.000000 1.000000
vn 0.000000 1.000000 0.000000
vn 0.000000 1.000000 0.000000
vn -0.000000 0.000000 -1.000000
vn -0.000000 0.000000 -1.000000
vn -0.000000 0.000000 -1.000000
vn -0.000000 -1.000000 0.000000
vn -0.000000 -1.000000 0.000000
vn 0.000000 1.000000 0.000000
vn 0.806669 0.591003 0.000000
vn 0.806669 0.591003 0.000000
vn 0.668199 0.743983 0.000000
vn 0.668199 0.743983 0.000000
vn -0.000000 -1.000000 0.000000
vn 0.000000 0.000000 -0.000000
vn 0.000000 0.000000 -1.000000
vn 0.000000 0.000000 -0.000000
vn 0.000000 0.000000 -0.000000
vn 0.000000 0.000000 -0.000000
vn 0.000000 0.000000 0.000000
vn 0.000000 0.000000 0.000000
vn 0.000000 0.000000 0.000000
vn 0.000000 0.000000 0.000000
vn 0.000000 0.000000 -0.000000
vn 0.000000 0.000000 -0.000000
vn 0.000000 0.000000 -0.000000
vn 0.042745 0.000000 -0.999086
vn 0.000000 0.000000 -0.000000
vn 0.000000 0.000000 0.000000
vn 0.000000 0.000000 0.000000
vn 0.000000 0.000000 0.000000
vn 0.000000 0.000000 0.000000
vn -0.000000 0.000000 1.000000
vn -0.000000 0.000000 1.000000
vn -0.000000 0.000000 1.000000
vn -0.000000 0.000000 1.000000
vn -0.000000 0.000000 1.000000
vn 0.000000 -1.000000 0.000000
vn 0.000000 -1.000000 0.000000
vn 0.000000 -1.000000 0.000000
vn 0.000000 -1.000000 0.000000
vn 0.000000 0.000000 -1.000000
vn 0.000000 0.000000 -1.000000
vn 0.000000 0.000000 -1.000000
vn 0.000000 0.000000 -1.000000
vn 0.000000 1.000000 0.000000
vn 0.000000 1.000000 0.000000
vn 0.000000 1.000000 0.000000
vn 0.000000 1.000000 0.000000
vn 1.000000 0.000009 0.000000
vn 1.000000 0.000009 0.000000
vn 1.000000 0.000000 0.000000
vn 1.000000 0.000000 0.000000
vn 0.000000 0.000000 -1.000000
vn 0.000000 0.000000 -1.000000
vn 0.000000 0.000000 -1.000000
vn -1.000000 0.000000 0.000000
vn -1.000000 0.000000 0.000000
vn 0.000000 0.000000 1.000000
vn -0.702285 0.000000 0.711896
vn -0.127299 0.000000 0.991864
vn 0.000000 0.000000 1.000000
s 1
g pCube33 polySurface7
usemtl initialShadingGroup
f 20/33/25 43/60/26 44/61/27 22/36/28
s 2
f 19/32/29 20/33/30 22/36/31 23/37/32
s 3
f 17/30/33 18/31/34 26/42/35 21/35/36
s 4
f 31/47/37 37/53/38 38/54/39 34/50/40
s 5
f 41/57/41 42/59/42 11/18/43 13/28/44
s 3
f 15/22/45 18/31/34 17/30/33 9/24/46
s 6
f 13/20/47 19/32/48 40/56/49 41/58/50
s 2
f 11/18/51 20/33/30 19/32/29 13/20/52
s 1
f 42/59/53 43/60/26 20/33/25 11/18/54
f 22/36/28 44/61/27 35/51/55 12/17/56
s 2
f 19/32/29 23/37/32 24/38/57 14/19/58
s 6
f 18/31/59 40/56/49 19/32/48 14/19/60 16/21/61
s 3
f 25/40/62 26/42/35 18/31/34 16/21/63
s 2
f 24/38/57 23/37/32 22/36/31 12/17/64
s 7
f 35/51/65 36/52/66 24/39/67 12/17/68
s 3
f 21/35/36 26/42/35 25/40/62 10/23/69
s off
f 24/39/70 36/52/71 25/41/72 28/44/73 27/43/74
f 25/41/75 16/25/76 29/45/77 28/44/78
f 16/25/79 14/26/80 30/46/81 39/55/82 29/45/83
f 14/26/84 24/39/85 27/43/86 30/46/87
f 27/43/88 28/44/89 32/48/90 37/53/91 31/47/92
f 28/44/93 29/45/94 33/49/95 32/48/96
s 8
f 38/54/97 39/55/98 30/46/99 34/50/100
s off
f 30/46/101 27/43/102 31/47/103 34/50/104
s 7
f 10/16/105 25/41/106 36/52/66 35/51/65
s 4
f 38/54/39 37/53/38 32/48/107 33/49/108
s 8
f 29/45/109 39/55/98 38/54/97 33/49/110
s 6
f 41/58/50 40/56/49 18/31/59 15/22/111
s 5
f 15/27/112 9/15/113 42/59/42 41/57/41
s 1
f 9/15/114 17/29/115 43/60/26 42/59/53
f 44/61/27 43/60/26 17/29/115 21/34/116
f 35/51/55 44/61/27 21/34/116 10/16/117
g default
v 0.994009 0.932451 0.422552
v 1.652260 0.932451 0.422552
v 0.994009 1.264706 0.422552
v 1.652260 1.264706 0.422552
v 0.994009 1.264706 0.194830
v 1.652260 1.264706 0.194830
v 0.994009 0.932451 0.194830
v 1.652260 0.932451 0.194830
v 0.994009 1.264706 0.281790
v 1.652260 1.264706 0.281790
v 1.652260 0.932451 0.281790
v 0.994009 0.932451 0.281790
v 0.994009 1.316303 0.422552
v 1.652260 1.316303 0.422552
v 1.652260 1.316303 0.281790
v 0.994009 1.316303 0.281790
v 0.994009 1.264706 0.281790
v 1.652260 1.264706 0.281790
v 0.994009 1.316303 0.281790
v 1.652260 1.316303 0.281790
vt 0.375000 0.000000
vt 0.625000 0.000000
vt 0.625000 0.250000
vt 0.375000 0.250000
vt 0.375000 0.404533
vt 0.625000 0.404533
vt 0.625000 0.500000
vt 0.375000 0.500000
vt 0.625000 0.750000
vt 0.375000 0.750000
vt 0.625000 0.845467
vt 0.375000 0.845467
vt 0.779533 0.250000
vt 0.779533 0.000000
vt 0.875000 0.000000
vt 0.875000 0.250000
vt 0.125000 0.000000
vt 0.220467 0.000000
vt 0.220467 0.250000
vt 0.125000 0.250000
vt 0.375000 0.250000
vt 0.625000 0.250000
vt 0.625000 0.404533
vt 0.375000 0.404533
vt 0.625000 1.000000
vt 0.375000 1.000000
vt 0.625000 0.404533
vt 0.375000 0.404533
vt 0.375000 0.404533
vt 0.625000 0.404533
vn 0.000000 0.000000 1.000000
vn 0.000000 0.000000 1.000000
vn 0.000000 0.000000 1.000000
vn 0.000000 0.000000 1.000000
vn 0.000000 1.000000 0.000000
vn 0.000000 1.000000 0.000000
vn 0.000000 1.000000 0.000000
vn 0.000000 1.000000 0.000000
vn 0.000000 0.000000 -1.000000
vn 0.000000 0.000000 -1.000000
vn 0.000000 0.000000 -1.000000
vn 0.000000 0.000000 -1.000000
vn 0.000000 -1.000000 0.000000
vn 0.000000 -1.000000 0.000000
vn 0.000000 -1.000000 0.000000
vn 0.000000 -1.000000 0.000000
vn 1.000000 0.000000 0.000000
vn 1.000000 0.000000 0.000000
vn 1.000000 0.000000 0.000000
vn 1.000000 0.000000 0.000000
vn -1.000000 0.000000 0.000000
vn -1.000000 0.000000 0.000000
vn -1.000000 0.000000 0.000000
vn -1.000000 0.000000 0.000000
vn 0.000000 1.000000 0.000000
vn 0.000000 1.000000 0.000000
vn 0.000000 1.000000 0.000000
vn 0.000000 1.000000 0.000000
vn 1.000000 0.000000 0.000000
vn 1.000000 0.000000 0.000000
vn 0.000000 -1.000000 0.000000
vn 0.000000 -1.000000 0.000000
vn -1.000000 0.000000 0.000000
vn -1.000000 0.000000 0.000000
vn 0.000000 0.000000 1.000000
vn 0.000000 0.000000 1.000000
vn 1.000000 0.000000 0.000000
vn 1.000000 0.000000 0.000000
vn 0.000000 0.000000 -1.000000
vn 0.000000 0.000000 -1.000000
vn 0.000000 0.000000 -1.000000
vn 0.000000 0.000000 -1.000000
vn -1.000000 0.000000 0.000000
vn -1.000000 0.000000 0.000000
vn 0.000000 0.000000 0.000000
vn 0.000000 0.000000 0.000000
vn 0.000000 0.000000 0.000000
vn 0.000000 0.000000 0.000000
vn 0.000000 0.000000 0.000000
vn 0.000000 0.000000 0.000000
vn 0.000000 0.000000 0.000000
vn 0.000000 0.000000 0.000000
vn 0.000000 0.000000 0.000000
vn 0.000000 0.000000 0.000000
vn 0.000000 0.000000 0.000000
vn 0.000000 0.000000 0.000000
vn 0.000000 0.000000 0.000000
vn 0.000000 0.000000 0.000000
vn 0.000000 0.000000 0.000000
vn 0.000000 0.000000 0.000000
s 1
g pCube33 polySurface8
usemtl initialShadingGroup
f 45/62/118 46/63/119 48/64/120 47/65/121
s off
f 53/66/122 54/67/123 50/68/124 49/69/125
f 49/69/126 50/68/127 52/70/128 51/71/129
s 2
f 51/71/130 52/70/131 55/72/132 56/73/133
s 3
f 54/74/134 55/75/135 52/76/136 50/77/137
s 4
f 51/78/138 56/79/139 53/80/140 49/81/141
s off
f 57/82/142 58/83/143 59/84/144 60/85/145
s 3
f 46/63/146 55/75/135 54/74/134 48/64/147
s 2
f 56/73/133 55/72/132 46/86/148 45/87/149
s 4
f 53/80/140 56/79/139 45/62/150 47/65/151
s 1
f 47/65/121 48/64/120 58/83/152 57/82/153
s 3
f 48/64/147 54/67/134 59/84/154 58/83/155
s off
f 62/88/156 61/89/157 63/90/158 64/91/159
s 4
f 53/66/140 47/65/151 57/82/160 60/85/161
s off
f 54/67/162 53/66/163 61/89/164 62/88/165
f 53/66/166 60/85/167 63/90/168 61/89/169
f 60/85/170 59/84/171 64/91/172 63/90/173
f 59/84/174 54/67/175 62/88/176 64/91/177
