# This file uses centimeters as units for non-parametric coordinates.

mtllib left.mtl
g default
v -0.890036 1.335660 0.299518
v -0.595861 1.335660 0.299518
v -0.890036 1.810853 0.299518
v -0.595861 1.810853 0.299518
v -0.890036 1.810853 -0.448119
v -0.595861 1.810853 -0.448119
v -0.890036 1.335660 -0.448119
v -0.595861 1.335660 -0.448119
vt 0.375000 0.000000
vt 0.625000 0.000000
vt 0.375000 0.250000
vt 0.625000 0.250000
vt 0.375000 0.500000
vt 0.625000 0.500000
vt 0.375000 0.750000
vt 0.625000 0.750000
vt 0.375000 1.000000
vt 0.625000 1.000000
vt 0.875000 0.000000
vt 0.875000 0.250000
vt 0.125000 0.000000
vt 0.125000 0.250000
vn 0.000000 0.000000 1.000000
vn 0.000000 0.000000 1.000000
vn 0.000000 0.000000 1.000000
vn 0.000000 0.000000 1.000000
vn 0.000000 1.000000 0.000000
vn 0.000000 1.000000 0.000000
vn 0.000000 1.000000 0.000000
vn 0.000000 1.000000 0.000000
vn 0.000000 0.000000 -1.000000
vn 0.000000 0.000000 -1.000000
vn 0.000000 0.000000 -1.000000
vn 0.000000 0.000000 -1.000000
vn 0.000000 -1.000000 0.000000
vn 0.000000 -1.000000 0.000000
vn 0.000000 -1.000000 0.000000
vn 0.000000 -1.000000 0.000000
vn 1.000000 0.000000 0.000000
vn 1.000000 0.000000 0.000000
vn 1.000000 0.000000 0.000000
vn 1.000000 0.000000 0.000000
vn -1.000000 0.000000 0.000000
vn -1.000000 0.000000 0.000000
vn -1.000000 0.000000 0.000000
vn -1.000000 0.000000 0.000000
s off
g pCube47
usemtl initialShadingGroup
f 1/1/1 2/2/2 4/4/3 3/3/4
f 3/3/5 4/4/6 6/6/7 5/5/8
f 5/5/9 6/6/10 8/8/11 7/7/12
f 7/7/13 8/8/14 2/10/15 1/9/16
f 2/2/17 8/11/18 6/12/19 4/4/20
f 7/13/21 1/1/22 3/3/23 5/14/24
g default
v -0.886763 0.634029 0.452859
v -0.593816 0.634029 0.452859
v -0.886763 1.334018 0.299556
v -0.593816 1.334018 0.299556
v -0.886763 1.334018 -0.452859
v -0.593816 1.334018 -0.452859
v -0.886763 0.634029 -0.452859
v -0.593816 0.634029 -0.452859
v -0.886763 1.201381 0.452859
v -0.593816 1.201381 0.452859
v -0.593816 1.201381 -0.452859
v -0.886763 1.201381 -0.452859
vt 0.375000 0.000000
vt 0.625000 0.000000
vt 0.375000 0.250000
vt 0.625000 0.250000
vt 0.375000 0.500000
vt 0.625000 0.500000
vt 0.375000 0.750000
vt 0.625000 0.750000
vt 0.375000 1.000000
vt 0.625000 1.000000
vt 0.875000 0.000000
vt 0.875000 0.250000
vt 0.125000 0.000000
vt 0.125000 0.250000
vt 0.375000 0.186057
vt 0.625000 0.186057
vt 0.625000 0.563943
vt 0.875000 0.186057
vt 0.125000 0.186057
vt 0.375000 0.563943
vn 0.000000 0.213938 0.976847
vn 0.000000 0.213938 0.976847
vn 0.000000 0.756239 0.654296
vn 0.000000 0.756239 0.654296
vn 0.000000 1.000000 0.000000
vn 0.000000 1.000000 0.000000
vn 0.000000 1.000000 0.000000
vn 0.000000 1.000000 0.000000
vn 0.000000 0.000000 -1.000000
vn 0.000000 0.000000 -1.000000
vn 0.000000 0.000000 -1.000000
vn 0.000000 0.000000 -1.000000
vn 0.000000 -1.000000 0.000000
vn 0.000000 -1.000000 0.000000
vn 0.000000 -1.000000 0.000000
vn 0.000000 -1.000000 0.000000
vn 1.000000 0.000000 0.000000
vn 1.000000 0.000000 0.000000
vn 1.000000 0.000000 0.000000
vn 1.000000 0.000000 0.000000
vn -1.000000 0.000000 0.000000
vn -1.000000 0.000000 0.000000
vn -1.000000 0.000000 0.000000
vn -1.000000 0.000000 0.000000
vn 0.000000 0.000000 1.000000
vn 0.000000 0.000000 1.000000
vn 1.000000 0.000000 0.000000
vn 1.000000 0.000000 0.000000
vn 0.000000 0.000000 -1.000000
vn 0.000000 0.000000 -1.000000
vn -1.000000 0.000000 0.000000
vn -1.000000 0.000000 0.000000
s 1
g pCube48
usemtl initialShadingGroup
f 17/29/25 18/30/26 12/18/27 11/17/28
s off
f 11/17/29 12/18/30 14/20/31 13/19/32
s 2
f 13/19/33 14/20/34 19/31/35 20/34/36
s off
f 15/21/37 16/22/38 10/24/39 9/23/40
s 3
f 18/30/41 19/32/42 14/26/43 12/18/44
s 4
f 20/33/45 17/29/46 11/17/47 13/28/48
s 1
f 9/15/49 10/16/50 18/30/26 17/29/25
s 3
f 10/16/51 16/25/52 19/32/42 18/30/41
s 2
f 20/34/36 19/31/35 16/22/53 15/21/54
s 4
f 15/27/55 9/15/56 17/29/46 20/33/45
