# This file uses centimeters as units for non-parametric coordinates.

mtllib Stanina.mtl
g default
v -0.886909 0.000000 0.418294
v -0.573333 0.000000 0.418294
v -0.886909 0.659987 0.418294
v -0.573333 0.659987 0.418294
v -0.886909 0.659987 -0.418294
v -0.573333 0.659987 -0.418294
v -0.886909 0.000000 -0.418294
v -0.573333 0.000000 -0.418294
vt 0.375000 0.000000
vt 0.625000 0.000000
vt 0.375000 0.250000
vt 0.625000 0.250000
vt 0.375000 0.500000
vt 0.625000 0.500000
vt 0.375000 0.750000
vt 0.625000 0.750000
vt 0.375000 1.000000
vt 0.625000 1.000000
vt 0.875000 0.000000
vt 0.875000 0.250000
vt 0.125000 0.000000
vt 0.125000 0.250000
vn 0.000000 0.000000 1.000000
vn 0.000000 0.000000 1.000000
vn 0.000000 0.000000 1.000000
vn 0.000000 0.000000 1.000000
vn 0.000000 1.000000 0.000000
vn 0.000000 1.000000 0.000000
vn 0.000000 1.000000 0.000000
vn 0.000000 1.000000 0.000000
vn 0.000000 0.000000 -1.000000
vn 0.000000 0.000000 -1.000000
vn 0.000000 0.000000 -1.000000
vn 0.000000 0.000000 -1.000000
vn 0.000000 -1.000000 0.000000
vn 0.000000 -1.000000 0.000000
vn 0.000000 -1.000000 0.000000
vn 0.000000 -1.000000 0.000000
vn 1.000000 0.000000 0.000000
vn 1.000000 0.000000 0.000000
vn 1.000000 0.000000 0.000000
vn 1.000000 0.000000 0.000000
vn -1.000000 0.000000 0.000000
vn -1.000000 0.000000 0.000000
vn -1.000000 0.000000 0.000000
vn -1.000000 0.000000 0.000000
s off
g pCube49
usemtl initialShadingGroup
f 1/1/1 2/2/2 4/4/3 3/3/4
f 3/3/5 4/4/6 6/6/7 5/5/8
f 5/5/9 6/6/10 8/8/11 7/7/12
f 7/7/13 8/8/14 2/10/15 1/9/16
f 2/2/17 8/11/18 6/12/19 4/4/20
f 7/13/21 1/1/22 3/3/23 5/14/24
g default
v -0.602904 0.639849 0.458259
v 3.674110 0.639849 0.458259
v -0.602904 0.815442 0.458259
v 3.674110 0.815442 0.458259
v -0.602904 0.815442 -0.458259
v 3.674110 0.815442 -0.458259
v -0.602904 0.639849 -0.458259
v 3.674110 0.639849 -0.458259
vt 0.375000 0.000000
vt 0.625000 0.000000
vt 0.375000 0.250000
vt 0.625000 0.250000
vt 0.375000 0.500000
vt 0.625000 0.500000
vt 0.375000 0.750000
vt 0.625000 0.750000
vt 0.375000 1.000000
vt 0.625000 1.000000
vt 0.875000 0.000000
vt 0.875000 0.250000
vt 0.125000 0.000000
vt 0.125000 0.250000
vn 0.000000 0.000000 1.000000
vn 0.000000 0.000000 1.000000
vn 0.000000 0.000000 1.000000
vn 0.000000 0.000000 1.000000
vn 0.000000 1.000000 0.000000
vn 0.000000 1.000000 0.000000
vn 0.000000 1.000000 0.000000
vn 0.000000 1.000000 0.000000
vn 0.000000 0.000000 -1.000000
vn 0.000000 0.000000 -1.000000
vn 0.000000 0.000000 -1.000000
vn 0.000000 0.000000 -1.000000
vn 0.000000 -1.000000 0.000000
vn 0.000000 -1.000000 0.000000
vn 0.000000 -1.000000 0.000000
vn 0.000000 -1.000000 0.000000
vn 1.000000 0.000000 0.000000
vn 1.000000 0.000000 0.000000
vn 1.000000 0.000000 0.000000
vn 1.000000 0.000000 0.000000
vn -1.000000 0.000000 0.000000
vn -1.000000 0.000000 0.000000
vn -1.000000 0.000000 0.000000
vn -1.000000 0.000000 0.000000
s off
g pCube3
usemtl initialShadingGroup
f 9/15/25 10/16/26 12/18/27 11/17/28
f 11/17/29 12/18/30 14/20/31 13/19/32
f 13/19/33 14/20/34 16/22/35 15/21/36
f 15/21/37 16/22/38 10/24/39 9/23/40
f 10/16/41 16/25/42 14/26/43 12/18/44
f 15/27/45 9/15/46 11/17/47 13/28/48
g default
v -0.593915 0.000000 0.418294
v 0.593915 0.000000 0.418294
v -0.593915 0.659987 0.418294
v 0.593915 0.659987 0.418294
v -0.593915 0.659987 -0.418294
v 0.593915 0.659987 -0.418294
v -0.593915 0.000000 -0.418294
v 0.593915 0.000000 -0.418294
vt 0.375000 0.000000
vt 0.625000 0.000000
vt 0.375000 0.250000
vt 0.625000 0.250000
vt 0.375000 0.500000
vt 0.625000 0.500000
vt 0.375000 0.750000
vt 0.625000 0.750000
vt 0.375000 1.000000
vt 0.625000 1.000000
vt 0.875000 0.000000
vt 0.875000 0.250000
vt 0.125000 0.000000
vt 0.125000 0.250000
vn 0.000000 0.000000 1.000000
vn 0.000000 0.000000 1.000000
vn 0.000000 0.000000 1.000000
vn 0.000000 0.000000 1.000000
vn 0.000000 1.000000 0.000000
vn 0.000000 1.000000 0.000000
vn 0.000000 1.000000 0.000000
vn 0.000000 1.000000 0.000000
vn 0.000000 0.000000 -1.000000
vn 0.000000 0.000000 -1.000000
vn 0.000000 0.000000 -1.000000
vn 0.000000 0.000000 -1.000000
vn 0.000000 -1.000000 0.000000
vn 0.000000 -1.000000 0.000000
vn 0.000000 -1.000000 0.000000
vn 0.000000 -1.000000 0.000000
vn 1.000000 0.000000 0.000000
vn 1.000000 0.000000 0.000000
vn 1.000000 0.000000 0.000000
vn 1.000000 0.000000 0.000000
vn -1.000000 0.000000 0.000000
vn -1.000000 0.000000 0.000000
vn -1.000000 0.000000 0.000000
vn -1.000000 0.000000 0.000000
s off
g pCube1
usemtl initialShadingGroup
f 17/29/49 18/30/50 20/32/51 19/31/52
f 19/31/53 20/32/54 22/34/55 21/33/56
f 21/33/57 22/34/58 24/36/59 23/35/60
f 23/35/61 24/36/62 18/38/63 17/37/64
f 18/30/65 24/39/66 22/40/67 20/32/68
f 23/41/69 17/29/70 19/31/71 21/42/72
g default
v 0.393574 0.665921 0.287096
v 3.075446 0.665921 0.287096
v 0.393574 0.665921 0.252417
v 3.075446 0.665921 0.252417
v 0.393574 0.022414 0.252417
v 3.075446 0.022414 0.252417
v 0.393574 0.022414 0.287096
v 3.075446 0.022414 0.287096
vt 0.375000 0.000000
vt 0.625000 0.000000
vt 0.375000 0.250000
vt 0.625000 0.250000
vt 0.375000 0.500000
vt 0.625000 0.500000
vt 0.375000 0.750000
vt 0.625000 0.750000
vt 0.375000 1.000000
vt 0.625000 1.000000
vt 0.875000 0.000000
vt 0.875000 0.250000
vt 0.125000 0.000000
vt 0.125000 0.250000
vn 0.000000 1.000000 -0.000000
vn 0.000000 1.000000 -0.000000
vn 0.000000 1.000000 -0.000000
vn 0.000000 1.000000 -0.000000
vn 0.000000 -0.000000 -1.000000
vn 0.000000 -0.000000 -1.000000
vn 0.000000 -0.000000 -1.000000
vn 0.000000 -0.000000 -1.000000
vn 0.000000 -1.000000 0.000000
vn 0.000000 -1.000000 0.000000
vn 0.000000 -1.000000 0.000000
vn 0.000000 -1.000000 0.000000
vn 0.000000 0.000000 1.000000
vn 0.000000 0.000000 1.000000
vn 0.000000 0.000000 1.000000
vn 0.000000 0.000000 1.000000
vn 1.000000 0.000000 0.000000
vn 1.000000 0.000000 0.000000
vn 1.000000 0.000000 0.000000
vn 1.000000 0.000000 0.000000
vn -1.000000 0.000000 -0.000000
vn -1.000000 0.000000 -0.000000
vn -1.000000 0.000000 -0.000000
vn -1.000000 0.000000 -0.000000
s off
g pCube6
usemtl initialShadingGroup
f 25/43/73 26/44/74 28/46/75 27/45/76
f 27/45/77 28/46/78 30/48/79 29/47/80
f 29/47/81 30/48/82 32/50/83 31/49/84
f 31/49/85 32/50/86 26/52/87 25/51/88
f 26/44/89 32/53/90 30/54/91 28/46/92
f 31/55/93 25/43/94 27/45/95 29/56/96
g default
v -0.394921 0.549263 0.435066
v -0.410827 0.538635 0.435066
v -0.421455 0.522729 0.435066
v -0.425188 0.503966 0.435066
v -0.376158 0.552996 0.435066
v -0.425188 0.503966 0.322952
v -0.421455 0.522729 0.322952
v -0.410827 0.538635 0.322952
v -0.394921 0.549263 0.322952
v -0.376158 0.552996 0.322952
v 0.298516 0.522729 0.435066
v 0.287888 0.538635 0.435066
v 0.271982 0.549263 0.435066
v 0.253219 0.552996 0.435066
v 0.302249 0.503966 0.435066
v 0.302249 0.503966 0.322952
v 0.253219 0.552996 0.322952
v 0.271982 0.549263 0.322952
v 0.287888 0.538635 0.322952
v 0.298516 0.522729 0.322952
v -0.421455 0.092914 0.435066
v -0.410827 0.077008 0.435066
v -0.394921 0.066379 0.435066
v -0.376158 0.062647 0.435066
v -0.425188 0.111677 0.435066
v -0.394921 0.066379 0.322952
v -0.410827 0.077008 0.322952
v -0.421455 0.092914 0.322952
v -0.425188 0.111677 0.322952
v -0.376158 0.062647 0.322952
v 0.271982 0.066379 0.435066
v 0.287888 0.077008 0.435066
v 0.298516 0.092914 0.435066
v 0.302249 0.111677 0.435066
v 0.253219 0.062647 0.435066
v 0.298516 0.092914 0.322952
v 0.287888 0.077008 0.322952
v 0.271982 0.066379 0.322952
v 0.253219 0.062647 0.322952
v 0.302249 0.111677 0.322952
vt 0.125000 0.225002
vt 0.875000 0.024997
vt 0.608150 1.000000
vt 0.375000 0.225002
vt 0.391850 0.500000
vt 0.608150 0.250000
vt 0.875000 0.225002
vt 0.391850 1.000000
vt 0.125000 0.024997
vt 0.625000 0.024997
vt 0.608150 0.750000
vt 0.625000 0.225002
vt 0.391850 0.250000
vt 0.375000 0.024997
vt 0.391850 0.000000
vt 0.608150 0.000000
vt 0.391850 0.750000
vt 0.375000 0.725003
vt 0.375000 0.524997
vt 0.608150 0.500000
vt 0.625000 0.524997
vt 0.625000 0.725003
vt 0.383994 0.250000
vt 0.375000 0.250000
vt 0.375000 0.238012
vt 0.125000 0.238012
vt -0.000000 -0.000000
vt 0.375000 0.500000
vt 0.125000 0.250000
vt 0.383994 0.500000
vt 0.625000 0.238012
vt 0.625000 0.250000
vt 0.616006 0.250000
vt 0.616006 0.500000
vt 0.875000 0.250000
vt 0.625000 0.500000
vt 0.875000 0.238012
vt -0.000000 -0.000000
vt 0.375000 0.011988
vt 0.375000 0.000000
vt 0.375000 1.000000
vt -0.000000 -0.000000
vt 0.383994 1.000000
vt 0.383994 0.750000
vt 0.125000 0.000000
vt 0.375000 0.750000
vt 0.125000 0.011988
vt -0.000000 -0.000000
vt -0.000000 -0.000000
vt 0.616006 1.000000
vt 0.625000 0.000000
vt 0.625000 1.000000
vt 0.625000 0.011988
vt 0.875000 0.011988
vt -0.000000 -0.000000
vt 0.625000 0.750000
vt 0.875000 0.000000
vt 0.616006 0.750000
vn -0.005758 0.999983 0.000000
vn -0.005758 0.999983 0.000000
vn 0.005758 0.999983 0.000000
vn 0.005758 0.999983 0.000000
vn -0.005758 -0.999983 0.000000
vn -0.005758 -0.999983 0.000000
vn 0.005758 -0.999983 0.000000
vn 0.005758 -0.999983 0.000000
vn 0.999959 -0.009079 0.000000
vn 0.999959 -0.009079 0.000000
vn 0.999959 0.009079 0.000000
vn 0.999959 0.009079 0.000000
vn -0.999959 -0.009079 0.000000
vn -0.999959 -0.009079 0.000000
vn -0.999959 0.009079 0.000000
vn -0.999959 0.009079 0.000000
vn -0.923879 0.382684 0.000000
vn -0.923879 0.382684 0.000000
vn -0.707107 0.707106 0.000000
vn -0.707107 0.707106 0.000000
vn -0.382684 0.923879 0.000000
vn -0.382684 0.923879 0.000000
vn 0.382684 0.923879 0.000000
vn 0.382684 0.923879 0.000000
vn 0.707107 0.707106 0.000000
vn 0.707107 0.707106 0.000000
vn 0.923879 0.382684 0.000000
vn 0.923879 0.382684 0.000000
vn -0.382683 -0.923880 0.000000
vn -0.382683 -0.923880 0.000000
vn -0.707107 -0.707107 0.000000
vn -0.707107 -0.707107 0.000000
vn -0.923879 -0.382684 0.000000
vn -0.923879 -0.382684 0.000000
vn 0.923879 -0.382684 0.000000
vn 0.923879 -0.382684 0.000000
vn 0.707107 -0.707107 0.000000
vn 0.707107 -0.707107 0.000000
vn 0.382683 -0.923880 0.000000
vn 0.382683 -0.923880 0.000000
vn 0.000000 0.000000 1.000000
vn 0.000000 0.000000 1.000000
vn 0.000000 0.000000 1.000000
vn 0.000000 0.000000 1.000000
vn 0.000000 0.000000 1.000000
vn 0.000000 0.000000 1.000000
vn 0.000000 0.000000 1.000000
vn 0.000000 0.000000 1.000000
vn 0.000000 0.000000 1.000000
vn 0.000000 0.000000 1.000000
vn 0.000000 0.000000 1.000000
vn 0.000000 0.000000 1.000000
vn 0.000000 0.000000 1.000000
vn 0.000000 0.000000 1.000000
vn 0.000000 0.000000 1.000000
vn 0.000000 0.000000 1.000000
vn 0.000000 0.000000 1.000000
vn 0.000000 0.000000 1.000000
vn 0.000000 0.000000 1.000000
vn 0.000000 0.000000 1.000000
vn 0.000000 0.000000 -1.000000
vn 0.000000 0.000000 -1.000000
vn 0.000000 0.000000 -1.000000
vn 0.000000 0.000000 -1.000000
vn 0.000000 0.000000 -1.000000
vn 0.000000 0.000000 -1.000000
vn 0.000000 0.000000 -1.000000
vn 0.000000 0.000000 -1.000000
vn 0.000000 0.000000 -1.000000
vn 0.000000 0.000000 -1.000000
vn 0.000000 0.000000 -1.000000
vn 0.000000 0.000000 -1.000000
vn 0.000000 0.000000 -1.000000
vn 0.000000 0.000000 -1.000000
vn 0.000000 0.000000 -1.000000
vn 0.000000 0.000000 -1.000000
vn 0.000000 0.000000 -1.000000
vn 0.000000 0.000000 -1.000000
vn 0.000000 0.000000 -1.000000
vn 0.000000 0.000000 -1.000000
s 1
g pCube53
usemtl initialShadingGroup
f 42/61/97 37/69/98 46/62/99 49/76/100
f 56/64/101 62/73/102 71/67/103 67/59/104
f 66/66/105 72/58/106 48/63/107 47/68/108
f 61/65/109 57/70/110 36/60/111 38/57/112
f 36/60/111 35/81/113 39/82/114 38/57/112
f 35/81/113 34/80/115 40/85/116 39/82/114
f 34/80/115 33/79/117 41/86/118 40/84/116
f 33/79/117 37/69/98 42/61/97 41/86/118
f 46/62/99 45/89/119 50/90/120 49/76/100
f 45/89/119 44/88/121 51/92/122 50/90/120
f 44/88/121 43/87/123 52/93/124 51/91/122
f 43/87/123 47/68/108 48/63/107 52/93/124
f 56/64/101 55/99/125 58/100/126 62/73/102
f 55/99/125 54/97/127 59/102/128 58/100/126
f 54/96/127 53/95/129 60/103/130 59/101/128
f 53/95/129 57/70/110 61/65/109 60/103/130
f 66/66/105 65/109/131 68/110/132 72/58/106
f 65/109/131 64/107/133 69/113/134 68/110/132
f 64/108/133 63/106/135 70/114/136 69/112/134
f 63/106/135 67/59/104 71/67/103 70/114/136
s off
f 63/105/137 64/107/138 65/109/139 66/66/140 47/68/141 43/87/142 44/88/143 45/89/144 46/62/145 37/69/146 33/79/147 34/80/148 35/81/149 36/60/150 57/70/151 53/95/152 54/96/153 55/98/154 56/71/155 67/72/156
f 68/111/157 69/112/158 70/114/159 71/67/160 62/73/161 58/100/162 59/102/163 60/104/164 61/74/165 38/75/166 39/83/167 40/84/168 41/86/169 42/61/170 49/76/171 50/90/172 51/92/173 52/94/174 48/77/175 72/78/176
g default
v 3.044781 0.000000 0.450431
v 3.674823 0.000000 0.450431
v 3.044781 0.659987 0.450431
v 3.674823 0.659987 0.450431
v 3.044781 0.659987 -0.450431
v 3.674823 0.659987 -0.450431
v 3.044781 0.000000 -0.450431
v 3.674823 0.000000 -0.450431
vt 0.375000 0.000000
vt 0.625000 0.000000
vt 0.375000 0.250000
vt 0.625000 0.250000
vt 0.375000 0.500000
vt 0.625000 0.500000
vt 0.375000 0.750000
vt 0.625000 0.750000
vt 0.375000 1.000000
vt 0.625000 1.000000
vt 0.875000 0.000000
vt 0.875000 0.250000
vt 0.125000 0.000000
vt 0.125000 0.250000
vn 0.000000 0.000000 1.000000
vn 0.000000 0.000000 1.000000
vn 0.000000 0.000000 1.000000
vn 0.000000 0.000000 1.000000
vn 0.000000 1.000000 0.000000
vn 0.000000 1.000000 0.000000
vn 0.000000 1.000000 0.000000
vn 0.000000 1.000000 0.000000
vn 0.000000 0.000000 -1.000000
vn 0.000000 0.000000 -1.000000
vn 0.000000 0.000000 -1.000000
vn 0.000000 0.000000 -1.000000
vn 0.000000 -1.000000 0.000000
vn 0.000000 -1.000000 0.000000
vn 0.000000 -1.000000 0.000000
vn 0.000000 -1.000000 0.000000
vn 1.000000 0.000000 0.000000
vn 1.000000 0.000000 0.000000
vn 1.000000 0.000000 0.000000
vn 1.000000 0.000000 0.000000
vn -1.000000 0.000000 0.000000
vn -1.000000 0.000000 0.000000
vn -1.000000 0.000000 0.000000
vn -1.000000 0.000000 0.000000
s off
g pCube2
usemtl initialShadingGroup
f 73/115/177 74/116/178 76/118/179 75/117/180
f 75/117/181 76/118/182 78/120/183 77/119/184
f 77/119/185 78/120/186 80/122/187 79/121/188
f 79/121/189 80/122/190 74/124/191 73/123/192
f 74/116/193 80/125/194 78/126/195 76/118/196
f 79/127/197 73/115/198 75/117/199 77/128/200
