# This file uses centimeters as units for non-parametric coordinates.

mtllib Support_dvignaya.mtl
g default
v 1.246291 1.474940 0.432186
v 1.246267 1.474940 0.432358
v 1.246291 1.474378 0.432358
v 1.308310 1.474378 0.432358
v 1.308334 1.474940 0.432358
v 1.308310 1.474940 0.432186
v 1.116540 1.453125 0.285562
v 1.116540 1.453125 0.391730
v 1.116540 1.474940 0.391730
v 1.116540 1.474940 0.285562
v 1.116540 1.506034 0.391730
v 1.116540 1.506034 0.285562
v 1.424351 1.474940 0.285562
v 1.424351 1.453125 0.285562
v 1.424351 1.506034 0.285562
v 1.116540 1.474940 0.395573
v 1.116540 1.453125 0.395573
v 1.159551 1.453125 0.427598
v 1.159551 1.474940 0.427598
v 1.424351 1.453125 0.391730
v 1.168062 1.453125 0.432358
v 1.168062 1.474940 0.432358
v 1.424351 1.506034 0.391730
v 1.250922 1.453125 0.428557
v 1.258136 1.453125 0.420367
v 1.258136 1.474940 0.413677
v 1.250922 1.474940 0.421866
v 1.267225 1.453125 0.415109
v 1.267225 1.474940 0.408419
v 1.277300 1.453125 0.413297
v 1.277300 1.474940 0.406607
v 1.424351 1.474940 0.391730
v 1.287376 1.453125 0.415109
v 1.287376 1.474940 0.408419
v 1.296465 1.453125 0.420367
v 1.296465 1.474940 0.413677
v 1.303679 1.453125 0.428557
v 1.303679 1.474940 0.421866
v 1.384681 1.453125 0.427598
v 1.384681 1.474940 0.427598
v 1.376170 1.474940 0.432358
v 1.376170 1.453125 0.432358
v 1.424351 1.453125 0.398915
v 1.424351 1.474940 0.398915
v 1.249216 1.453125 0.432358
v 1.305385 1.453125 0.432358
v 1.294599 1.474940 0.138260
v 1.294623 1.474940 0.138087
v 1.294599 1.474378 0.138087
v 1.232580 1.474378 0.138087
v 1.232556 1.474940 0.138087
v 1.232580 1.474940 0.138260
v 1.424350 1.453125 0.284883
v 1.424350 1.453125 0.178715
v 1.424350 1.474940 0.178715
v 1.424350 1.474940 0.284883
v 1.424350 1.506034 0.178715
v 1.424350 1.506034 0.284883
v 1.116540 1.474940 0.284883
v 1.116540 1.453125 0.284883
v 1.116540 1.506034 0.284883
v 1.424350 1.474940 0.174872
v 1.424350 1.453125 0.174872
v 1.381339 1.453125 0.142847
v 1.381339 1.474940 0.142847
v 1.116540 1.453125 0.178715
v 1.372828 1.453125 0.138087
v 1.372828 1.474940 0.138087
v 1.116540 1.506034 0.178715
v 1.289968 1.453125 0.141888
v 1.282755 1.453125 0.150078
v 1.282755 1.474940 0.156768
v 1.289968 1.474940 0.148579
v 1.273665 1.453125 0.155336
v 1.273665 1.474940 0.162027
v 1.263590 1.453125 0.157148
v 1.263590 1.474940 0.163838
v 1.116540 1.474940 0.178715
v 1.253514 1.453125 0.155336
v 1.253514 1.474940 0.162027
v 1.244425 1.453125 0.150078
v 1.244425 1.474940 0.156769
v 1.237212 1.453125 0.141888
v 1.237212 1.474940 0.148579
v 1.156209 1.453125 0.142847
v 1.156209 1.474940 0.142847
v 1.164720 1.474940 0.138087
v 1.164720 1.453125 0.138087
v 1.116540 1.453125 0.171530
v 1.116540 1.474940 0.171530
v 1.291674 1.453125 0.138087
v 1.235506 1.453125 0.138087
vt 0.475000 0.495547
vt 0.475188 0.495470
vt 0.475000 0.494662
vt 0.625000 0.494662
vt 0.624811 0.495470
vt 0.625000 0.495547
vt 0.125000 0.000000
vt 0.375000 0.000000
vt 0.375000 0.115773
vt 0.125000 0.115773
vt 0.375000 0.250000
vt 0.125000 0.250000
vt 0.375000 0.634227
vt 0.625000 0.634227
vt 0.625000 0.750000
vt 0.375000 0.750000
vt 0.375000 0.500000
vt 0.625000 0.500000
vt 0.375000 0.115773
vt 0.375000 0.000000
vt 0.525000 0.357512
vt 0.525000 0.444810
vt 0.516392 0.444810
vt 0.516392 0.357512
vt 0.625000 1.000000
vt 0.375000 1.000000
vt 0.526993 0.357512
vt 0.526993 0.444810
vt 0.625000 0.250000
vt 0.462500 0.465773
vt 0.450000 0.469385
vt 0.450000 0.503711
vt 0.462500 0.500099
vt 0.437500 0.471705
vt 0.437500 0.506030
vt 0.425000 0.472504
vt 0.425000 0.506829
vt 0.625000 0.115773
vt 0.412500 0.471705
vt 0.412500 0.506030
vt 0.400000 0.469385
vt 0.400000 0.503711
vt 0.625000 0.000000
vt 0.875000 0.000000
vt 0.875000 0.115773
vt 0.387500 0.465773
vt 0.387500 0.500099
vt 0.875000 0.250000
vt 0.575000 0.357512
vt 0.575000 0.444810
vt 0.573007 0.444810
vt 0.573007 0.357512
vt 0.582710 0.357512
vt 0.582710 0.444810
vt 0.625000 0.000000
vt 0.625000 0.115774
vt 0.408598 0.000000
vt 0.480943 0.000000
vt 0.478335 0.112789
vt 0.478314 0.115773
vt 0.408598 0.115773
vt 0.467104 0.464096
vt 0.382895 0.464096
vt 0.375000 0.494662
vt 0.375000 0.495547
vt 0.531014 0.000000
vt 0.594117 0.000000
vt 0.594117 0.115773
vt 0.533644 0.115773
vt 0.533622 0.112788
vt 0.601704 0.000000
vt 0.529265 0.000000
vt 0.522494 0.000000
vt 0.514442 0.000000
vt 0.505781 0.000000
vt 0.497158 0.000000
vt 0.489216 0.000000
vt 0.482616 0.000000
vt 0.401010 0.000000
vt 0.401010 0.115773
vt 0.478344 0.115774
vt 0.482891 0.115773
vt 0.489402 0.115773
vt 0.497223 0.115773
vt 0.505712 0.115773
vt 0.514238 0.115773
vt 0.522168 0.115773
vt 0.528851 0.115773
vt 0.533610 0.115773
vt 0.601704 0.115773
vt 0.475000 0.495547
vt 0.475188 0.495470
vt 0.475000 0.494662
vt 0.625000 0.494662
vt 0.624811 0.495470
vt 0.625000 0.495547
vt 0.125000 0.000000
vt 0.375000 0.000000
vt 0.375000 0.115773
vt 0.125000 0.115773
vt 0.375000 0.250000
vt 0.125000 0.250000
vt 0.375000 0.634227
vt 0.625000 0.634227
vt 0.625000 0.750000
vt 0.375000 0.750000
vt 0.375000 0.500000
vt 0.625000 0.500000
vt 0.375000 0.115773
vt 0.375000 0.000000
vt 0.525000 0.357512
vt 0.525000 0.444810
vt 0.516392 0.444810
vt 0.516392 0.357512
vt 0.625000 1.000000
vt 0.375000 1.000000
vt 0.526993 0.357512
vt 0.526993 0.444810
vt 0.625000 0.250000
vt 0.462500 0.465773
vt 0.450000 0.469385
vt 0.450000 0.503711
vt 0.462500 0.500099
vt 0.437500 0.471705
vt 0.437500 0.506030
vt 0.425000 0.472504
vt 0.425000 0.506829
vt 0.625000 0.115773
vt 0.412500 0.471705
vt 0.412500 0.506030
vt 0.400000 0.469385
vt 0.400000 0.503711
vt 0.625000 0.000000
vt 0.875000 0.000000
vt 0.875000 0.115773
vt 0.387500 0.465773
vt 0.387500 0.500099
vt 0.875000 0.250000
vt 0.575000 0.357512
vt 0.575000 0.444810
vt 0.573007 0.444810
vt 0.573007 0.357512
vt 0.582710 0.357512
vt 0.582710 0.444810
vt 0.625000 0.000000
vt 0.625000 0.115774
vt 0.408598 0.000000
vt 0.480943 0.000000
vt 0.478335 0.112789
vt 0.478314 0.115773
vt 0.408598 0.115773
vt 0.467104 0.464096
vt 0.382895 0.464096
vt 0.375000 0.494662
vt 0.375000 0.495547
vt 0.531014 0.000000
vt 0.594117 0.000000
vt 0.594117 0.115773
vt 0.533644 0.115773
vt 0.533622 0.112788
vt 0.601704 0.000000
vt 0.529265 0.000000
vt 0.522494 0.000000
vt 0.514442 0.000000
vt 0.505781 0.000000
vt 0.497158 0.000000
vt 0.489216 0.000000
vt 0.482616 0.000000
vt 0.401010 0.000000
vt 0.401010 0.115773
vt 0.478344 0.115774
vt 0.482891 0.115773
vt 0.489402 0.115773
vt 0.497223 0.115773
vt 0.505712 0.115773
vt 0.514238 0.115773
vt 0.522168 0.115773
vt 0.528851 0.115773
vt 0.533610 0.115773
vt 0.601704 0.115773
vn 0.905252 0.124588 0.406197
vn 0.989495 0.042454 0.138197
vn 0.905232 0.124601 0.406239
vn -0.905231 0.124601 0.406240
vn -0.989501 0.042441 0.138156
vn -0.905252 0.124588 0.406198
vn -1.000000 0.000000 0.000000
vn -1.000000 0.000000 0.000000
vn -1.000000 0.000000 0.000000
vn -1.000000 0.000000 0.000000
vn -1.000000 0.000000 0.000000
vn -1.000000 0.000000 0.000000
vn 0.000000 0.000000 -1.000000
vn 0.000000 0.000000 -1.000000
vn 0.000000 0.000000 -1.000000
vn 0.000000 0.000000 -1.000000
vn 0.000000 0.000000 -1.000000
vn 0.000000 0.000000 -1.000000
vn -1.000000 0.000000 0.000000
vn -1.000000 0.000000 0.000000
vn -0.581063 0.000000 0.813858
vn -0.581063 0.000000 0.813858
vn -0.597211 0.000000 0.802084
vn -0.597211 0.000000 0.802084
vn 0.000000 -1.000000 0.000000
vn 0.000000 -1.000000 0.000000
vn 0.000000 -1.000000 0.000000
vn 0.000000 -1.000000 0.000000
vn -0.053911 0.000000 0.998546
vn -0.053911 0.000000 0.998546
vn 0.000000 1.000000 0.000000
vn 0.000000 1.000000 0.000000
vn 0.000000 1.000000 0.000000
vn 0.000000 1.000000 0.000000
vn 0.828595 0.164163 0.535239
vn 0.633696 0.226833 0.739578
vn 0.603783 0.233744 0.762109
vn 0.801460 0.175362 0.571760
vn 0.342392 0.275500 0.898258
vn 0.322147 0.277591 0.905077
vn -0.000000 0.293222 0.956044
vn -0.000000 0.293222 0.956044
vn 0.000000 0.000000 1.000000
vn 0.000000 0.000000 1.000000
vn 0.000000 0.000000 1.000000
vn 0.000000 0.000000 1.000000
vn -0.342391 0.275500 0.898259
vn -0.322146 0.277592 0.905077
vn -0.633697 0.226831 0.739578
vn -0.603783 0.233742 0.762110
vn 1.000000 0.000000 0.000000
vn 1.000000 0.000000 0.000000
vn 1.000000 0.000000 0.000000
vn 1.000000 0.000000 0.000000
vn -0.828595 0.164162 0.535239
vn -0.801461 0.175362 0.571759
vn 1.000000 0.000000 0.000000
vn 1.000000 0.000000 0.000000
vn 0.570216 0.000000 0.821495
vn 0.570216 0.000000 0.821495
vn 0.061071 0.000000 0.998133
vn 0.061071 0.000000 0.998133
vn 0.585934 0.000000 0.810359
vn 0.585934 0.000000 0.810359
vn 1.000000 0.000000 0.000000
vn 1.000000 0.000000 0.000000
vn 0.000000 0.000000 1.000000
vn 0.000000 0.000000 1.000000
vn 0.000000 0.000000 1.000000
vn 0.905228 0.124604 0.406246
vn -0.905227 0.124604 0.406248
vn 0.000000 0.000000 1.000000
vn 0.000000 0.000000 1.000000
vn 0.000000 0.000000 1.000000
vn 0.000000 -1.000000 0.000001
vn 0.000000 -1.000000 0.000001
vn 0.000000 -1.000000 0.000001
vn 0.000000 -1.000000 0.000001
vn 0.000000 -1.000000 0.000001
vn 0.000000 -1.000000 0.000001
vn 0.000000 -1.000000 0.000001
vn 0.000000 -1.000000 0.000001
vn 0.000000 -1.000000 0.000001
vn 0.000000 -1.000000 0.000001
vn 0.000000 -1.000000 0.000001
vn 0.000000 -1.000000 0.000001
vn 0.000000 -1.000000 0.000001
vn 0.000000 -1.000000 0.000001
vn 0.000000 -1.000000 0.000001
vn 0.000000 1.000000 0.000002
vn 0.000000 1.000000 0.000002
vn 0.000000 1.000000 0.000002
vn 0.000000 1.000000 0.000002
vn 0.000000 1.000000 0.000002
vn 0.000000 1.000000 0.000002
vn 0.000000 1.000000 0.000002
vn 0.000000 1.000000 0.000002
vn 0.000000 1.000000 0.000002
vn 0.000000 1.000000 0.000002
vn 0.000000 1.000000 0.000002
vn 0.000000 1.000000 0.000002
vn 0.000000 1.000000 0.000002
vn 0.000000 1.000000 0.000002
vn 0.000000 1.000000 0.000002
vn 0.000000 1.000000 0.000002
vn 0.000000 1.000000 0.000002
vn 0.000000 1.000000 0.000002
vn 0.000000 1.000000 0.000002
vn -0.905253 0.124586 -0.406196
vn -0.989498 0.042447 -0.138176
vn -0.905233 0.124598 -0.406238
vn 0.905231 0.124606 -0.406239
vn 0.989507 0.042429 -0.138116
vn 0.905252 0.124593 -0.406197
vn 1.000000 0.000000 0.000000
vn 1.000000 0.000000 0.000000
vn 1.000000 0.000000 0.000000
vn 1.000000 0.000000 0.000000
vn 1.000000 0.000000 0.000000
vn 1.000000 0.000000 0.000000
vn 0.000000 0.000000 1.000000
vn 0.000000 0.000000 1.000000
vn 0.000000 0.000000 1.000000
vn 0.000000 0.000000 1.000000
vn 0.000000 0.000000 1.000000
vn 0.000000 0.000000 1.000000
vn 1.000000 0.000000 0.000000
vn 1.000000 0.000000 0.000000
vn 0.581063 0.000000 -0.813858
vn 0.581063 0.000000 -0.813858
vn 0.597211 0.000000 -0.802084
vn 0.597211 0.000000 -0.802084
vn 0.000000 -1.000000 0.000000
vn 0.000000 -1.000000 0.000000
vn 0.000000 -1.000000 -0.000000
vn 0.000000 -1.000000 -0.000000
vn 0.053911 0.000000 -0.998546
vn 0.053911 0.000000 -0.998546
vn 0.000000 1.000000 0.000000
vn 0.000000 1.000000 0.000000
vn 0.000000 1.000000 0.000000
vn 0.000000 1.000000 0.000000
vn -0.828595 0.164161 -0.535240
vn -0.633695 0.226833 -0.739579
vn -0.603782 0.233744 -0.762110
vn -0.801460 0.175362 -0.571761
vn -0.342392 0.275500 -0.898258
vn -0.322147 0.277591 -0.905077
vn 0.000000 0.293222 -0.956044
vn 0.000000 0.293222 -0.956044
vn 0.000000 0.000000 -1.000000
vn 0.000000 0.000000 -1.000000
vn 0.000000 0.000000 -1.000000
vn 0.000000 0.000000 -1.000000
vn 0.342391 0.275500 -0.898258
vn 0.322146 0.277592 -0.905077
vn 0.633696 0.226829 -0.739580
vn 0.603782 0.233740 -0.762111
vn -1.000000 0.000000 0.000000
vn -1.000000 0.000000 0.000000
vn -1.000000 0.000000 0.000000
vn -1.000000 0.000000 0.000000
vn 0.828595 0.164163 -0.535239
vn 0.801460 0.175362 -0.571760
vn -1.000000 0.000000 0.000000
vn -1.000000 0.000000 0.000000
vn -0.570216 0.000000 -0.821495
vn -0.570216 0.000000 -0.821495
vn -0.061071 0.000000 -0.998133
vn -0.061071 0.000000 -0.998133
vn -0.585934 0.000000 -0.810359
vn -0.585934 0.000000 -0.810359
vn -1.000000 0.000000 0.000000
vn -1.000000 0.000000 0.000000
vn 0.000000 0.000000 -1.000000
vn 0.000000 0.000000 -1.000000
vn 0.000000 0.000000 -1.000000
vn -0.905229 0.124601 -0.406245
vn 0.905227 0.124609 -0.406246
vn 0.000000 0.000000 -1.000000
vn 0.000000 0.000000 -1.000000
vn 0.000000 0.000000 -1.000000
vn 0.000000 -1.000000 -0.000001
vn 0.000000 -1.000000 -0.000001
vn 0.000000 -1.000000 -0.000001
vn 0.000000 -1.000000 -0.000001
vn 0.000000 -1.000000 -0.000001
vn 0.000000 -1.000000 -0.000001
vn 0.000000 -1.000000 -0.000001
vn 0.000000 -1.000000 -0.000001
vn 0.000000 -1.000000 -0.000001
vn 0.000000 -1.000000 -0.000001
vn 0.000000 -1.000000 -0.000001
vn 0.000000 -1.000000 -0.000001
vn 0.000000 -1.000000 -0.000001
vn 0.000000 -1.000000 -0.000001
vn 0.000000 -1.000000 -0.000001
vn 0.000000 1.000000 -0.000002
vn 0.000000 1.000000 -0.000002
vn 0.000000 1.000000 -0.000002
vn 0.000000 1.000000 -0.000002
vn 0.000000 1.000000 -0.000002
vn 0.000000 1.000000 -0.000002
vn 0.000000 1.000000 -0.000002
vn 0.000000 1.000000 -0.000002
vn 0.000000 1.000000 -0.000002
vn 0.000000 1.000000 -0.000002
vn 0.000000 1.000000 -0.000002
vn 0.000000 1.000000 -0.000002
vn 0.000000 1.000000 -0.000002
vn 0.000000 1.000000 -0.000002
vn 0.000000 1.000000 -0.000002
vn 0.000000 1.000000 -0.000002
vn 0.000000 1.000000 -0.000002
vn 0.000000 1.000000 -0.000002
vn 0.000000 1.000000 -0.000002
s 1
g pCylinder89
usemtl initialShadingGroup
f 1/1/1 2/2/2 3/3/3
f 4/4/4 5/5/5 6/6/6
s 3
f 7/7/7 8/8/8 9/9/9 10/10/10
f 10/10/10 9/9/9 11/11/11 12/12/12
s 4
f 10/13/13 13/14/14 14/15/15 7/16/16
f 12/17/17 15/18/18 13/14/14 10/13/13
s 3
f 16/19/19 9/9/9 8/8/8 17/20/20
s 5
f 18/21/21 19/22/22 16/23/23 17/24/24
s 6
f 7/16/25 14/15/26 20/25/27 8/26/28
s 5
f 19/22/22 18/21/21 21/27/29 22/28/30
s off
f 11/11/31 23/29/32 15/18/33 12/17/34
s 1
f 24/30/35 25/31/36 26/32/37 27/33/38
f 25/31/36 28/34/39 29/35/40 26/32/37
f 28/34/39 30/36/41 31/37/42 29/35/40
s off
f 9/9/43 32/38/44 23/29/45 11/11/46
s 1
f 30/36/41 33/39/47 34/40/48 31/37/42
f 33/39/47 35/41/49 36/42/50 34/40/48
s 8
f 20/43/51 14/44/52 13/45/53 32/38/54
s 1
f 35/41/49 37/46/55 38/47/56 36/42/50
s 8
f 32/38/54 13/45/53 15/48/57 23/29/58
s 9
f 39/49/59 40/50/60 41/51/61 42/52/62
f 40/50/60 39/49/59 43/53/63 44/54/64
s 8
f 43/55/65 20/43/51 32/38/54 44/56/66
s 5
f 21/57/29 45/58/67 3/59/68 2/60/69 22/61/30
s 1
f 3/3/3 45/62/70 24/30/35 27/33/38 1/1/1
f 37/46/55 46/63/71 4/64/4 6/65/6 38/47/56
s 9
f 46/66/72 42/67/62 41/68/61 5/69/73 4/70/74
s 6
f 8/8/28 20/43/27 43/55/75 39/71/76 42/67/77 46/66/78 37/72/79 35/73/80 33/74/81 30/75/82 28/76/83 25/77/84 24/78/85 45/58/86 21/57/87 18/79/88 17/20/89
s off
f 32/38/90 9/9/91 16/19/92 19/80/93 22/61/94 2/60/95 1/81/96 27/82/97 26/83/98 29/84/99 31/85/100 34/86/101 36/87/102 38/88/103 6/89/104 5/69/105 41/68/106 40/90/107 44/56/108
s 10
f 47/91/109 48/92/110 49/93/111
f 50/94/112 51/95/113 52/96/114
s 12
f 53/97/115 54/98/116 55/99/117 56/100/118
f 56/100/118 55/99/117 57/101/119 58/102/120
s 13
f 56/103/121 59/104/122 60/105/123 53/106/124
f 58/107/125 61/108/126 59/104/122 56/103/121
s 12
f 62/109/127 55/99/117 54/98/116 63/110/128
s 14
f 64/111/129 65/112/130 62/113/131 63/114/132
s 15
f 53/106/133 60/105/134 66/115/135 54/116/136
s 14
f 65/112/130 64/111/129 67/117/137 68/118/138
s off
f 57/101/139 69/119/140 61/108/141 58/107/142
s 10
f 70/120/143 71/121/144 72/122/145 73/123/146
f 71/121/144 74/124/147 75/125/148 72/122/145
f 74/124/147 76/126/149 77/127/150 75/125/148
s off
f 55/99/151 78/128/152 69/119/153 57/101/154
s 10
f 76/126/149 79/129/155 80/130/156 77/127/150
f 79/129/155 81/131/157 82/132/158 80/130/156
s 17
f 66/133/159 60/134/160 59/135/161 78/128/162
s 10
f 81/131/157 83/136/163 84/137/164 82/132/158
s 17
f 78/128/162 59/135/161 61/138/165 69/119/166
s 18
f 85/139/167 86/140/168 87/141/169 88/142/170
f 86/140/168 85/139/167 89/143/171 90/144/172
s 17
f 89/145/173 66/133/159 78/128/162 90/146/174
s 14
f 67/147/137 91/148/175 49/149/176 48/150/177 68/151/138
s 10
f 49/93/111 91/152/178 70/120/143 73/123/146 47/91/109
f 83/136/163 92/153/179 50/154/112 52/155/114 84/137/164
s 18
f 92/156/180 88/157/170 87/158/169 51/159/181 50/160/182
s 15
f 54/98/136 66/133/135 89/145/183 85/161/184 88/157/185 92/156/186 83/162/187 81/163/188 79/164/189 76/165/190 74/166/191 71/167/192 70/168/193 91/148/194 67/147/195 64/169/196 63/110/197
s off
f 78/128/198 55/99/199 62/109/200 65/170/201 68/151/202 48/150/203 47/171/204 73/172/205 72/173/206 75/174/207 77/175/208 80/176/209 82/177/210 84/178/211 52/179/212 51/159/213 87/158/214 86/180/215 90/146/216
