# This file uses centimeters as units for non-parametric coordinates.

mtllib Support_shtuka.mtl
g default
v 1.165567 1.360649 0.427845
v 1.376034 1.360649 0.427845
v 1.152455 1.396779 0.427845
v 1.389146 1.396779 0.427845
v 1.152455 1.396779 -0.323016
v 1.389146 1.396779 -0.323016
v 1.165567 1.360649 -0.323016
v 1.376034 1.360649 -0.323016
vt 0.375000 0.000000
vt 0.625000 0.000000
vt 0.625000 0.250000
vt 0.375000 0.250000
vt 0.625000 0.500000
vt 0.375000 0.500000
vt 0.625000 0.750000
vt 0.375000 0.750000
vt 0.625000 1.000000
vt 0.375000 1.000000
vt 0.875000 0.000000
vt 0.875000 0.250000
vt 0.125000 0.000000
vt 0.125000 0.250000
vn 0.000000 0.000000 1.000000
vn 0.000000 0.000000 1.000000
vn 0.000000 0.000000 1.000000
vn 0.000000 0.000000 1.000000
vn 0.000000 1.000000 0.000000
vn 0.000000 1.000000 0.000000
vn 0.000000 1.000000 0.000000
vn 0.000000 1.000000 0.000000
vn 0.000000 0.000000 -1.000000
vn 0.000000 0.000000 -1.000000
vn 0.000000 0.000000 -1.000000
vn 0.000000 0.000000 -1.000000
vn 0.000000 -1.000000 0.000000
vn 0.000000 -1.000000 0.000000
vn 0.000000 -1.000000 0.000000
vn 0.000000 -1.000000 0.000000
vn 0.940017 -0.341127 0.000000
vn 0.940017 -0.341127 0.000000
vn 0.940017 -0.341127 0.000000
vn 0.940017 -0.341127 0.000000
vn -0.940016 -0.341131 0.000000
vn -0.940016 -0.341131 0.000000
vn -0.940016 -0.341131 0.000000
vn -0.940016 -0.341131 0.000000
s off
g polySurface16 pCube33
usemtl initialShadingGroup
f 1/1/1 2/2/2 4/3/3 3/4/4
f 3/4/5 4/3/6 6/5/7 5/6/8
f 5/6/9 6/5/10 8/7/11 7/8/12
f 7/8/13 8/7/14 2/9/15 1/10/16
f 2/2/17 8/11/18 6/12/19 4/3/20
f 7/13/21 1/1/22 3/4/23 5/14/24
