# This file uses centimeters as units for non-parametric coordinates.

mtllib ProhodnoiOtognutiRezez.mtl
g default
v 1.084851 1.625512 0.245019
v 1.105190 1.625512 0.224680
v 1.084851 1.631632 0.245019
v 1.105190 1.631632 0.224680
v 1.064512 1.631632 0.224680
v 1.084851 1.631632 0.204341
v 1.064512 1.625512 0.224680
v 1.084851 1.625512 0.204341
vt 0.375000 0.000000
vt 0.625000 0.000000
vt 0.375000 0.250000
vt 0.625000 0.250000
vt 0.375000 0.500000
vt 0.625000 0.500000
vt 0.375000 0.750000
vt 0.625000 0.750000
vt 0.375000 1.000000
vt 0.625000 1.000000
vt 0.875000 0.000000
vt 0.875000 0.250000
vt 0.125000 0.000000
vt 0.125000 0.250000
vn 0.707107 0.000000 0.707107
vn 0.707107 0.000000 0.707107
vn 0.707107 0.000000 0.707107
vn 0.707107 0.000000 0.707107
vn 0.000000 1.000000 0.000000
vn 0.000000 1.000000 0.000000
vn 0.000000 1.000000 0.000000
vn 0.000000 1.000000 0.000000
vn -0.707107 0.000000 -0.707107
vn -0.707107 0.000000 -0.707107
vn -0.707107 0.000000 -0.707107
vn -0.707107 0.000000 -0.707107
vn -0.000000 -1.000000 0.000000
vn -0.000000 -1.000000 0.000000
vn -0.000000 -1.000000 0.000000
vn -0.000000 -1.000000 0.000000
vn 0.707107 -0.000000 -0.707107
vn 0.707107 -0.000000 -0.707107
vn 0.707107 -0.000000 -0.707107
vn 0.707107 -0.000000 -0.707107
vn -0.707107 0.000000 0.707107
vn -0.707107 0.000000 0.707107
vn -0.707107 0.000000 0.707107
vn -0.707107 0.000000 0.707107
s off
g pCube108
usemtl initialShadingGroup
f 1/1/1 2/2/2 4/4/3 3/3/4
f 3/3/5 4/4/6 6/6/7 5/5/8
f 5/5/9 6/6/10 8/8/11 7/7/12
f 7/7/13 8/8/14 2/10/15 1/9/16
f 2/2/17 8/11/18 6/12/19 4/4/20
f 7/13/21 1/1/22 3/3/23 5/14/24
g default
v 1.084329 1.598225 0.238407
v 1.091457 1.598225 0.422355
v 1.074703 1.624134 0.233808
v 1.091457 1.628572 0.422355
v 1.087775 1.624134 0.209971
v 1.118643 1.628572 0.422355
v 1.097400 1.598225 0.214570
v 1.118643 1.598225 0.422355
v 1.091457 1.598225 0.247562
v 1.118643 1.598225 0.247562
v 1.118643 1.628572 0.247562
v 1.091457 1.628572 0.247562
v 1.086304 1.598225 0.243332
v 1.118735 1.598225 0.236000
v 1.118735 1.628572 0.236895
v 1.086304 1.628572 0.244227
v 1.086285 1.598225 0.243285
v 1.118531 1.598225 0.235794
v 1.118438 1.624134 0.235750
v 1.086193 1.624134 0.243241
vt 0.407016 0.250000
vt 0.407016 0.000000
vt 0.625000 0.000000
vt 0.625000 0.250000
vt 0.407016 0.500000
vt 0.625000 0.500000
vt 0.407016 0.750000
vt 0.625000 0.750000
vt 0.407016 1.000000
vt 0.625000 1.000000
vt 0.875000 0.000000
vt 0.875000 0.250000
vt 0.125000 0.000000
vt 0.375000 0.000000
vt 0.375000 0.250000
vt 0.125000 0.250000
vt 0.397169 1.000000
vt 0.397169 0.750000
vt 0.397169 0.500000
vt 0.397169 0.250000
vt 0.397169 0.000000
vt 0.396956 1.000000
vt 0.396956 0.750000
vt 0.396956 0.500000
vt 0.396956 0.250000
vt 0.396956 0.000000
vt 0.375000 0.750000
vt 0.375000 1.000000
vt 0.375000 0.500000
vn -0.999584 -0.000425 0.028846
vn -0.999584 -0.000425 0.028846
vn -1.000000 0.000000 0.000000
vn -1.000000 0.000000 0.000000
vn 0.000000 1.000000 0.000000
vn 0.000000 1.000000 0.000001
vn 0.000000 1.000000 0.000000
vn 0.000000 1.000000 0.000000
vn 1.000000 -0.000007 0.000494
vn 1.000000 -0.000007 0.000494
vn 1.000000 0.000000 0.000000
vn 1.000000 0.000000 0.000000
vn 0.000000 -1.000000 -0.000001
vn 0.000000 -1.000000 -0.000000
vn 0.000000 -1.000000 0.000000
vn 0.000000 -1.000000 0.000000
vn 0.000000 0.000000 1.000000
vn 0.000000 0.000000 1.000000
vn 0.000000 0.000000 1.000000
vn 0.000000 0.000000 1.000000
vn -0.810967 -0.380212 -0.444715
vn -0.810967 -0.380212 -0.444715
vn -0.810967 -0.380212 -0.444715
vn -0.810967 -0.380212 -0.444715
vn 0.000000 -1.000000 -0.000023
vn 0.000000 -1.000000 -0.000014
vn 0.999916 0.000282 -0.012929
vn 0.999987 -0.000064 0.005143
vn -0.123126 0.834364 -0.537287
vn -0.157402 0.709542 -0.686858
vn -0.596573 -0.011850 0.802471
vn -0.630893 -0.011558 0.775784
vn 0.000000 -1.000000 0.000000
vn 0.000000 -1.000000 -0.000005
vn 0.677728 0.058588 -0.732975
vn 0.683141 0.057809 -0.727995
vn -0.216987 0.237359 -0.946878
vn -0.216987 0.237359 -0.946878
vn -0.762260 -0.069680 0.643510
vn -0.746910 -0.072078 0.661007
vn 0.000000 -1.000000 0.000004
vn 0.000000 -1.000000 0.000004
vn 0.670837 0.059566 -0.739208
vn 0.670838 0.059566 -0.739208
vn -0.726692 -0.075087 0.682848
vn -0.726692 -0.075087 0.682848
vn 0.000000 1.000000 0.000000
vn 0.000000 1.000000 0.000000
vn 0.000000 1.000000 0.000000
vn 0.000000 1.000000 0.000000
s 1
g polySurface92
usemtl initialShadingGroup
f 20/15/25 17/16/26 10/17/27 12/18/28
s 2
f 19/19/29 20/15/30 12/18/31 14/20/32
s 3
f 18/21/33 19/19/34 14/20/35 16/22/36
s 4
f 17/23/37 18/21/38 16/22/39 10/24/40
s off
f 10/17/41 16/25/42 14/26/43 12/18/44
f 15/27/45 9/28/46 11/29/47 13/30/48
s 4
f 21/31/49 22/32/50 18/21/38 17/23/37
s 3
f 22/32/51 23/33/52 19/19/34 18/21/33
s 2
f 23/33/53 24/34/54 20/15/30 19/19/29
s 1
f 24/34/55 21/35/56 17/16/26 20/15/25
s 4
f 25/36/57 26/37/58 22/32/50 21/31/49
s 3
f 26/37/59 27/38/60 23/33/52 22/32/51
s 2
f 27/38/61 28/39/62 24/34/54 23/33/53
s 1
f 28/39/63 25/40/64 21/35/56 24/34/55
s 4
f 15/41/65 26/37/58 25/36/57 9/42/66
s 3
f 13/43/67 27/38/60 26/37/59 15/41/68
s 1
f 9/28/69 25/40/64 28/39/63 11/29/70
s off
f 28/39/71 27/38/72 13/30/73 11/29/74
