# This file uses centimeters as units for non-parametric coordinates.

mtllib RezezNareznoiRezbaCenter.mtl
g default
v 0.002982 0.014380 0.124850
v 0.014908 0.014380 0.124850
v 0.013725 -0.014907 0.090270
v 0.014561 -0.014560 0.090270
v 0.014908 -0.013724 0.090270
v 0.013725 -0.014560 -0.089923
v 0.013725 -0.013724 -0.090270
v 0.014561 -0.013724 -0.089923
v 0.014908 -0.013724 -0.089087
v 0.014561 -0.014560 -0.089087
v 0.013725 -0.014907 -0.089087
v 0.014908 0.013725 0.090159
v 0.014561 0.014561 0.090237
v 0.013725 0.014908 0.090270
v 0.013725 0.014561 -0.089923
v 0.013725 0.014908 -0.089087
v 0.014561 0.014561 -0.089087
v 0.014908 0.013725 -0.089087
v 0.014561 0.013725 -0.089923
v 0.013725 0.013725 -0.090270
v -0.014055 0.014606 0.070164
v -0.013809 0.014908 0.069286
v -0.014512 0.014578 0.068917
v -0.014908 0.013722 0.069024
v -0.014751 0.013752 0.069879
v -0.014300 0.013781 0.070626
v -0.013725 0.014561 -0.089923
v -0.013725 0.013725 -0.090270
v -0.014561 0.013725 -0.089923
v -0.014908 0.013725 -0.089087
v -0.014561 0.014561 -0.089087
v -0.013725 0.014908 -0.089087
v -0.013947 -0.014532 0.075975
v -0.014179 -0.013634 0.076129
v -0.014716 -0.013658 0.075434
v -0.014908 -0.013684 0.074570
v -0.014525 -0.014555 0.074788
v -0.013727 -0.014907 0.075237
v -0.013725 -0.014560 -0.089923
v -0.013725 -0.014907 -0.089087
v -0.014561 -0.014560 -0.089087
v -0.014908 -0.013724 -0.089087
v -0.014561 -0.013724 -0.089923
v -0.013725 -0.013724 -0.090270
v 0.002982 0.014908 -0.089087
v 0.002982 0.014561 -0.089923
v 0.002982 0.013725 -0.090270
v 0.003315 -0.014539 0.091217
v 0.002982 -0.013694 0.091208
v 0.002787 -0.013697 0.090365
v 0.002242 -0.013693 0.089672
v 0.002416 -0.014545 0.089419
v 0.004117 -0.014907 0.089728
v 0.002982 -0.013724 -0.090270
v 0.002982 -0.014560 -0.089923
v 0.002982 -0.014907 -0.089087
v 0.003316 0.014286 0.091324
v 0.004120 0.014908 0.089844
v 0.002671 0.014559 0.089353
v 0.002384 0.013701 0.089583
v 0.002825 0.013630 0.090314
v 0.002982 0.013475 0.091173
v 0.004174 -0.014627 0.096971
v 0.003331 -0.014283 0.097030
v 0.002982 -0.013452 0.097171
v 0.002982 0.013040 0.100937
v 0.002982 0.014362 0.101957
v 0.004164 0.014206 0.101136
v 0.003328 0.013864 0.101078
v 0.013715 -0.014627 0.096971
v 0.014558 -0.014283 0.097030
v 0.014908 -0.013452 0.097171
v 0.013725 0.014206 0.101136
v 0.014908 0.014362 0.101957
v 0.014908 0.013040 0.100937
v 0.014561 0.013864 0.101078
v 0.003328 -0.014032 0.117082
v 0.004164 -0.014379 0.116987
v 0.002982 -0.013192 0.117311
v 0.014561 -0.014032 0.117082
v 0.014908 -0.013192 0.117311
v 0.013725 -0.014379 0.116987
v 0.002960 -0.014907 0.088788
v 0.003814 -0.014902 0.089873
v 0.004121 -0.014889 0.091220
v 0.004122 0.014622 0.091384
v 0.003893 0.014834 0.089982
v 0.003241 0.014908 0.088836
v 0.014407 -0.014407 -0.089769
v 0.014407 0.014408 -0.089769
v -0.014516 0.014444 0.069661
v -0.014407 0.014408 -0.089769
v -0.014494 -0.014380 0.075464
v -0.014407 -0.014407 -0.089769
v 0.003072 -0.014545 0.090233
v 0.003152 0.014481 0.090232
v 0.008922 0.014908 0.090057
v 0.008353 0.014908 -0.089087
v 0.008353 0.014561 -0.089923
v 0.008353 0.013725 -0.090270
v 0.008353 -0.013724 -0.090270
v 0.008353 -0.014560 -0.089923
v 0.008353 -0.014907 -0.089087
v 0.008921 -0.014907 0.089999
v 0.008904 0.014206 0.101136
v 0.008945 0.014380 0.134056
v 0.008945 -0.014379 0.126194
v 0.008945 -0.014627 0.096971
vt 0.623362 0.990082
vt 0.634918 0.009919
vt 0.375000 0.259918
vt 0.623362 0.240084
vt 0.634918 0.240084
vt 0.376378 0.509944
vt 0.865082 0.240084
vt 0.376476 0.739744
vt 0.623151 0.740081
vt 0.269955 0.239880
vt 0.275000 0.011660
vt 0.275000 0.239416
vt 0.275000 0.010320
vt 0.284919 0.000000
vt 0.623362 0.009919
vt 0.375153 0.240084
vt 0.377317 0.490793
vt 0.623151 0.509916
vt 0.377102 0.759897
vt 0.623219 0.759918
vt 0.623362 0.900000
vt 0.375751 0.909522
vt 0.725000 0.240084
vt 0.131046 0.010689
vt 0.268801 0.010178
vt 0.130096 0.240552
vt 0.623362 0.259918
vt 0.623362 0.350000
vt 0.375589 0.340455
vt 0.725000 0.009919
vt 0.375000 0.990082
vt 0.375000 0.011999
vt 0.375000 0.250000
vt 0.284300 0.000000
vt 0.365001 0.000000
vt 0.285000 0.000000
vt 0.375000 0.009920
vt 0.375000 0.238100
vt 0.365082 0.250000
vt 0.285167 0.250000
vt 0.275000 0.011999
vt 0.275000 0.238100
vt 0.275000 0.250000
vt 0.375000 0.250000
vt 0.275000 0.250000
vt 0.365082 0.000000
vt 0.365082 0.250000
vt 0.623151 0.490082
vt 0.865082 0.009919
vt 0.284918 0.250000
vt 0.365082 0.000000
vt 0.375000 0.010320
vt 0.375000 0.000000
vt 0.375000 1.000000
vt 0.631119 -0.000000
vt 0.625000 0.993881
vt 0.626869 0.009855
vt 0.622950 1.000000
vt 0.622950 -0.000000
vt 0.375000 0.250000
vt 0.625000 0.256119
vt 0.631119 0.250000
vt 0.623314 0.250001
vt 0.626869 0.240148
vt 0.375000 0.495871
vt 0.129129 0.250000
vt 0.377189 0.499379
vt 0.125000 0.243670
vt 0.375000 0.506330
vt 0.868965 0.250000
vt 0.625000 0.493965
vt 0.625000 0.506067
vt 0.875000 0.243933
vt 0.623093 0.499999
vt 0.129845 -0.000000
vt 0.375000 0.754845
vt 0.375000 0.743470
vt 0.125000 0.006530
vt 0.376968 0.750399
vt 0.625000 0.756034
vt 0.868966 -0.000000
vt 0.623135 0.749999
vt 0.875000 0.006067
vt 0.625000 0.743933
vt 0.725000 0.250000
vt 0.625000 0.350000
vt 0.276919 -0.000000
vt 0.375155 0.901965
vt 0.273138 0.011159
vt 0.375000 0.894341
vt 0.269341 -0.000000
vt 0.625000 0.900000
vt 0.725000 0.000000
vt 0.277688 0.245817
vt 0.270766 0.250000
vt 0.375000 0.354234
vt 0.273400 0.240276
vt 0.275000 0.000000
vt 0.275000 0.250000
vt 0.375000 0.000000
vt 0.375000 0.250000
vt 0.275000 0.000000
vt 0.375000 0.000000
vt 0.377408 0.899449
vt 0.375913 0.905279
vt 0.375620 0.907862
vt 0.282679 -0.000000
vt 0.375448 0.342748
vt 0.282725 0.250000
vt 0.375304 0.345076
vt 0.280245 0.250000
vt 0.377150 0.348582
vt 0.625000 0.000000
vt 0.625000 1.000000
vt 0.625000 0.250000
vt 0.375000 0.500000
vt 0.125000 0.250000
vt 0.875000 0.250000
vt 0.625000 0.500000
vt 0.125000 0.000000
vt 0.375000 0.750000
vt 0.625000 0.750000
vt 0.875000 0.000000
vt 0.275000 0.000000
vt 0.375000 0.900000
vt 0.375000 0.350000
vt 0.275000 0.250000
vt 0.375295 0.300186
vt 0.325125 0.250000
vt 0.623362 0.304959
vt 0.625000 0.303059
vt 0.678059 0.250000
vt 0.679959 0.240084
vt 0.679959 0.009919
vt 0.678059 0.000000
vt 0.625000 0.946941
vt 0.623362 0.945041
vt 0.375375 0.949802
vt 0.324691 0.000000
vt 0.324663 0.250000
vt 0.325000 0.250000
vt 0.325000 0.000000
vt 0.325000 0.000000
vn -0.014870 0.999869 -0.006387
vn -0.002192 0.999982 0.005559
vn -0.002721 0.999937 0.010925
vn -0.000086 0.999984 -0.005620
vn -0.015280 0.999867 -0.005618
vn 0.999925 -0.012281 0.000021
vn 0.923812 -0.382846 0.000495
vn 0.923903 -0.382625 -0.001001
vn 0.999923 -0.012226 -0.001898
vn 0.382549 -0.923934 0.001478
vn 0.056966 -0.998373 0.002565
vn 0.058300 -0.998297 -0.001892
vn 0.382569 -0.923926 -0.001001
vn 0.000000 -0.012249 -0.999925
vn 0.000000 -0.382818 -0.923824
vn 0.000000 -0.382820 -0.923823
vn 0.000000 -0.012249 -0.999925
vn 0.000000 -0.923889 -0.382661
vn -0.000000 -0.999998 -0.002033
vn 0.000000 -0.999998 -0.001942
vn 0.000000 -0.923888 -0.382663
vn 0.924274 -0.009192 -0.381620
vn 0.924274 0.009192 -0.381620
vn 0.999924 0.012221 -0.001898
vn 0.381952 -0.007097 -0.924155
vn 0.055306 -0.011777 -0.998400
vn 0.055306 0.011777 -0.998400
vn 0.381952 0.007097 -0.924155
vn 0.058260 0.998295 0.003505
vn 0.382716 0.923859 0.003656
vn 0.382580 0.923922 -0.001001
vn 0.058294 0.998298 -0.001892
vn 0.923857 0.382736 0.001124
vn 0.999919 0.012752 0.000055
vn 0.923894 0.382647 -0.001001
vn 0.000000 0.999998 -0.002032
vn 0.000000 0.923889 -0.382661
vn 0.000000 0.923887 -0.382665
vn 0.000000 0.999998 -0.001964
vn 0.000000 0.382818 -0.923824
vn 0.000000 0.012249 -0.999925
vn 0.000000 0.012249 -0.999925
vn 0.000000 0.382820 -0.923823
vn -0.671129 0.453249 0.586644
vn -0.704185 0.086161 0.704769
vn -0.704044 0.087225 0.704780
vn -0.675830 0.449794 0.583900
vn -0.999919 0.012685 0.001116
vn -0.915764 0.401716 0.000388
vn -0.915840 0.401542 -0.000985
vn -0.999915 0.012874 -0.002112
vn -0.402874 0.915255 0.000714
vn -0.017498 0.999844 0.002183
vn -0.017515 0.999845 -0.001949
vn -0.402225 0.915540 -0.001316
vn -0.915238 0.088117 0.393159
vn -0.922796 0.065515 0.379679
vn -0.702604 0.064855 0.708619
vn -0.999909 -0.013454 0.001031
vn -0.924263 0.009191 -0.381645
vn -0.924264 -0.009194 -0.381644
vn -0.999912 -0.013109 -0.002110
vn -0.381940 0.007099 -0.924160
vn -0.019589 0.012085 -0.999735
vn -0.019590 -0.012086 -0.999735
vn -0.381940 -0.007099 -0.924160
vn -0.607214 -0.309523 0.731770
vn -0.612306 -0.311993 0.726459
vn -0.702079 0.057933 0.709739
vn -0.018083 -0.999834 0.002369
vn -0.393373 -0.919378 0.001204
vn -0.392687 -0.919672 -0.001061
vn -0.018469 -0.999828 -0.001911
vn -0.919679 -0.392670 0.000573
vn -0.919682 -0.392662 -0.000912
vn -0.917808 -0.009994 0.396898
vn -0.895646 0.021003 0.444272
vn -0.999617 -0.012558 0.024654
vn -0.999307 0.018627 0.032221
vn -0.924480 0.378866 0.042401
vn -0.999998 0.002011 0.000091
vn -0.924177 0.381570 0.017332
vn -0.999940 -0.010916 0.000204
vn -0.923476 -0.383570 0.008138
vn -0.922726 -0.385427 0.004835
vn -0.999953 -0.009693 0.000122
vn -0.381395 -0.924236 0.018059
vn -0.047392 -0.998654 0.021060
vn -0.053757 -0.998501 0.010312
vn -0.380018 -0.924909 0.011412
vn -0.000350 0.999999 0.000975
vn -0.000517 1.000000 0.000443
vn 0.000017 -1.000000 0.000725
vn -0.000438 -1.000000 0.000499
vn -0.000633 0.999994 0.003490
vn 0.000069 -0.999996 0.002736
vn 0.000367 -0.999781 0.020935
vn 0.000000 -0.999949 0.010078
vn 0.999941 -0.010877 0.000202
vn 0.999998 0.002040 0.000130
vn 1.000000 0.000000 -0.000000
vn 1.000000 0.000000 -0.000000
vn 0.999953 -0.009692 0.000122
vn 0.050086 -0.998527 0.020853
vn -0.015341 -0.999063 0.040467
vn -1.000000 0.000000 -0.000000
vn -1.000000 0.000000 -0.000000
vn 0.014987 0.999867 -0.006395
vn 0.000552 0.999987 0.005013
vn -0.281441 0.783394 -0.554152
vn -0.749816 0.404054 -0.523943
vn -0.749816 0.404054 -0.523944
vn -0.749816 0.404054 -0.523944
vn 0.749844 0.404029 -0.523922
vn 0.749844 0.404029 -0.523922
vn 0.749844 0.404029 -0.523922
vn 0.281450 0.783397 -0.554144
vn 0.828639 -0.163418 0.535398
vn 0.828639 -0.163418 0.535398
vn 0.828640 -0.163418 0.535398
vn -0.000001 -0.291932 0.956439
vn 0.000001 -0.291932 0.956439
vn 0.828639 -0.163418 0.535398
vn 0.379793 -0.924900 0.017800
vn 0.922622 -0.385622 0.008049
vn 0.923773 0.382161 0.024440
vn 0.382457 0.922060 0.059426
vn -0.011507 0.381511 -0.924293
vn -0.014843 0.924469 -0.380968
vn -0.287897 -0.899351 0.329063
vn -0.273448 -0.902698 0.332209
vn -0.275828 -0.956282 0.097179
vn -0.014844 -0.924472 -0.380961
vn -0.011508 -0.381508 -0.924294
vn -0.383284 0.921616 0.060977
vn -0.383510 0.922641 0.040674
vn -0.056608 0.996431 0.062611
vn -0.305930 0.918253 0.251434
vn -0.294440 0.920384 0.257289
vn -0.326943 0.921640 0.209018
vn -0.925816 -0.375379 0.044216
vn -0.388336 -0.919784 0.056500
vn 0.380018 -0.924909 0.011412
vn 0.053757 -0.998501 0.010312
vn 0.922743 -0.385387 0.004835
vn 0.042294 -0.925003 -0.377598
vn 0.325295 -0.887910 -0.325266
vn 0.033416 -0.378869 -0.924847
vn 0.325295 -0.325358 -0.887877
vn 0.887901 -0.325341 -0.325247
vn 0.033416 0.378869 -0.924847
vn 0.325295 0.325358 -0.887877
vn 0.042294 0.925003 -0.377598
vn 0.325296 0.887910 -0.325267
vn 0.887900 0.325341 -0.325247
vn -0.852499 0.431384 0.295216
vn -0.481938 0.862038 0.156930
vn -0.325251 0.887922 -0.325279
vn -0.325251 0.325376 -0.887886
vn -0.887910 0.325331 -0.325232
vn -0.494809 -0.830048 0.257265
vn -0.864359 -0.301772 0.402264
vn -0.325229 -0.325354 -0.887903
vn -0.325215 -0.887966 -0.325196
vn -0.887926 -0.325332 -0.325188
vn -0.334356 -0.916610 0.219165
vn -0.856426 -0.348660 0.380750
vn -0.856043 0.368053 0.362944
vn -0.351774 0.905579 0.237028
vn 0.015400 0.999866 -0.005620
vn -0.828638 -0.163420 0.535400
vn -0.828638 -0.163420 0.535400
vn -0.828638 -0.163420 0.535400
vn -0.828638 -0.163420 0.535400
s 1
g pCube112
usemtl initialShadingGroup
f 74/44/1 73/47/2 105/140/3 106/141/4 2/33/5
s 2
f 5/37/6 4/53/7 10/59/8 9/15/9
s 3
f 4/54/10 3/31/11 11/1/12 10/58/13
s 4
f 101/134/14 102/135/15 55/93/16 54/30/17
s 3
f 102/136/18 103/137/19 56/21/20 55/92/21
s 2
f 9/15/9 8/57/22 19/64/23 18/4/24
s 4
f 8/57/25 7/2/26 20/5/27 19/64/28
s 1
f 14/3/29 13/60/30 17/63/31 16/27/32
s 2
f 13/60/33 12/16/34 18/4/24 17/63/35
s 1
f 98/130/36 99/131/37 46/86/38 45/28/39
s 4
f 99/132/40 100/133/41 47/23/42 46/85/43
s 11
f 21/66/44 26/26/45 60/10/46 59/95/47
f 24/6/48 23/67/49 31/74/50 30/18/51
s 1
f 23/67/52 22/17/53 32/48/54 31/74/55
s 11
f 26/26/45 25/68/56 35/78/57 34/24/58
f 25/69/56 24/6/48 36/8/59 35/77/57
f 30/18/51 29/72/60 43/84/61 42/9/62
s 4
f 29/73/63 28/7/64 44/49/65 43/83/66
s 11
f 34/24/58 33/75/67 52/91/68 51/25/69
s 3
f 38/19/70 37/79/71 41/82/72 40/20/73
s 11
f 37/79/74 36/8/59 42/9/62 41/82/75
f 51/25/69 50/89/76 61/97/77 60/10/46
f 50/89/76 49/11/78 62/12/79 61/97/77
f 57/94/80 62/12/79 66/42/81 69/99/82
f 65/41/83 64/98/84 77/102/85 79/13/86
s 3
f 64/98/87 63/36/88 78/14/89 77/102/90
s 2
f 5/37/6 9/15/9 18/4/24 12/16/34
s 1
f 58/29/91 45/28/39 32/48/54 22/17/53 88/112/92
s 11
f 24/6/48 30/18/51 42/9/62 36/8/59
s 3
f 38/19/70 40/20/73 56/21/20 53/22/93 83/104/94
s 4
f 47/23/42 54/30/17 44/49/65 28/7/64
s 11
f 34/24/58 51/25/69 60/10/46 26/26/45
s 1
f 97/128/95 98/130/36 45/28/39 58/29/91
s 4
f 100/133/41 101/134/14 54/30/17 47/23/42
s 3
f 53/22/93 56/21/20 103/137/19 104/138/96
f 63/36/88 108/143/97 107/142/98 78/14/89
s 2
f 72/32/99 75/38/100 74/44/101 2/33/102 81/52/103
s 3
f 53/34/93 104/139/96 3/46/11 70/35/104 108/143/97 63/36/88 85/107/105
s 2
f 5/37/6 12/16/34 75/38/100 72/32/99
s 1
f 14/39/29 97/129/95 105/140/3 73/47/2
s 11
f 62/12/79 49/11/78 65/41/83 66/42/81
f 67/43/106 66/42/81 65/41/83 79/13/86 1/45/107
s 1
f 67/43/108 68/50/109 69/99/110
s off
f 67/43/111 69/99/112 66/42/113
f 74/44/114 75/38/115 76/101/116
s 1
f 74/44/1 76/101/117 73/47/2
s 18
f 80/103/118 81/52/119 2/33/120 106/141/121 107/142/122 82/51/123
s 3
f 3/46/11 4/53/10 71/100/124 70/35/104
s 2
f 4/53/7 5/37/6 72/32/99 71/100/125
f 12/16/34 13/60/33 76/101/126 75/38/100
s 1
f 13/60/30 14/39/29 73/47/2 76/101/127
s 4
f 28/7/64 27/70/128 46/85/43 47/23/42
s 1
f 27/71/129 32/48/54 45/28/39 46/86/38
s 3
f 33/76/130 38/19/70 83/104/94 52/90/131
f 53/22/93 85/106/105 84/105/132 83/104/94
f 40/20/73 39/80/133 55/92/21 56/21/20
s 4
f 39/81/134 44/49/65 54/30/17 55/93/16
s 1
f 57/94/135 69/99/136 68/50/109 86/109/137
f 22/17/53 21/65/138 59/96/139 88/112/92
f 58/29/91 88/112/92 87/110/140 86/108/137
s 11
f 49/11/78 48/87/141 64/98/84 65/41/83
s 3
f 48/87/142 85/107/105 63/36/88 64/98/87
f 70/35/104 71/100/124 80/103/143 82/51/144
s 2
f 71/100/125 72/32/99 81/52/103 80/103/145
s 3
f 10/58/13 11/1/12 6/56/146 89/114/147
s 4
f 6/55/148 7/2/26 8/57/25 89/113/149
s 2
f 8/57/22 9/15/9 10/59/8 89/113/150
s 4
f 19/64/28 20/5/27 15/62/151 90/115/152
s 1
f 15/61/153 16/27/32 17/63/31 90/115/154
s 2
f 17/63/35 18/4/24 19/64/23 90/115/155
s 11
f 25/68/56 26/26/45 21/66/44 91/117/156
s 1
f 21/65/138 22/17/53 23/67/52 91/116/157
s 11
f 23/67/49 24/6/48 25/69/56 91/116/156
s 1
f 31/74/55 32/48/54 27/71/129 92/119/158
s 4
f 27/70/128 28/7/64 29/73/63 92/118/159
s 11
f 29/72/60 30/18/51 31/74/50 92/119/160
s 3
f 37/79/71 38/19/70 33/76/130 93/121/161
s 11
f 33/75/67 34/24/58 35/78/57 93/120/162
f 35/77/57 36/8/59 37/79/74 93/121/162
s 4
f 43/83/66 44/49/65 39/81/134 94/123/163
s 3
f 39/80/133 40/20/73 41/82/72 94/122/164
s 11
f 41/82/75 42/9/62 43/84/61 94/122/165
s 3
f 84/105/132 85/106/105 48/88/142 95/125/166
s 11
f 48/87/141 49/11/78 50/89/76 95/124/167
f 50/89/76 51/25/69 52/91/68 95/124/167
s 3
f 52/90/131 83/104/94 84/105/132 95/125/166
s 11
f 61/97/77 62/12/79 57/94/80 96/127/168
s 1
f 57/94/135 86/109/137 87/111/140 96/127/169
f 87/110/140 88/112/92 59/96/139 96/126/169
s 11
f 59/95/47 60/10/46 61/97/77 96/127/168
s 1
f 14/3/29 16/27/32 98/130/36 97/128/95
f 16/27/32 15/61/153 99/131/37 98/130/36
s 4
f 15/62/151 20/5/27 100/133/41 99/132/40
f 7/2/26 101/134/14 100/133/41 20/5/27
f 7/2/26 6/55/148 102/135/15 101/134/14
s 3
f 6/56/146 11/1/12 103/137/19 102/136/18
f 104/138/96 103/137/19 11/1/12 3/31/11
s 1
f 105/140/3 97/129/95 58/40/91 86/109/137 68/50/109
f 106/141/4 105/140/3 68/50/109 67/43/108 1/45/170
s 18
f 107/142/122 106/141/121 1/45/171 79/13/172 77/102/173 78/14/174
s 3
f 107/142/98 108/143/97 70/35/104 82/51/144
