# This file uses centimeters as units for non-parametric coordinates.

mtllib TeloPeredNiz.mtl
g default
v -0.592606 0.815442 0.452859
v -0.592606 1.334018 0.299556
v -0.592606 1.334018 -0.452859
v 0.517083 1.334018 -0.452859
v -0.592606 0.815442 -0.452859
v 0.517083 0.815442 -0.452859
v 0.517083 1.201381 -0.452859
v -0.592606 1.201381 -0.452859
v 0.517083 0.815442 0.439557
v 0.513187 0.815442 0.448963
v 0.503781 0.815442 0.452859
v 0.513187 1.199600 0.448963
v 0.517083 1.195300 0.439557
v 0.513187 1.334018 0.293601
v 0.517083 1.334018 0.279225
v 0.503781 1.334018 0.299556
v -0.592606 1.200866 0.451734
v -0.592606 1.205098 0.448563
v -0.592606 1.201381 0.447692
v -0.592606 1.195699 0.452859
v 0.503781 1.200866 0.451734
v 0.503781 1.195699 0.452859
v 0.508484 1.200490 0.450911
v 0.503781 1.205098 0.448563
vt 0.338664 0.247210
vt 0.666278 0.247210
vt 0.666595 0.249572
vt 0.612387 0.331486
vt 0.338664 0.331486
vt 0.338664 0.001992
vt 0.668158 0.001992
vt 0.668158 0.243600
vt 0.667749 0.246884
vt 0.613804 0.335253
vt 0.617226 0.335253
vt 0.617226 0.576608
vt 0.613804 0.579340
vt 0.941881 0.335253
vt 0.941881 0.580471
vt 0.675554 0.664747
vt 0.670324 0.664747
vt 0.941881 0.664747
vt 0.613950 0.582833
vt 0.613096 0.579905
vt 0.668158 0.664747
vt 0.001880 0.998008
vt 0.001880 0.668514
vt 0.331374 0.668514
vt 0.331374 0.993169
vt 0.330217 0.996591
vt 0.327424 0.998008
vt 0.335748 0.336410
vt 0.340978 0.335253
vt 0.607305 0.335253
vt 0.607305 0.664747
vt 0.333582 0.664747
vt 0.333582 0.339203
vt 0.279375 0.664747
vt 0.279375 0.339203
vt 0.001880 0.001992
vt 0.331374 0.001992
vt 0.331374 0.086268
vt 0.001880 0.086268
vt 0.331374 0.331486
vt 0.001880 0.331486
vt 0.338664 0.671307
vt 0.338664 0.668514
vt 0.582751 0.668514
vt 0.583317 0.669911
vt 0.580272 0.671307
vt 0.583556 0.671307
vt 0.338664 0.996851
vt 0.580272 0.996851
vt 0.586245 0.671307
vt 0.583556 0.996851
vt 0.586245 0.996851
vn 0.000000 0.000000 -1.000000
vn 0.000000 0.000000 -1.000000
vn 0.000000 0.000000 -1.000000
vn 0.000000 0.000000 -1.000000
vn -1.000000 0.000000 0.000000
vn -1.000000 -0.000000 0.000000
vn -1.000000 -0.000000 0.000000
vn -1.000000 0.000000 0.000000
vn -1.000000 0.000000 0.000000
vn 0.000000 0.000000 -1.000000
vn 0.000000 0.000000 -1.000000
vn -1.000000 0.000000 0.000000
vn -1.000000 0.000000 0.000000
vn -1.000000 0.000000 0.000000
vn 0.003554 0.000000 0.999994
vn 0.382685 0.000000 0.923879
vn 0.382685 0.000000 0.923879
vn 0.412439 0.301372 0.859691
vn 0.005920 0.002879 0.999978
vn 0.923884 0.000000 0.382674
vn 0.999991 0.000000 0.004310
vn 0.999980 0.001386 0.006210
vn 0.935801 0.145132 0.321267
vn 0.000000 0.752587 0.658493
vn 0.005866 0.752623 0.658425
vn 0.004410 0.756232 0.654289
vn 0.000000 0.756239 0.654295
vn 1.000000 0.000000 0.000000
vn 1.000000 0.000000 0.000000
vn 0.999994 0.002578 0.002230
vn 0.000000 0.000000 1.000000
vn 0.000000 0.002919 0.999996
vn 1.000000 0.000000 0.000000
vn 0.000000 -1.000000 0.000000
vn 0.000000 -1.000000 0.000000
vn 0.000000 -1.000000 0.000000
vn 0.000000 -1.000000 0.000000
vn 0.000000 -1.000000 0.000000
vn 0.000000 -1.000000 0.000000
vn 0.000000 1.000000 0.000000
vn 0.000000 1.000000 0.000000
vn 0.000000 1.000000 0.000000
vn 0.000000 1.000000 0.000000
vn 0.000000 1.000000 0.000000
vn 0.000000 1.000000 0.000000
vn 0.923882 0.289396 0.250383
vn 0.382690 0.698670 0.604490
vn 0.382690 0.698670 0.604490
vn 0.000000 0.415753 0.909478
vn 0.000403 0.415781 0.909465
vn -1.000000 -0.000003 0.000000
s 1
g pasted__pasted__pCube9 pasted__group group
usemtl initialShadingGroup
f 3/36/1 4/37/2 7/38/3 8/39/4
s 2
f 8/1/5 19/2/6 18/3/7 2/4/8 3/5/9
s 1
f 8/39/4 7/38/3 6/40/10 5/41/11
s 2
f 5/6/12 1/7/13 20/8/14 19/2/6 8/1/5
s 3
f 11/42/15 10/43/16 12/44/17 23/45/18 22/46/19
s 4
f 10/10/20 9/11/21 13/12/22 12/13/23
s 3
f 18/34/24 24/35/25 16/33/26 2/32/27
s 4
f 13/12/22 7/15/28 4/18/29 15/16/30
s 3
f 1/48/31 11/42/15 22/46/19 20/49/32
s 4
f 13/12/22 9/11/21 6/14/33 7/15/28
s off
f 1/22/34 5/23/35 6/24/36 9/25/37 10/26/38 11/27/39
f 14/28/40 15/29/41 4/30/42 3/31/43 2/32/44 16/33/45
s 4
f 12/13/23 13/12/22 15/16/30 14/17/46
s 3
f 24/19/25 23/20/18 12/13/47 14/17/48 16/21/26
f 18/52/24 17/51/49 21/47/50 24/50/25
f 17/51/49 20/49/32 22/46/19 21/47/50
s 2
f 19/2/6 20/8/14 17/9/51
f 19/2/6 17/9/51 18/3/7
s 3
f 23/45/18 24/50/25 21/47/50
f 23/45/18 21/47/50 22/46/19
