# This file uses centimeters as units for non-parametric coordinates.

mtllib Electro_melc.mtl
g default
v 0.034155 2.035601 -0.230978
v 0.008762 2.114062 -0.230978
v 0.031082 2.034475 -0.230978
v -0.000226 2.110769 -0.230978
v 0.030254 2.034171 -0.240292
v -0.002649 2.109881 -0.240292
v 0.034983 2.035904 -0.240292
v 0.011185 2.114949 -0.240292
v 0.000645 2.102679 -0.260443
v -0.004050 2.097623 -0.260443
v -0.006953 2.091362 -0.260443
v -0.007779 2.084512 -0.260443
v -0.006448 2.077741 -0.260443
v -0.003090 2.071713 -0.260443
v 0.001967 2.067017 -0.260443
v 0.008227 2.064115 -0.260443
v 0.015078 2.063288 -0.260443
v 0.021849 2.064619 -0.260443
v 0.027877 2.067978 -0.260443
v 0.032572 2.073034 -0.260443
v 0.035475 2.079294 -0.260443
v 0.036301 2.086145 -0.260443
v 0.034970 2.092916 -0.260443
v 0.031612 2.098944 -0.260443
v 0.026555 2.103639 -0.260443
v 0.020295 2.106542 -0.260443
v 0.013444 2.107369 -0.260443
v 0.006673 2.106038 -0.260443
v 0.003203 2.099420 -0.237445
v -0.000611 2.095313 -0.237445
v -0.002968 2.090229 -0.237445
v -0.003639 2.084665 -0.237445
v -0.002558 2.079166 -0.237445
v 0.000169 2.074270 -0.237445
v 0.004276 2.070457 -0.237445
v 0.009360 2.068099 -0.237445
v 0.014924 2.067428 -0.237445
v 0.020423 2.068509 -0.237445
v 0.025319 2.071237 -0.237445
v 0.029132 2.075344 -0.237445
v 0.031490 2.080428 -0.237445
v 0.032161 2.085992 -0.237445
v 0.031080 2.091491 -0.237445
v 0.028352 2.096387 -0.237445
v 0.024246 2.100200 -0.237445
v 0.019161 2.102557 -0.237445
v 0.013598 2.103229 -0.237445
v 0.008099 2.102147 -0.237445
v 0.014261 2.085328 -0.260443
v 0.014261 2.085328 -0.237445
vt 0.375000 0.000000
vt 0.625000 0.000000
vt 0.375000 0.250000
vt 0.625000 0.250000
vt 0.375000 0.500000
vt 0.625000 0.500000
vt 0.375000 0.750000
vt 0.625000 0.750000
vt 0.375000 1.000000
vt 0.625000 1.000000
vt 0.875000 0.000000
vt 0.875000 0.250000
vt 0.125000 0.000000
vt 0.125000 0.250000
vt 0.375000 0.312500
vt 0.387500 0.312500
vt 0.387500 0.688440
vt 0.375000 0.688440
vt 0.400000 0.312500
vt 0.400000 0.688440
vt 0.412500 0.312500
vt 0.412500 0.688440
vt 0.425000 0.312500
vt 0.425000 0.688440
vt 0.437500 0.312500
vt 0.437500 0.688440
vt 0.450000 0.312500
vt 0.450000 0.688440
vt 0.462500 0.312500
vt 0.462500 0.688440
vt 0.475000 0.312500
vt 0.475000 0.688440
vt 0.487500 0.312500
vt 0.487500 0.688440
vt 0.500000 0.312500
vt 0.500000 0.688440
vt 0.512500 0.312500
vt 0.512500 0.688440
vt 0.525000 0.312500
vt 0.525000 0.688440
vt 0.537500 0.312500
vt 0.537500 0.688440
vt 0.550000 0.312500
vt 0.550000 0.688440
vt 0.562500 0.312500
vt 0.562500 0.688440
vt 0.575000 0.312500
vt 0.575000 0.688440
vt 0.587500 0.312500
vt 0.587500 0.688440
vt 0.600000 0.312500
vt 0.600000 0.688440
vt 0.612500 0.312500
vt 0.612500 0.688440
vt 0.625000 0.312500
vt 0.625000 0.688440
vt 0.626409 0.064408
vt 0.648603 0.107966
vt 0.500000 0.150000
vt 0.591842 0.029841
vt 0.548284 0.007647
vt 0.500000 -0.000000
vt 0.451716 0.007647
vt 0.408159 0.029841
vt 0.373591 0.064409
vt 0.351397 0.107966
vt 0.343750 0.156250
vt 0.351397 0.204534
vt 0.373591 0.248091
vt 0.408159 0.282659
vt 0.451716 0.304853
vt 0.500000 0.312500
vt 0.548284 0.304853
vt 0.591841 0.282659
vt 0.626409 0.248091
vt 0.648603 0.204534
vt 0.656250 0.156250
vt 0.648603 0.892034
vt 0.626409 0.935591
vt 0.500000 0.837500
vt 0.591841 0.970159
vt 0.548284 0.992353
vt 0.500000 1.000000
vt 0.451716 0.992353
vt 0.408159 0.970159
vt 0.373591 0.935591
vt 0.351397 0.892034
vt 0.343750 0.843750
vt 0.351397 0.795466
vt 0.373591 0.751909
vt 0.408159 0.717341
vt 0.451716 0.695147
vt 0.500000 0.687500
vt 0.548284 0.695147
vt 0.591842 0.717341
vt 0.626409 0.751908
vt 0.648603 0.795466
vt 0.656250 0.843750
vn -0.000000 0.000000 1.000000
vn -0.000000 0.000000 1.000000
vn -0.000000 0.000000 1.000000
vn -0.000000 0.000000 1.000000
vn -0.905703 -0.382598 0.182542
vn -0.905703 -0.382598 0.182542
vn -0.905703 -0.382598 0.182542
vn -0.905703 -0.382598 0.182542
vn -0.000000 0.000000 -1.000000
vn -0.000000 0.000000 -1.000000
vn -0.000000 0.000000 -1.000000
vn -0.000000 0.000000 -1.000000
vn 0.938495 0.293103 0.182533
vn 0.938495 0.293103 0.182533
vn 0.938495 0.293103 0.182533
vn 0.938495 0.293103 0.182533
vn -0.344028 0.938959 0.000000
vn -0.344028 0.938960 0.000000
vn -0.344028 0.938960 0.000000
vn -0.344028 0.938959 0.000000
vn 0.344028 -0.938959 0.000000
vn 0.344028 -0.938960 0.000000
vn 0.344028 -0.938960 0.000000
vn 0.344028 -0.938959 0.000000
vn -0.607563 0.774232 0.177289
vn -0.817078 0.548591 0.177288
vn -0.817078 0.548591 0.177288
vn -0.607563 0.774232 0.177289
vn -0.946612 0.269247 0.177291
vn -0.946612 0.269247 0.177291
vn -0.983483 -0.036452 0.177292
vn -0.983483 -0.036452 0.177292
vn -0.924085 -0.338578 0.177293
vn -0.924085 -0.338578 0.177293
vn -0.774232 -0.607562 0.177296
vn -0.774232 -0.607562 0.177296
vn -0.548590 -0.817079 0.177292
vn -0.548590 -0.817078 0.177292
vn -0.269247 -0.946612 0.177292
vn -0.269247 -0.946612 0.177292
vn 0.036449 -0.983483 0.177293
vn 0.036449 -0.983483 0.177293
vn 0.338578 -0.924085 0.177289
vn 0.338578 -0.924085 0.177289
vn 0.607565 -0.774231 0.177290
vn 0.607565 -0.774231 0.177290
vn 0.817079 -0.548588 0.177293
vn 0.817079 -0.548588 0.177293
vn 0.946612 -0.269247 0.177292
vn 0.946612 -0.269247 0.177292
vn 0.983483 0.036448 0.177292
vn 0.983483 0.036448 0.177292
vn 0.924084 0.338578 0.177294
vn 0.924084 0.338578 0.177294
vn 0.774230 0.607565 0.177293
vn 0.774230 0.607565 0.177293
vn 0.548590 0.817078 0.177293
vn 0.548589 0.817078 0.177293
vn 0.269249 0.946611 0.177292
vn 0.269249 0.946611 0.177292
vn -0.036450 0.983483 0.177290
vn -0.036450 0.983483 0.177290
vn -0.338577 0.924086 0.177289
vn -0.338577 0.924086 0.177289
vn 0.000001 -0.000001 -1.000000
vn 0.000001 -0.000001 -1.000000
vn 0.000000 -0.000000 -1.000000
vn -0.000000 0.000000 -1.000000
vn -0.000000 0.000000 -1.000000
vn -0.000000 0.000000 -1.000000
vn 0.000001 -0.000001 -1.000000
vn 0.000001 -0.000001 -1.000000
vn -0.000000 0.000001 -1.000000
vn -0.000000 0.000001 -1.000000
vn -0.000000 0.000000 -1.000000
vn -0.000001 0.000001 -1.000000
vn -0.000001 0.000001 -1.000000
vn -0.000000 0.000000 -1.000000
vn -0.000000 0.000000 -1.000000
vn -0.000000 0.000000 -1.000000
vn -0.000001 0.000001 -1.000000
vn -0.000001 0.000001 -1.000000
vn 0.000000 -0.000001 -1.000000
vn 0.000000 -0.000001 -1.000000
vn -0.000000 0.000000 -1.000000
vn 0.000000 0.000000 1.000000
vn 0.000000 0.000000 1.000000
vn 0.000000 -0.000000 1.000000
vn 0.000000 0.000000 1.000000
vn -0.000001 0.000002 1.000000
vn 0.000000 -0.000000 1.000000
vn 0.000001 -0.000002 1.000000
vn 0.000000 0.000000 1.000000
vn 0.000000 0.000000 1.000000
vn 0.000000 0.000000 1.000000
vn 0.000000 0.000000 1.000000
vn 0.000000 0.000000 1.000000
vn 0.000000 -0.000001 1.000000
vn 0.000000 -0.000001 1.000000
vn 0.000001 -0.000002 1.000000
vn 0.000000 0.000000 1.000000
vn -0.000001 0.000002 1.000000
vn 0.000000 0.000000 1.000000
vn 0.000000 0.000000 1.000000
vn 0.000000 0.000000 1.000000
vn 0.000000 0.000000 1.000000
s off
g pCube59
usemtl initialShadingGroup
f 1/1/1 2/2/2 4/4/3 3/3/4
f 3/3/5 4/4/6 6/6/7 5/5/8
f 5/5/9 6/6/10 8/8/11 7/7/12
f 7/7/13 8/8/14 2/10/15 1/9/16
f 2/2/17 8/11/18 6/12/19 4/4/20
f 7/13/21 1/1/22 3/3/23 5/14/24
s 1
f 9/15/25 10/16/26 30/17/27 29/18/28
f 10/16/26 11/19/29 31/20/30 30/17/27
f 11/19/29 12/21/31 32/22/32 31/20/30
f 12/21/31 13/23/33 33/24/34 32/22/32
f 13/23/33 14/25/35 34/26/36 33/24/34
f 14/25/35 15/27/37 35/28/38 34/26/36
f 15/27/37 16/29/39 36/30/40 35/28/38
f 16/29/39 17/31/41 37/32/42 36/30/40
f 17/31/41 18/33/43 38/34/44 37/32/42
f 18/33/43 19/35/45 39/36/46 38/34/44
f 19/35/45 20/37/47 40/38/48 39/36/46
f 20/37/47 21/39/49 41/40/50 40/38/48
f 21/39/49 22/41/51 42/42/52 41/40/50
f 22/41/51 23/43/53 43/44/54 42/42/52
f 23/43/53 24/45/55 44/46/56 43/44/54
f 24/45/55 25/47/57 45/48/58 44/46/56
f 25/47/57 26/49/59 46/50/60 45/48/58
f 26/49/59 27/51/61 47/52/62 46/50/60
f 27/51/61 28/53/63 48/54/64 47/52/62
f 28/53/63 9/55/25 29/56/28 48/54/64
s 2
f 10/57/65 9/58/66 49/59/67
f 11/60/68 10/57/65 49/59/67
f 12/61/69 11/60/68 49/59/67
f 13/62/70 12/61/69 49/59/67
f 14/63/71 13/62/70 49/59/67
f 15/64/72 14/63/71 49/59/67
f 16/65/73 15/64/72 49/59/67
f 17/66/74 16/65/73 49/59/67
f 18/67/75 17/66/74 49/59/67
f 19/68/76 18/67/75 49/59/67
f 20/69/77 19/68/76 49/59/67
f 21/70/78 20/69/77 49/59/67
f 22/71/79 21/70/78 49/59/67
f 23/72/80 22/71/79 49/59/67
f 24/73/81 23/72/80 49/59/67
f 25/74/82 24/73/81 49/59/67
f 26/75/83 25/74/82 49/59/67
f 27/76/84 26/75/83 49/59/67
f 28/77/85 27/76/84 49/59/67
f 9/58/66 28/77/85 49/59/67
s 3
f 29/78/86 30/79/87 50/80/88
f 30/79/87 31/81/89 50/80/88
f 31/81/89 32/82/90 50/80/88
f 32/82/90 33/83/91 50/80/88
f 33/83/91 34/84/92 50/80/88
f 34/84/92 35/85/93 50/80/88
f 35/85/93 36/86/94 50/80/88
f 36/86/94 37/87/95 50/80/88
f 37/87/95 38/88/96 50/80/88
f 38/88/96 39/89/97 50/80/88
f 39/89/97 40/90/98 50/80/88
f 40/90/98 41/91/99 50/80/88
f 41/91/99 42/92/100 50/80/88
f 42/92/100 43/93/101 50/80/88
f 43/93/101 44/94/102 50/80/88
f 44/94/102 45/95/103 50/80/88
f 45/95/103 46/96/104 50/80/88
f 46/96/104 47/97/105 50/80/88
f 47/97/105 48/98/106 50/80/88
f 48/98/106 29/78/86 50/80/88
