# This file uses centimeters as units for non-parametric coordinates.

mtllib Electro_shtuka.mtl
g default
v -0.592924 2.231764 -0.453194
v -0.595611 2.225277 -0.453194
v -0.592924 2.225277 -0.446707
v -0.586437 2.225277 -0.444020
v -0.586437 2.231764 -0.446707
v -0.586437 2.234451 -0.453194
v 0.511141 2.231764 -0.453194
v 0.504655 2.234451 -0.453194
v 0.504655 2.231764 -0.446707
v 0.504655 2.225277 -0.444020
v 0.511141 2.225277 -0.446707
v 0.513828 2.225277 -0.453194
v -0.592924 2.225277 -0.624823
v -0.595611 2.225277 -0.618336
v -0.592924 2.231764 -0.618336
v -0.586437 2.234451 -0.618336
v -0.586437 2.231764 -0.624823
v -0.586437 2.225277 -0.627510
v 0.511141 2.225277 -0.624823
v 0.504655 2.225277 -0.627510
v 0.504655 2.231764 -0.624823
v 0.504655 2.234451 -0.618336
v 0.511141 2.231764 -0.618336
v 0.513828 2.225277 -0.618336
v -0.595611 -0.000000 -0.453194
v -0.586437 -0.000000 -0.444020
v -0.592924 -0.000000 -0.446707
v 0.513828 -0.000000 -0.453194
v 0.511141 -0.000000 -0.446707
v 0.504655 -0.000000 -0.444020
v -0.595611 -0.000000 -0.618336
v -0.592924 -0.000000 -0.624823
v -0.586437 -0.000000 -0.627510
v 0.513828 -0.000000 -0.618336
v 0.504655 -0.000000 -0.627510
v 0.511141 -0.000000 -0.624823
v -0.591732 2.230572 -0.447899
v 0.509949 2.230572 -0.447899
v -0.591732 2.230572 -0.623631
v 0.509949 2.230572 -0.623631
vt 0.362501 0.242479
vt 0.367398 0.250000
vt 0.132602 0.250000
vt 0.137499 0.242479
vt 0.375000 0.257602
vt 0.377067 0.262499
vt 0.377067 0.487501
vt 0.375000 0.492398
vt 0.377067 0.242479
vt 0.372711 0.242573
vt 0.375000 0.000000
vt 0.377067 0.000000
vt 0.362501 0.000000
vt 0.377075 0.250587
vt 0.622925 0.250587
vt 0.622933 0.262499
vt 0.622933 0.242479
vt 0.625000 0.257602
vt 0.625000 0.492398
vt 0.622933 0.487501
vt 0.632602 0.250000
vt 0.637499 0.242479
vt 0.862501 0.242479
vt 0.867398 0.250000
vt 0.627289 0.242573
vt 0.625000 0.000000
vt 0.637499 0.000000
vt 0.622933 0.000000
vt 0.125000 0.245303
vt 0.125000 0.000000
vt 0.137499 0.000000
vt 0.375000 0.504697
vt 0.377067 0.507521
vt 0.377067 0.750000
vt 0.375000 0.750000
vt 0.377075 0.499413
vt 0.622925 0.499413
vt 0.622933 0.507521
vt 0.625000 0.504697
vt 0.625000 0.750000
vt 0.622933 0.750000
vt 0.875000 0.245303
vt 0.862501 0.000000
vt 0.875000 0.000000
vt 0.625000 0.762499
vt 0.625000 0.987501
vt 0.625000 1.000000
vt 0.622933 1.000000
vt 0.377067 1.000000
vt 0.375000 1.000000
vt 0.375000 0.987501
vt 0.375000 0.762499
vt 0.375000 0.250000
vt 0.625000 0.250000
vt 0.375000 0.500000
vt 0.125000 0.250000
vt 0.875000 0.250000
vt 0.625000 0.500000
vn -0.999840 0.008795 0.015561
vn -0.924282 0.381588 0.009676
vn -0.924282 0.381588 -0.009676
vn -0.999840 0.008795 -0.015561
vn -0.381419 0.924335 0.011111
vn -0.002413 0.999875 0.015620
vn -0.002413 0.999875 -0.015620
vn -0.381419 0.924335 -0.011111
vn -0.002420 0.008862 0.999958
vn -0.381880 0.007098 0.924185
vn -0.382682 0.000000 0.923880
vn -0.002448 0.000000 0.999997
vn -0.924082 0.004637 0.382166
vn -0.999840 0.008795 0.015561
vn -0.999878 0.000000 0.015653
vn -0.923878 0.000000 0.382687
vn -0.002413 0.999875 0.015620
vn -0.000969 0.923924 0.382574
vn 0.000969 0.923924 0.382574
vn 0.002413 0.999875 0.015620
vn -0.001688 0.382489 0.923959
vn -0.002420 0.008862 0.999958
vn 0.002420 0.008862 0.999958
vn 0.001688 0.382489 0.923959
vn 0.002413 0.999875 0.015620
vn 0.381418 0.924336 0.011111
vn 0.381418 0.924336 -0.011111
vn 0.002413 0.999875 -0.015620
vn 0.924284 0.381584 0.009676
vn 0.999840 0.008795 0.015560
vn 0.999840 0.008795 -0.015560
vn 0.924284 0.381583 -0.009676
vn 0.999840 0.008795 0.015560
vn 0.924084 0.004636 0.382162
vn 0.923880 0.000000 0.382683
vn 0.999878 0.000000 0.015653
vn 0.381878 0.007098 0.924186
vn 0.002420 0.008862 0.999958
vn 0.002448 0.000000 0.999997
vn 0.382680 0.000000 0.923881
vn -0.999840 0.008795 -0.015561
vn -0.924082 0.004636 -0.382166
vn -0.923878 0.000000 -0.382687
vn -0.999878 0.000000 -0.015653
vn -0.381883 0.007098 -0.924183
vn -0.002420 0.008862 -0.999958
vn -0.002448 0.000000 -0.999997
vn -0.382684 0.000000 -0.923879
vn -0.002420 0.008862 -0.999958
vn -0.001688 0.382491 -0.923958
vn 0.001688 0.382491 -0.923958
vn 0.002420 0.008862 -0.999958
vn -0.000969 0.923924 -0.382574
vn -0.002413 0.999875 -0.015620
vn 0.002413 0.999875 -0.015620
vn 0.000969 0.923924 -0.382574
vn 0.002420 0.008862 -0.999958
vn 0.381881 0.007098 -0.924184
vn 0.382683 0.000000 -0.923880
vn 0.002448 0.000000 -0.999997
vn 0.924084 0.004636 -0.382161
vn 0.999840 0.008795 -0.015560
vn 0.999878 0.000000 -0.015653
vn 0.923880 0.000000 -0.382683
vn -0.002420 0.008862 0.999958
vn -0.002448 0.000000 0.999997
vn 0.002448 0.000000 0.999997
vn 0.002420 0.008862 0.999958
vn -0.002413 0.999875 0.015620
vn 0.002413 0.999875 0.015620
vn 0.002413 0.999875 -0.015620
vn -0.002413 0.999875 -0.015620
vn -0.002420 0.008862 -0.999958
vn 0.002420 0.008862 -0.999958
vn 0.002448 0.000000 -0.999997
vn -0.002448 0.000000 -0.999997
vn 0.999840 0.008795 0.015560
vn 0.999878 0.000000 0.015653
vn 0.999878 0.000000 -0.015653
vn 0.999840 0.008795 -0.015560
vn -0.999840 0.008795 -0.015561
vn -0.999878 0.000000 -0.015653
vn -0.999878 0.000000 0.015653
vn -0.999840 0.008795 0.015561
vn 0.000000 -1.000000 0.000000
vn 0.000000 -1.000000 0.000000
vn 0.000000 -1.000000 0.000000
vn 0.000000 -1.000000 0.000000
vn 0.000000 -1.000000 0.000000
vn 0.000000 -1.000000 0.000000
vn 0.000000 -1.000000 0.000000
vn 0.000000 -1.000000 0.000000
vn 0.000000 -1.000000 0.000000
vn 0.000000 -1.000000 0.000000
vn 0.000000 -1.000000 0.000000
vn 0.000000 -1.000000 0.000000
vn -0.000969 0.923924 0.382574
vn -0.002413 0.999875 0.015620
vn -0.381419 0.924335 0.011111
vn -0.325269 0.887919 0.325269
vn -0.924282 0.381588 0.009676
vn -0.999840 0.008795 0.015561
vn -0.924082 0.004637 0.382166
vn -0.887915 0.325276 0.325273
vn -0.381880 0.007098 0.924185
vn -0.002420 0.008862 0.999958
vn -0.001688 0.382489 0.923959
vn -0.325269 0.325264 0.887921
vn 0.924084 0.004636 0.382162
vn 0.999840 0.008795 0.015560
vn 0.924284 0.381584 0.009676
vn 0.887920 0.325263 0.325272
vn 0.381418 0.924336 0.011111
vn 0.002413 0.999875 0.015620
vn 0.000969 0.923924 0.382574
vn 0.325265 0.887922 0.325266
vn 0.001688 0.382489 0.923959
vn 0.002420 0.008862 0.999958
vn 0.381878 0.007098 0.924186
vn 0.325267 0.325265 0.887921
vn -0.001688 0.382491 -0.923958
vn -0.002420 0.008862 -0.999958
vn -0.381883 0.007098 -0.924183
vn -0.325273 0.325267 -0.887918
vn -0.924082 0.004636 -0.382166
vn -0.999840 0.008795 -0.015561
vn -0.924282 0.381588 -0.009676
vn -0.887916 0.325273 -0.325274
vn -0.381419 0.924335 -0.011111
vn -0.002413 0.999875 -0.015620
vn -0.000969 0.923924 -0.382574
vn -0.325269 0.887919 -0.325269
vn 0.924284 0.381583 -0.009676
vn 0.999840 0.008795 -0.015560
vn 0.924084 0.004636 -0.382161
vn 0.887921 0.325259 -0.325273
vn 0.381881 0.007098 -0.924184
vn 0.002420 0.008862 -0.999958
vn 0.001688 0.382491 -0.923958
vn 0.325270 0.325268 -0.887919
vn 0.000969 0.923924 -0.382574
vn 0.002413 0.999875 -0.015620
vn 0.381418 0.924336 -0.011111
vn 0.325265 0.887922 -0.325265
s off
g Electro_shtuka:pCube41
usemtl Electro_shtuka:initialShadingGroup
f 2/1/1 1/2/2 15/3/3 14/4/4
f 1/5/5 6/6/6 16/7/7 15/8/8
f 4/9/9 3/10/10 27/11/11 26/12/12
f 3/10/13 2/1/14 25/13/15 27/11/16
f 6/6/17 5/14/18 9/15/19 8/16/20
f 5/14/21 4/9/22 10/17/23 9/15/24
f 8/16/25 7/18/26 23/19/27 22/20/28
f 7/21/29 12/22/30 24/23/31 23/24/32
f 12/22/33 11/25/34 29/26/35 28/27/36
f 11/25/37 10/17/38 30/28/39 29/26/40
f 14/4/41 13/29/42 32/30/43 31/31/44
f 13/32/45 18/33/46 33/34/47 32/35/48
f 18/33/49 17/36/50 21/37/51 20/38/52
f 17/36/53 16/7/54 22/20/55 21/37/56
f 20/38/57 19/39/58 36/40/59 35/41/60
f 19/42/61 24/23/62 34/43/63 36/44/64
f 4/9/65 26/12/66 30/28/67 10/17/68
f 6/6/69 8/16/70 22/20/71 16/7/72
f 18/33/73 20/38/74 35/41/75 33/34/76
f 12/22/77 28/27/78 34/43/79 24/23/80
f 14/4/81 31/31/82 25/13/83 2/1/84
f 34/45/85 28/46/86 29/47/87 30/48/88 26/49/89 27/50/90 25/51/91 31/52/92 32/35/93 33/34/94 35/41/95 36/40/96
f 5/14/97 6/6/98 1/5/99 37/53/100
f 1/2/101 2/1/102 3/10/103 37/53/104
f 3/10/105 4/9/106 5/14/107 37/53/108
f 11/25/109 12/22/110 7/21/111 38/54/112
f 7/18/113 8/16/114 9/15/115 38/54/116
f 9/15/117 10/17/118 11/25/119 38/54/120
f 17/36/121 18/33/122 13/32/123 39/55/124
f 13/29/125 14/4/126 15/3/127 39/56/128
f 15/8/129 16/7/130 17/36/131 39/55/132
f 23/24/133 24/23/134 19/42/135 40/57/136
f 19/39/137 20/38/138 21/37/139 40/58/140
f 21/37/141 22/20/142 23/19/143 40/58/144
