# This file uses centimeters as units for non-parametric coordinates.

mtllib Gear4.mtl
g default
v -0.668340 1.164936 0.308934
v -0.668340 1.153690 0.308934
v -0.668340 1.148067 0.318673
v -0.668340 1.153690 0.328413
v -0.668340 1.164936 0.328413
v -0.668340 1.170559 0.318673
v -0.668340 1.159313 0.318673
v -0.676462 1.159313 0.318673
v -0.674838 1.164936 0.308934
v -0.676462 1.163998 0.310558
v -0.674838 1.153690 0.308934
v -0.676462 1.154628 0.310558
v -0.674838 1.148067 0.318673
v -0.676462 1.149943 0.318673
v -0.674838 1.153690 0.328413
v -0.676462 1.154628 0.326788
v -0.674838 1.164936 0.328413
v -0.676462 1.163998 0.326788
v -0.674838 1.170559 0.318673
v -0.676462 1.168684 0.318673
v -0.634091 1.166463 0.315046
v -0.634091 1.165244 0.312653
v -0.634091 1.163345 0.310754
v -0.634091 1.160951 0.309535
v -0.634091 1.158299 0.309115
v -0.634091 1.155646 0.309535
v -0.634091 1.153253 0.310754
v -0.634091 1.151354 0.312653
v -0.634091 1.150135 0.315046
v -0.634091 1.149715 0.317698
v -0.634091 1.150135 0.320351
v -0.634091 1.151354 0.322744
v -0.634091 1.153253 0.324643
v -0.634091 1.155646 0.325862
v -0.634091 1.158299 0.326282
v -0.634091 1.160951 0.325862
v -0.634091 1.163345 0.324643
v -0.634091 1.165244 0.322744
v -0.634091 1.166463 0.320351
v -0.634091 1.166883 0.317698
v -0.668340 1.166463 0.315046
v -0.668340 1.165244 0.312653
v -0.668340 1.163345 0.310754
v -0.668340 1.160951 0.309535
v -0.668340 1.158299 0.309115
v -0.668340 1.155646 0.309535
v -0.668340 1.153253 0.310754
v -0.668340 1.151354 0.312653
v -0.668340 1.150135 0.315046
v -0.668340 1.149715 0.317698
v -0.668340 1.150135 0.320351
v -0.668340 1.151354 0.322744
v -0.668340 1.153253 0.324643
v -0.668340 1.155646 0.325862
v -0.668340 1.158299 0.326282
v -0.668340 1.160951 0.325862
v -0.668340 1.163345 0.324643
v -0.668340 1.165244 0.322744
v -0.668340 1.166463 0.320351
v -0.668340 1.166883 0.317698
v -0.634091 1.158299 0.317698
v -0.668340 1.158299 0.317698
vt 0.578125 0.020934
vt 0.421875 0.020934
vt 0.343750 0.156250
vt 0.421875 0.291566
vt 0.578125 0.291566
vt 0.656250 0.156250
vt 0.500000 0.150000
vt 0.625000 0.613262
vt 0.621525 0.688440
vt 0.586808 0.688440
vt 0.378475 0.688440
vt 0.413192 0.688440
vt 0.420141 0.688440
vt 0.454859 0.688440
vt 0.461808 0.688440
vt 0.496525 0.688440
vt 0.503474 0.688440
vt 0.538192 0.688440
vt 0.545141 0.688440
vt 0.579859 0.688440
vt 0.375000 0.312500
vt 0.416667 0.312500
vt 0.375000 0.613262
vt 0.458333 0.312500
vt 0.416667 0.613262
vt 0.500000 0.312500
vt 0.458333 0.613262
vt 0.541667 0.312500
vt 0.500000 0.613262
vt 0.583333 0.312500
vt 0.541667 0.613262
vt 0.625000 0.312500
vt 0.583333 0.613262
vt 0.434903 0.955456
vt 0.369809 0.842707
vt 0.434903 0.729959
vt 0.565096 0.729959
vt 0.630190 0.842708
vt 0.565095 0.955456
vt 0.500000 0.837500
vt 0.375000 0.312500
vt 0.387500 0.312500
vt 0.387500 0.688440
vt 0.375000 0.688440
vt 0.400000 0.312500
vt 0.400000 0.688440
vt 0.412500 0.312500
vt 0.412500 0.688440
vt 0.425000 0.312500
vt 0.425000 0.688440
vt 0.437500 0.312500
vt 0.437500 0.688440
vt 0.450000 0.312500
vt 0.450000 0.688440
vt 0.462500 0.312500
vt 0.462500 0.688440
vt 0.475000 0.312500
vt 0.475000 0.688440
vt 0.487500 0.312500
vt 0.487500 0.688440
vt 0.500000 0.312500
vt 0.500000 0.688440
vt 0.512500 0.312500
vt 0.512500 0.688440
vt 0.525000 0.312500
vt 0.525000 0.688440
vt 0.537500 0.312500
vt 0.537500 0.688440
vt 0.550000 0.312500
vt 0.550000 0.688440
vt 0.562500 0.312500
vt 0.562500 0.688440
vt 0.575000 0.312500
vt 0.575000 0.688440
vt 0.587500 0.312500
vt 0.587500 0.688440
vt 0.600000 0.312500
vt 0.600000 0.688440
vt 0.612500 0.312500
vt 0.612500 0.688440
vt 0.625000 0.312500
vt 0.625000 0.688440
vt 0.626409 0.064408
vt 0.648603 0.107966
vt 0.500000 0.150000
vt 0.591842 0.029841
vt 0.548284 0.007647
vt 0.500000 -0.000000
vt 0.451716 0.007647
vt 0.408159 0.029841
vt 0.373591 0.064409
vt 0.351397 0.107966
vt 0.343750 0.156250
vt 0.351397 0.204534
vt 0.373591 0.248091
vt 0.408159 0.282659
vt 0.451716 0.304853
vt 0.500000 0.312500
vt 0.548284 0.304853
vt 0.591841 0.282659
vt 0.626409 0.248091
vt 0.648603 0.204534
vt 0.656250 0.156250
vt 0.648603 0.892034
vt 0.626409 0.935591
vt 0.500000 0.837500
vt 0.591841 0.970159
vt 0.548284 0.992353
vt 0.500000 1.000000
vt 0.451716 0.992353
vt 0.408159 0.970159
vt 0.373591 0.935591
vt 0.351397 0.892034
vt 0.343750 0.843750
vt 0.351397 0.795466
vt 0.373591 0.751909
vt 0.408159 0.717341
vt 0.451716 0.695147
vt 0.500000 0.687500
vt 0.548284 0.695147
vt 0.591842 0.717341
vt 0.626409 0.751908
vt 0.648603 0.795466
vt 0.656250 0.843750
vn 1.000000 0.000000 0.000000
vn 1.000000 0.000000 0.000000
vn 1.000000 0.000000 0.000000
vn 1.000000 0.000000 0.000000
vn 1.000000 0.000000 0.000000
vn 1.000000 0.000000 0.000000
vn 1.000000 0.000000 0.000000
vn -0.707137 0.612344 -0.353541
vn -0.707137 0.612344 -0.353541
vn -0.707137 0.612344 -0.353541
vn -0.707137 0.612344 -0.353541
vn -0.707144 0.000000 -0.707070
vn -0.707144 0.000000 -0.707070
vn -0.707144 0.000000 -0.707070
vn -0.707144 0.000000 -0.707070
vn -0.707127 -0.612360 -0.353534
vn -0.707127 -0.612360 -0.353534
vn -0.707127 -0.612360 -0.353534
vn -0.707127 -0.612360 -0.353534
vn -0.707136 -0.612348 0.353538
vn -0.707136 -0.612348 0.353538
vn -0.707136 -0.612348 0.353538
vn -0.707136 -0.612348 0.353538
vn -0.707139 0.000000 0.707075
vn -0.707139 0.000000 0.707075
vn -0.707139 0.000000 0.707075
vn -0.707139 0.000000 0.707075
vn -0.707132 0.612349 0.353544
vn -0.707132 0.612349 0.353544
vn -0.707132 0.612349 0.353544
vn -0.707132 0.612349 0.353544
vn 0.000000 0.000000 -1.000000
vn 0.000000 0.000000 -1.000000
vn 0.000000 0.000000 -1.000000
vn 0.000000 0.000000 -1.000000
vn 0.000000 -0.866030 -0.499993
vn 0.000000 -0.866030 -0.499993
vn 0.000000 -0.866030 -0.499993
vn 0.000000 -0.866030 -0.499993
vn 0.000000 -0.866030 0.499993
vn 0.000000 -0.866030 0.499993
vn 0.000000 -0.866030 0.499993
vn 0.000000 -0.866030 0.499993
vn 0.000000 0.000000 1.000000
vn 0.000000 0.000000 1.000000
vn 0.000000 0.000000 1.000000
vn 0.000000 0.000000 1.000000
vn 0.000000 0.866030 0.499993
vn 0.000000 0.866030 0.499993
vn 0.000000 0.866030 0.499993
vn 0.000000 0.866030 0.499993
vn 0.000000 0.866030 -0.499993
vn 0.000000 0.866030 -0.499993
vn 0.000000 0.866030 -0.499993
vn 0.000000 0.866030 -0.499993
vn -1.000000 0.000000 0.000000
vn -1.000000 0.000000 0.000000
vn -1.000000 0.000000 0.000000
vn -1.000000 0.000000 0.000000
vn -1.000000 0.000000 0.000000
vn -1.000000 0.000000 0.000000
vn -1.000000 0.000000 0.000000
vn 0.000000 0.951060 -0.309007
vn 0.000000 0.809016 -0.587787
vn 0.000000 0.809016 -0.587787
vn 0.000000 0.951060 -0.309007
vn 0.000000 0.587774 -0.809025
vn 0.000000 0.587774 -0.809025
vn 0.000000 0.309012 -0.951058
vn 0.000000 0.309012 -0.951058
vn 0.000000 0.000000 -1.000000
vn 0.000000 0.000000 -1.000000
vn 0.000000 -0.309012 -0.951058
vn 0.000000 -0.309012 -0.951058
vn 0.000000 -0.587784 -0.809018
vn 0.000000 -0.587784 -0.809018
vn 0.000000 -0.809016 -0.587787
vn 0.000000 -0.809016 -0.587787
vn 0.000000 -0.951054 -0.309026
vn 0.000000 -0.951054 -0.309026
vn 0.000000 -1.000000 0.000000
vn 0.000000 -1.000000 0.000000
vn 0.000000 -0.951054 0.309026
vn 0.000000 -0.951054 0.309026
vn 0.000000 -0.809016 0.587787
vn 0.000000 -0.809016 0.587787
vn 0.000000 -0.587784 0.809018
vn 0.000000 -0.587784 0.809018
vn 0.000000 -0.309012 0.951058
vn 0.000000 -0.309012 0.951058
vn 0.000000 0.000000 1.000000
vn 0.000000 0.000000 1.000000
vn 0.000000 0.309012 0.951058
vn 0.000000 0.309012 0.951058
vn 0.000000 0.587774 0.809025
vn 0.000000 0.587774 0.809025
vn 0.000000 0.809016 0.587787
vn 0.000000 0.809016 0.587787
vn 0.000000 0.951060 0.309007
vn 0.000000 0.951060 0.309007
vn 0.000000 1.000000 0.000000
vn 0.000000 1.000000 0.000000
vn 1.000000 0.000000 0.000000
vn 1.000000 0.000000 0.000000
vn 1.000000 -0.000000 0.000000
vn 1.000000 -0.000020 0.000000
vn 1.000000 -0.000020 0.000000
vn 1.000000 0.000000 0.000000
vn 1.000000 0.000020 0.000000
vn 1.000000 0.000020 0.000000
vn 1.000000 0.000000 0.000000
vn 1.000000 0.000000 0.000000
vn 1.000000 0.000000 0.000000
vn 1.000000 0.000000 0.000000
vn 1.000000 0.000000 0.000000
vn 1.000000 0.000020 0.000000
vn 1.000000 0.000020 0.000000
vn 1.000000 0.000000 0.000000
vn 1.000000 -0.000020 0.000000
vn 1.000000 -0.000020 0.000000
vn 1.000000 0.000000 0.000000
vn 1.000000 0.000000 0.000000
vn 1.000000 0.000000 0.000000
vn -1.000000 -0.000005 0.000000
vn -1.000000 -0.000005 0.000000
vn -1.000000 0.000000 0.000000
vn -1.000000 0.000000 0.000000
vn -1.000000 0.000000 0.000000
vn -1.000000 0.000000 0.000000
vn -1.000000 0.000000 0.000000
vn -1.000000 0.000000 0.000000
vn -1.000000 0.000000 0.000000
vn -1.000000 0.000000 0.000000
vn -1.000000 0.000000 0.000000
vn -1.000000 0.000005 0.000000
vn -1.000000 0.000005 0.000000
vn -1.000000 0.000000 0.000000
vn -1.000000 0.000000 0.000000
vn -1.000000 0.000000 0.000000
vn -1.000000 0.000000 0.000000
vn -1.000000 0.000000 0.000000
vn -1.000000 0.000000 0.000000
vn -1.000000 0.000000 0.000000
vn -1.000000 0.000000 0.000000
s 1
g pCylinder146
usemtl initialShadingGroup
f 2/2/1 1/1/2 7/7/3
f 3/3/4 2/2/1 7/7/3
f 4/4/5 3/3/4 7/7/3
f 5/5/6 4/4/5 7/7/3
f 6/6/7 5/5/6 7/7/3
f 1/1/2 6/6/7 7/7/3
s off
f 9/8/8 10/9/9 20/10/10 19/33/11
f 10/11/12 9/23/13 11/25/14 12/12/15
f 12/13/16 11/25/17 13/27/18 14/14/19
f 14/15/20 13/27/21 15/29/22 16/16/23
f 16/17/24 15/29/25 17/31/26 18/18/27
f 18/19/28 17/31/29 19/33/30 20/20/31
f 1/21/32 2/22/33 11/25/34 9/23/35
f 2/22/36 3/24/37 13/27/38 11/25/39
f 3/24/40 4/26/41 15/29/42 13/27/43
f 4/26/44 5/28/45 17/31/46 15/29/47
f 5/28/48 6/30/49 19/33/50 17/31/51
f 6/30/52 1/32/53 9/8/54 19/33/55
s 2
f 10/39/56 12/34/57 8/40/58
f 12/34/57 14/35/59 8/40/58
f 14/35/59 16/36/60 8/40/58
f 16/36/60 18/37/61 8/40/58
f 18/37/61 20/38/62 8/40/58
f 20/38/62 10/39/56 8/40/58
s 3
f 21/41/63 22/42/64 42/43/65 41/44/66
f 22/42/64 23/45/67 43/46/68 42/43/65
f 23/45/67 24/47/69 44/48/70 43/46/68
f 24/47/69 25/49/71 45/50/72 44/48/70
f 25/49/71 26/51/73 46/52/74 45/50/72
f 26/51/73 27/53/75 47/54/76 46/52/74
f 27/53/75 28/55/77 48/56/78 47/54/76
f 28/55/77 29/57/79 49/58/80 48/56/78
f 29/57/79 30/59/81 50/60/82 49/58/80
f 30/59/81 31/61/83 51/62/84 50/60/82
f 31/61/83 32/63/85 52/64/86 51/62/84
f 32/63/85 33/65/87 53/66/88 52/64/86
f 33/65/87 34/67/89 54/68/90 53/66/88
f 34/67/89 35/69/91 55/70/92 54/68/90
f 35/69/91 36/71/93 56/72/94 55/70/92
f 36/71/93 37/73/95 57/74/96 56/72/94
f 37/73/95 38/75/97 58/76/98 57/74/96
f 38/75/97 39/77/99 59/78/100 58/76/98
f 39/77/99 40/79/101 60/80/102 59/78/100
f 40/79/101 21/81/63 41/82/66 60/80/102
s 4
f 22/83/103 21/84/104 61/85/105
f 23/86/106 22/83/103 61/85/105
f 24/87/107 23/86/106 61/85/105
f 25/88/108 24/87/107 61/85/105
f 26/89/109 25/88/108 61/85/105
f 27/90/110 26/89/109 61/85/105
f 28/91/111 27/90/110 61/85/105
f 29/92/112 28/91/111 61/85/105
f 30/93/113 29/92/112 61/85/105
f 31/94/114 30/93/113 61/85/105
f 32/95/115 31/94/114 61/85/105
f 33/96/116 32/95/115 61/85/105
f 34/97/117 33/96/116 61/85/105
f 35/98/118 34/97/117 61/85/105
f 36/99/119 35/98/118 61/85/105
f 37/100/120 36/99/119 61/85/105
f 38/101/121 37/100/120 61/85/105
f 39/102/122 38/101/121 61/85/105
f 40/103/123 39/102/122 61/85/105
f 21/84/104 40/103/123 61/85/105
s 5
f 41/104/124 42/105/125 62/106/126
f 42/105/125 43/107/127 62/106/126
f 43/107/127 44/108/128 62/106/126
f 44/108/128 45/109/129 62/106/126
f 45/109/129 46/110/130 62/106/126
f 46/110/130 47/111/131 62/106/126
f 47/111/131 48/112/132 62/106/126
f 48/112/132 49/113/133 62/106/126
f 49/113/133 50/114/134 62/106/126
f 50/114/134 51/115/135 62/106/126
f 51/115/135 52/116/136 62/106/126
f 52/116/136 53/117/137 62/106/126
f 53/117/137 54/118/138 62/106/126
f 54/118/138 55/119/139 62/106/126
f 55/119/139 56/120/140 62/106/126
f 56/120/140 57/121/141 62/106/126
f 57/121/141 58/122/142 62/106/126
f 58/122/142 59/123/143 62/106/126
f 59/123/143 60/124/144 62/106/126
f 60/124/144 41/104/124 62/106/126
