# This file uses centimeters as units for non-parametric coordinates.

mtllib Hvat.mtl
g default
v 0.675040 1.610567 -0.020935
v 0.874461 1.610567 -0.020935
v 0.675040 1.773507 -0.020935
v 0.675040 1.773507 -0.101110
v 0.675040 1.610567 -0.101110
v 0.874461 1.610567 -0.101110
v 0.848610 1.610567 -0.020935
v 0.848610 1.610567 -0.101110
v 0.825345 1.610567 -0.020935
v 0.825345 1.610567 -0.101110
v 0.825345 1.773507 -0.101110
v 0.825345 1.773507 -0.020935
v 0.804406 1.610567 -0.020935
v 0.804406 1.610567 -0.101110
v 0.804406 1.773507 -0.101110
v 0.804406 1.773507 -0.020935
v 0.675040 1.659449 -0.020935
v 0.804406 1.659449 -0.020935
v 0.825345 1.659449 -0.020935
v 0.848610 1.659449 -0.020935
v 0.874461 1.659449 -0.020935
v 0.874461 1.659449 -0.101110
v 0.848610 1.659449 -0.101110
v 0.825345 1.659449 -0.101110
v 0.804406 1.659449 -0.101110
v 0.675040 1.659449 -0.101110
v 0.675040 1.716478 -0.101110
v 0.804406 1.716478 -0.101110
v 0.825345 1.716478 -0.101110
v 0.848610 1.716478 -0.101110
v 0.848610 1.716478 -0.020935
v 0.825345 1.716478 -0.020935
v 0.804406 1.716478 -0.020935
v 0.675040 1.716478 -0.020935
vt 0.375000 0.000000
vt 0.625000 0.000000
vt 0.375000 0.250000
vt 0.375000 0.500000
vt 0.375000 0.750000
vt 0.625000 0.750000
vt 0.375000 1.000000
vt 0.625000 1.000000
vt 0.875000 0.000000
vt 0.125000 0.000000
vt 0.125000 0.250000
vt 0.600000 0.000000
vt 0.600000 1.000000
vt 0.600000 0.750000
vt 0.577500 0.000000
vt 0.577500 1.000000
vt 0.577500 0.750000
vt 0.577500 0.500000
vt 0.577500 0.250000
vt 0.557250 0.000000
vt 0.557250 1.000000
vt 0.557250 0.750000
vt 0.557250 0.500000
vt 0.557250 0.250000
vt 0.375000 0.075000
vt 0.557250 0.075000
vt 0.577500 0.075000
vt 0.600000 0.075000
vt 0.625000 0.075000
vt 0.625000 0.675000
vt 0.875000 0.075000
vt 0.600000 0.675000
vt 0.577500 0.675000
vt 0.557250 0.675000
vt 0.125000 0.075000
vt 0.375000 0.675000
vt 0.125000 0.162500
vt 0.375000 0.587500
vt 0.557250 0.587500
vt 0.577500 0.587500
vt 0.600000 0.587500
vt 0.600000 0.162500
vt 0.577500 0.162500
vt 0.557250 0.162500
vt 0.375000 0.162500
vn 0.000000 -1.000000 0.000000
vn 0.000000 -1.000000 0.000000
vn 0.000000 -1.000000 0.000000
vn 0.000000 -1.000000 0.000000
vn -1.000000 0.000000 0.000000
vn -1.000000 0.000000 0.000000
vn -1.000000 0.000000 0.000000
vn -1.000000 0.000000 0.000000
vn 0.000000 -1.000000 0.000000
vn 0.000000 -1.000000 0.000000
vn 0.000000 0.000000 -1.000000
vn 0.000000 0.000000 -1.000000
vn 0.000000 0.000000 -1.000000
vn 0.000000 0.000000 -1.000000
vn 0.000000 0.000000 1.000000
vn 0.000000 0.000000 1.000000
vn 0.000000 0.000000 1.000000
vn 0.000000 0.000000 1.000000
vn 0.000000 -1.000000 0.000000
vn 0.000000 -1.000000 0.000000
vn 0.000000 0.000000 -1.000000
vn 0.000000 0.000000 -1.000000
vn 0.000000 1.000000 0.000000
vn 0.000000 1.000000 0.000000
vn 0.000000 1.000000 0.000000
vn 0.000000 1.000000 0.000000
vn 0.000000 0.000000 1.000000
vn 0.000000 0.000000 1.000000
vn 0.000000 -1.000000 0.000000
vn 0.000000 -1.000000 0.000000
vn 0.000000 0.000000 -1.000000
vn 0.000000 0.000000 -1.000000
vn 0.000000 1.000000 0.000000
vn 0.000000 1.000000 0.000000
vn 0.000000 0.000000 1.000000
vn 0.000000 0.000000 1.000000
vn 0.000000 0.000000 1.000000
vn 0.000000 0.000000 1.000000
vn 0.000000 0.000000 1.000000
vn 0.000000 0.000000 1.000000
vn 0.000000 0.000000 1.000000
vn 0.000000 0.000000 1.000000
vn 1.000000 0.000000 0.000000
vn 1.000000 0.000000 0.000000
vn 1.000000 0.000000 0.000000
vn 1.000000 0.000000 0.000000
vn 0.000000 0.000000 -1.000000
vn 0.000000 0.000000 -1.000000
vn 0.000000 0.000000 -1.000000
vn 0.000000 0.000000 -1.000000
vn 0.000000 0.000000 -1.000000
vn 0.000000 0.000000 -1.000000
vn -1.000000 0.000000 0.000000
vn -1.000000 0.000000 0.000000
vn 0.000000 0.000000 -1.000000
vn 0.000000 0.000000 -1.000000
vn 0.000000 0.000000 -1.000000
vn 0.000000 0.000000 1.000000
vn 0.000000 0.000000 1.000000
vn 0.000000 0.000000 1.000000
vn -1.000000 0.000000 0.000000
vn -1.000000 0.000000 0.000000
vn 1.000000 0.000000 0.000000
vn 0.925915 0.377733 0.000000
vn 1.000000 0.000000 0.000000
vn 0.925915 0.377733 0.000000
vn 0.910798 0.412851 0.000000
vn 0.910798 0.412851 0.000000
vn 0.000000 1.000000 0.000000
vn 0.000000 1.000000 0.000000
vn 0.925915 0.377733 0.000000
vn 0.925915 0.377733 0.000000
s 1
g pCube21
usemtl initialShadingGroup
f 7/13/1 8/14/2 2/8/3
f 2/8/3 8/14/2 6/6/4
s 2
f 26/35/5 17/25/6 27/37/7
f 27/37/7 17/25/6 34/45/8
s 1
f 9/16/9 10/17/10 7/13/1
f 7/13/1 10/17/10 8/14/2
s 4
f 23/32/11 24/33/12 30/41/13
f 30/41/13 24/33/12 29/40/14
s 5
f 31/42/15 32/43/16 20/28/17
f 20/28/17 32/43/16 19/27/18
s 1
f 13/21/19 14/22/20 9/16/9
f 9/16/9 14/22/20 10/17/10
s 4
f 24/33/12 25/34/21 29/40/14
f 29/40/14 25/34/21 28/39/22
s 7
f 15/23/23 16/24/24 11/18/25
f 11/18/25 16/24/24 12/19/26
s 5
f 32/43/16 33/44/27 19/27/18
f 19/27/18 33/44/27 18/26/28
s 1
f 5/5/29 14/22/20 1/7/30
f 1/7/30 14/22/20 13/21/19
s 4
f 27/38/31 28/39/22 26/36/32
f 26/36/32 28/39/22 25/34/21
s 7
f 3/3/33 16/24/24 4/4/34
f 4/4/34 16/24/24 15/23/23
s 5
f 17/25/35 18/26/28 34/45/36
f 34/45/36 18/26/28 33/44/27
f 1/1/37 13/20/38 17/25/35
f 17/25/35 13/20/38 18/26/28
f 19/27/18 18/26/28 9/15/39
f 9/15/39 18/26/28 13/20/38
f 20/28/17 19/27/18 7/12/40
f 7/12/40 19/27/18 9/15/39
f 21/29/41 20/28/17 2/2/42
f 2/2/42 20/28/17 7/12/40
s 10
f 2/2/43 6/9/44 21/29/45
f 21/29/45 6/9/44 22/31/46
s 4
f 8/14/47 23/32/11 6/6/48
f 6/6/48 23/32/11 22/30/49
f 10/17/50 24/33/12 8/14/47
f 8/14/47 24/33/12 23/32/11
f 14/22/51 25/34/21 10/17/50
f 10/17/50 25/34/21 24/33/12
f 26/36/32 25/34/21 5/5/52
f 5/5/52 25/34/21 14/22/51
s 2
f 5/10/53 1/1/54 26/35/5
f 26/35/5 1/1/54 17/25/6
s 4
f 4/4/55 15/23/56 27/38/31
f 27/38/31 15/23/56 28/39/22
f 29/40/14 28/39/22 11/18/57
f 11/18/57 28/39/22 15/23/56
s 5
f 16/24/58 33/44/27 12/19/59
f 12/19/59 33/44/27 32/43/16
f 34/45/36 33/44/27 3/3/60
f 3/3/60 33/44/27 16/24/58
s 2
f 27/37/7 34/45/8 4/11/61
f 4/11/61 34/45/8 3/3/62
s 13
f 12/19/63 32/43/64 11/18/65
f 11/18/65 32/43/64 29/40/66
f 23/32/67 20/28/68 22/30/69
f 22/30/69 20/28/68 21/29/70
f 29/40/66 32/43/64 30/41/71
f 32/43/64 31/42/72 30/41/71
f 31/42/72 20/28/68 30/41/71
f 20/28/68 23/32/67 30/41/71
g default
v 0.675040 1.597571 -0.108277
v 0.874461 1.597571 -0.108277
v 0.675040 1.516101 -0.249387
v 0.675040 1.446667 -0.209300
v 0.675040 1.528137 -0.068189
v 0.874461 1.528137 -0.068189
v 0.848610 1.597571 -0.108277
v 0.848610 1.528137 -0.068189
v 0.825345 1.597571 -0.108277
v 0.825345 1.528137 -0.068189
v 0.825345 1.446667 -0.209300
v 0.825345 1.516101 -0.249387
v 0.804406 1.597571 -0.108277
v 0.804406 1.528137 -0.068189
v 0.804406 1.446667 -0.209300
v 0.804406 1.516101 -0.249387
v 0.675040 1.573130 -0.150610
v 0.804406 1.573130 -0.150610
v 0.825345 1.573130 -0.150610
v 0.848610 1.573130 -0.150610
v 0.874461 1.573130 -0.150610
v 0.874461 1.503696 -0.110522
v 0.848610 1.503696 -0.110522
v 0.825345 1.503696 -0.110522
v 0.804406 1.503696 -0.110522
v 0.675040 1.503696 -0.110522
v 0.675040 1.475182 -0.159911
v 0.804406 1.475182 -0.159911
v 0.825345 1.475182 -0.159911
v 0.848610 1.475182 -0.159911
v 0.848610 1.544616 -0.199998
v 0.825345 1.544616 -0.199998
v 0.804406 1.544616 -0.199998
v 0.675040 1.544616 -0.199998
vt 0.375000 0.000000
vt 0.625000 0.000000
vt 0.375000 0.250000
vt 0.375000 0.500000
vt 0.375000 0.750000
vt 0.625000 0.750000
vt 0.375000 1.000000
vt 0.625000 1.000000
vt 0.875000 0.000000
vt 0.125000 0.000000
vt 0.125000 0.250000
vt 0.600000 0.000000
vt 0.600000 1.000000
vt 0.600000 0.750000
vt 0.577500 0.000000
vt 0.577500 1.000000
vt 0.577500 0.750000
vt 0.577500 0.500000
vt 0.577500 0.250000
vt 0.557250 0.000000
vt 0.557250 1.000000
vt 0.557250 0.750000
vt 0.557250 0.500000
vt 0.557250 0.250000
vt 0.375000 0.075000
vt 0.557250 0.075000
vt 0.577500 0.075000
vt 0.600000 0.075000
vt 0.625000 0.075000
vt 0.625000 0.675000
vt 0.875000 0.075000
vt 0.600000 0.675000
vt 0.577500 0.675000
vt 0.557250 0.675000
vt 0.125000 0.075000
vt 0.375000 0.675000
vt 0.125000 0.162500
vt 0.375000 0.587500
vt 0.557250 0.587500
vt 0.577500 0.587500
vt 0.600000 0.587500
vt 0.600000 0.162500
vt 0.577500 0.162500
vt 0.557250 0.162500
vt 0.375000 0.162500
vn 0.000000 0.500000 0.866025
vn 0.000000 0.500000 0.866025
vn 0.000000 0.500000 0.866025
vn 0.000000 0.500000 0.866025
vn -1.000000 0.000000 -0.000000
vn -1.000000 0.000000 -0.000000
vn -1.000000 0.000000 -0.000000
vn -1.000000 0.000000 -0.000000
vn 0.000000 0.500000 0.866025
vn 0.000000 0.500000 0.866025
vn 0.000000 -0.866025 0.500000
vn 0.000000 -0.866025 0.500000
vn 0.000000 -0.866025 0.500000
vn 0.000000 -0.866025 0.500000
vn 0.000000 0.866025 -0.500000
vn 0.000000 0.866025 -0.500000
vn 0.000000 0.866025 -0.500000
vn 0.000000 0.866025 -0.500000
vn 0.000000 0.500000 0.866025
vn 0.000000 0.500000 0.866025
vn 0.000000 -0.866025 0.500000
vn 0.000000 -0.866025 0.500000
vn 0.000000 -0.500000 -0.866025
vn 0.000000 -0.500000 -0.866025
vn 0.000000 -0.500000 -0.866025
vn 0.000000 -0.500000 -0.866025
vn 0.000000 0.866025 -0.500000
vn 0.000000 0.866025 -0.500000
vn 0.000000 0.500000 0.866025
vn 0.000000 0.500000 0.866025
vn 0.000000 -0.866025 0.500000
vn 0.000000 -0.866025 0.500000
vn 0.000000 -0.500000 -0.866025
vn 0.000000 -0.500000 -0.866025
vn 0.000000 0.866025 -0.500000
vn 0.000000 0.866025 -0.500000
vn 0.000000 0.866025 -0.500000
vn 0.000000 0.866025 -0.500000
vn 0.000000 0.866025 -0.500000
vn 0.000000 0.866025 -0.500000
vn 0.000000 0.866025 -0.500000
vn 0.000000 0.866025 -0.500000
vn 1.000000 0.000000 0.000000
vn 1.000000 0.000000 0.000000
vn 1.000000 0.000000 0.000000
vn 1.000000 0.000000 0.000000
vn 0.000000 -0.866025 0.500000
vn 0.000000 -0.866025 0.500000
vn 0.000000 -0.866025 0.500000
vn 0.000000 -0.866025 0.500000
vn 0.000000 -0.866025 0.500000
vn 0.000000 -0.866025 0.500000
vn -1.000000 0.000000 -0.000000
vn -1.000000 0.000000 -0.000000
vn 0.000000 -0.866025 0.500000
vn 0.000000 -0.866025 0.500000
vn 0.000000 -0.866025 0.500000
vn 0.000000 0.866025 -0.500000
vn 0.000000 0.866025 -0.500000
vn 0.000000 0.866025 -0.500000
vn -1.000000 0.000000 -0.000000
vn -1.000000 0.000000 -0.000000
vn 1.000000 0.000000 0.000000
vn 0.925915 -0.188866 -0.327126
vn 1.000000 0.000000 0.000000
vn 0.925915 -0.188866 -0.327126
vn 0.910798 -0.206426 -0.357540
vn 0.910798 -0.206426 -0.357540
vn 0.000000 -0.500000 -0.866025
vn 0.000000 -0.500000 -0.866025
vn 0.925915 -0.188866 -0.327126
vn 0.925915 -0.188866 -0.327126
s 1
g pCube23
usemtl initialShadingGroup
f 41/58/73 42/59/74 36/53/75
f 36/53/75 42/59/74 40/51/76
s 2
f 60/80/77 51/70/78 61/82/79
f 61/82/79 51/70/78 68/90/80
s 1
f 43/61/81 44/62/82 41/58/73
f 41/58/73 44/62/82 42/59/74
s 4
f 57/77/83 58/78/84 64/86/85
f 64/86/85 58/78/84 63/85/86
s 5
f 65/87/87 66/88/88 54/73/89
f 54/73/89 66/88/88 53/72/90
s 1
f 47/66/91 48/67/92 43/61/81
f 43/61/81 48/67/92 44/62/82
s 4
f 58/78/84 59/79/93 63/85/86
f 63/85/86 59/79/93 62/84/94
s 7
f 49/68/95 50/69/96 45/63/97
f 45/63/97 50/69/96 46/64/98
s 5
f 66/88/88 67/89/99 53/72/90
f 53/72/90 67/89/99 52/71/100
s 1
f 39/50/101 48/67/92 35/52/102
f 35/52/102 48/67/92 47/66/91
s 4
f 61/83/103 62/84/94 60/81/104
f 60/81/104 62/84/94 59/79/93
s 7
f 37/48/105 50/69/96 38/49/106
f 38/49/106 50/69/96 49/68/95
s 5
f 51/70/107 52/71/100 68/90/108
f 68/90/108 52/71/100 67/89/99
f 35/46/109 47/65/110 51/70/107
f 51/70/107 47/65/110 52/71/100
f 53/72/90 52/71/100 43/60/111
f 43/60/111 52/71/100 47/65/110
f 54/73/89 53/72/90 41/57/112
f 41/57/112 53/72/90 43/60/111
f 55/74/113 54/73/89 36/47/114
f 36/47/114 54/73/89 41/57/112
s 10
f 36/47/115 40/54/116 55/74/117
f 55/74/117 40/54/116 56/76/118
s 4
f 42/59/119 57/77/83 40/51/120
f 40/51/120 57/77/83 56/75/121
f 44/62/122 58/78/84 42/59/119
f 42/59/119 58/78/84 57/77/83
f 48/67/123 59/79/93 44/62/122
f 44/62/122 59/79/93 58/78/84
f 60/81/104 59/79/93 39/50/124
f 39/50/124 59/79/93 48/67/123
s 2
f 39/55/125 35/46/126 60/80/77
f 60/80/77 35/46/126 51/70/78
s 4
f 38/49/127 49/68/128 61/83/103
f 61/83/103 49/68/128 62/84/94
f 63/85/86 62/84/94 45/63/129
f 45/63/129 62/84/94 49/68/128
s 5
f 50/69/130 67/89/99 46/64/131
f 46/64/131 67/89/99 66/88/88
f 68/90/108 67/89/99 37/48/132
f 37/48/132 67/89/99 50/69/130
s 2
f 61/82/79 68/90/80 38/56/133
f 38/56/133 68/90/80 37/48/134
s 13
f 46/64/135 66/88/136 45/63/137
f 45/63/137 66/88/136 63/85/138
f 57/77/139 54/73/140 56/75/141
f 56/75/141 54/73/140 55/74/142
f 63/85/138 66/88/136 64/86/143
f 66/88/136 65/87/144 64/86/143
f 65/87/144 54/73/140 64/86/143
f 54/73/140 57/77/139 64/86/143
g default
v 0.675040 1.532118 -0.047883
v 0.874461 1.532118 -0.047883
v 0.675040 1.450647 0.093228
v 0.675040 1.520081 0.133316
v 0.675040 1.601552 -0.007795
v 0.874461 1.601552 -0.007795
v 0.848610 1.532118 -0.047883
v 0.848610 1.601552 -0.007795
v 0.825345 1.532118 -0.047883
v 0.825345 1.601552 -0.007795
v 0.825345 1.520081 0.133316
v 0.825345 1.450647 0.093228
v 0.804406 1.532118 -0.047883
v 0.804406 1.601552 -0.007795
v 0.804406 1.520081 0.133316
v 0.804406 1.450647 0.093228
v 0.675040 1.507676 -0.005549
v 0.804406 1.507676 -0.005549
v 0.825345 1.507676 -0.005549
v 0.848610 1.507676 -0.005549
v 0.874461 1.507676 -0.005549
v 0.874461 1.577110 0.034538
v 0.848610 1.577110 0.034538
v 0.825345 1.577110 0.034538
v 0.804406 1.577110 0.034538
v 0.675040 1.577110 0.034538
v 0.675040 1.548596 0.083927
v 0.804406 1.548596 0.083927
v 0.825345 1.548596 0.083927
v 0.848610 1.548596 0.083927
v 0.848610 1.479162 0.043839
v 0.825345 1.479162 0.043839
v 0.804406 1.479162 0.043839
v 0.675040 1.479162 0.043839
vt 0.375000 0.000000
vt 0.625000 0.000000
vt 0.375000 0.250000
vt 0.375000 0.500000
vt 0.375000 0.750000
vt 0.625000 0.750000
vt 0.375000 1.000000
vt 0.625000 1.000000
vt 0.875000 0.000000
vt 0.125000 0.000000
vt 0.125000 0.250000
vt 0.600000 0.000000
vt 0.600000 1.000000
vt 0.600000 0.750000
vt 0.577500 0.000000
vt 0.577500 1.000000
vt 0.577500 0.750000
vt 0.577500 0.500000
vt 0.577500 0.250000
vt 0.557250 0.000000
vt 0.557250 1.000000
vt 0.557250 0.750000
vt 0.557250 0.500000
vt 0.557250 0.250000
vt 0.375000 0.075000
vt 0.557250 0.075000
vt 0.577500 0.075000
vt 0.600000 0.075000
vt 0.625000 0.075000
vt 0.625000 0.675000
vt 0.875000 0.075000
vt 0.600000 0.675000
vt 0.577500 0.675000
vt 0.557250 0.675000
vt 0.125000 0.075000
vt 0.375000 0.675000
vt 0.125000 0.162500
vt 0.375000 0.587500
vt 0.557250 0.587500
vt 0.577500 0.587500
vt 0.600000 0.587500
vt 0.600000 0.162500
vt 0.577500 0.162500
vt 0.557250 0.162500
vt 0.375000 0.162500
vn 0.000000 0.500000 -0.866025
vn 0.000000 0.500000 -0.866025
vn 0.000000 0.500000 -0.866025
vn 0.000000 0.500000 -0.866025
vn -1.000000 0.000000 0.000000
vn -1.000000 0.000000 0.000000
vn -1.000000 0.000000 0.000000
vn -1.000000 0.000000 0.000000
vn 0.000000 0.500000 -0.866025
vn 0.000000 0.500000 -0.866025
vn 0.000000 0.866025 0.500000
vn 0.000000 0.866025 0.500000
vn 0.000000 0.866025 0.500000
vn 0.000000 0.866025 0.500000
vn 0.000000 -0.866025 -0.500000
vn 0.000000 -0.866025 -0.500000
vn 0.000000 -0.866025 -0.500000
vn 0.000000 -0.866025 -0.500000
vn 0.000000 0.500000 -0.866025
vn 0.000000 0.500000 -0.866025
vn 0.000000 0.866025 0.500000
vn 0.000000 0.866025 0.500000
vn 0.000000 -0.500000 0.866025
vn 0.000000 -0.500000 0.866025
vn 0.000000 -0.500000 0.866025
vn 0.000000 -0.500000 0.866025
vn 0.000000 -0.866025 -0.500000
vn 0.000000 -0.866025 -0.500000
vn 0.000000 0.500000 -0.866025
vn 0.000000 0.500000 -0.866025
vn 0.000000 0.866025 0.500000
vn 0.000000 0.866025 0.500000
vn 0.000000 -0.500000 0.866025
vn 0.000000 -0.500000 0.866025
vn 0.000000 -0.866025 -0.500000
vn 0.000000 -0.866025 -0.500000
vn 0.000000 -0.866025 -0.500000
vn 0.000000 -0.866025 -0.500000
vn 0.000000 -0.866025 -0.500000
vn 0.000000 -0.866025 -0.500000
vn 0.000000 -0.866025 -0.500000
vn 0.000000 -0.866025 -0.500000
vn 1.000000 -0.000000 0.000000
vn 1.000000 -0.000000 0.000000
vn 1.000000 -0.000000 0.000000
vn 1.000000 -0.000000 0.000000
vn 0.000000 0.866025 0.500000
vn 0.000000 0.866025 0.500000
vn 0.000000 0.866025 0.500000
vn 0.000000 0.866025 0.500000
vn 0.000000 0.866025 0.500000
vn 0.000000 0.866025 0.500000
vn -1.000000 0.000000 0.000000
vn -1.000000 0.000000 0.000000
vn 0.000000 0.866025 0.500000
vn 0.000000 0.866025 0.500000
vn 0.000000 0.866025 0.500000
vn 0.000000 -0.866025 -0.500000
vn 0.000000 -0.866025 -0.500000
vn 0.000000 -0.866025 -0.500000
vn -1.000000 0.000000 0.000000
vn -1.000000 0.000000 0.000000
vn 1.000000 -0.000000 0.000000
vn 0.925915 -0.188866 0.327126
vn 1.000000 -0.000000 0.000000
vn 0.925915 -0.188866 0.327126
vn 0.910798 -0.206426 0.357540
vn 0.910798 -0.206426 0.357540
vn 0.000000 -0.500000 0.866025
vn 0.000000 -0.500000 0.866025
vn 0.925915 -0.188866 0.327126
vn 0.925915 -0.188866 0.327126
s 1
g pCube22
usemtl initialShadingGroup
f 75/103/145 76/104/146 70/98/147
f 70/98/147 76/104/146 74/96/148
s 2
f 94/125/149 85/115/150 95/127/151
f 95/127/151 85/115/150 102/135/152
s 1
f 77/106/153 78/107/154 75/103/145
f 75/103/145 78/107/154 76/104/146
s 4
f 91/122/155 92/123/156 98/131/157
f 98/131/157 92/123/156 97/130/158
s 5
f 99/132/159 100/133/160 88/118/161
f 88/118/161 100/133/160 87/117/162
s 1
f 81/111/163 82/112/164 77/106/153
f 77/106/153 82/112/164 78/107/154
s 4
f 92/123/156 93/124/165 97/130/158
f 97/130/158 93/124/165 96/129/166
s 7
f 83/113/167 84/114/168 79/108/169
f 79/108/169 84/114/168 80/109/170
s 5
f 100/133/160 101/134/171 87/117/162
f 87/117/162 101/134/171 86/116/172
s 1
f 73/95/173 82/112/164 69/97/174
f 69/97/174 82/112/164 81/111/163
s 4
f 95/128/175 96/129/166 94/126/176
f 94/126/176 96/129/166 93/124/165
s 7
f 71/93/177 84/114/168 72/94/178
f 72/94/178 84/114/168 83/113/167
s 5
f 85/115/179 86/116/172 102/135/180
f 102/135/180 86/116/172 101/134/171
f 69/91/181 81/110/182 85/115/179
f 85/115/179 81/110/182 86/116/172
f 87/117/162 86/116/172 77/105/183
f 77/105/183 86/116/172 81/110/182
f 88/118/161 87/117/162 75/102/184
f 75/102/184 87/117/162 77/105/183
f 89/119/185 88/118/161 70/92/186
f 70/92/186 88/118/161 75/102/184
s 10
f 70/92/187 74/99/188 89/119/189
f 89/119/189 74/99/188 90/121/190
s 4
f 76/104/191 91/122/155 74/96/192
f 74/96/192 91/122/155 90/120/193
f 78/107/194 92/123/156 76/104/191
f 76/104/191 92/123/156 91/122/155
f 82/112/195 93/124/165 78/107/194
f 78/107/194 93/124/165 92/123/156
f 94/126/176 93/124/165 73/95/196
f 73/95/196 93/124/165 82/112/195
s 2
f 73/100/197 69/91/198 94/125/149
f 94/125/149 69/91/198 85/115/150
s 4
f 72/94/199 83/113/200 95/128/175
f 95/128/175 83/113/200 96/129/166
f 97/130/158 96/129/166 79/108/201
f 79/108/201 96/129/166 83/113/200
s 5
f 84/114/202 101/134/171 80/109/203
f 80/109/203 101/134/171 100/133/160
f 102/135/180 101/134/171 71/93/204
f 71/93/204 101/134/171 84/114/202
s 2
f 95/127/151 102/135/152 72/101/205
f 72/101/205 102/135/152 71/93/206
s 13
f 80/109/207 100/133/208 79/108/209
f 79/108/209 100/133/208 97/130/210
f 91/122/211 88/118/212 90/120/213
f 90/120/213 88/118/212 89/119/214
f 97/130/210 100/133/208 98/131/215
f 100/133/208 99/132/216 98/131/215
f 99/132/216 88/118/212 98/131/215
f 88/118/212 91/122/211 98/131/215
