# This file uses centimeters as units for non-parametric coordinates.

mtllib Korobka_skorostey.mtl
g default
v -0.592606 0.815442 0.452859
v -0.592606 1.334018 0.299556
v -0.592606 1.334018 -0.452859
v 0.517083 1.334018 -0.452859
v -0.592606 0.815442 -0.452859
v 0.517083 0.815442 -0.452859
v 0.517083 1.201381 -0.452859
v -0.592606 1.201381 -0.452859
v 0.517083 0.815442 0.439557
v 0.513187 0.815442 0.448963
v 0.503781 0.815442 0.452859
v 0.513187 1.199600 0.448963
v 0.517083 1.195300 0.439557
v 0.513187 1.334018 0.293601
v 0.517083 1.334018 0.279225
v 0.503781 1.334018 0.299556
v -0.592606 1.200866 0.451734
v -0.592606 1.205098 0.448563
v -0.592606 1.201381 0.447692
v -0.592606 1.195699 0.452859
v 0.503781 1.200866 0.451734
v 0.503781 1.195699 0.452859
v 0.508484 1.200490 0.450911
v 0.503781 1.205098 0.448563
vt 0.625000 0.500000
vt 0.375000 0.750000
vt 0.625000 0.563943
vt 0.375000 0.563943
vt 0.628672 0.000000
vt 0.628672 0.183125
vt 0.875000 0.250000
vt 0.875000 0.000000
vt 0.875000 0.186057
vt 0.375000 1.000000
vt 0.625000 0.750000
vt 0.625000 0.996328
vt 0.622003 1.000000
vt 0.625000 0.256755
vt 0.375000 0.500000
vt 0.631755 0.250000
vt 0.625000 1.000000
vt 0.625000 0.000000
vt 0.625000 0.250000
vt 0.125000 0.186057
vt 0.125000 0.250000
vt 0.125000 0.000000
vt 0.625000 0.186057
vt 0.622003 0.250000
vt 0.375000 0.250000
vt 0.375000 -0.000000
vt 0.622003 0.000000
vt 0.375000 0.187849
vt 0.622003 0.183318
vt 0.375000 0.183318
vt 0.373574 0.186057
vt 0.622003 0.187849
vt 0.623501 0.186057
vt 0.375000 0.186057
vt 0.622003 0.186057
vn 0.000000 0.000000 -1.000000
vn 0.000000 0.000000 -1.000000
vn 0.000000 0.000000 -1.000000
vn 0.000000 0.000000 -1.000000
vn -1.000000 0.000000 0.000000
vn -1.000000 -0.000000 0.000000
vn -1.000000 -0.000000 0.000000
vn -1.000000 0.000000 0.000000
vn -1.000000 0.000000 0.000000
vn 0.000000 0.000000 -1.000000
vn 0.000000 0.000000 -1.000000
vn -1.000000 0.000000 0.000000
vn -1.000000 0.000000 0.000000
vn -1.000000 0.000000 0.000000
vn 0.003554 0.000000 0.999994
vn 0.382685 0.000000 0.923879
vn 0.382685 0.000000 0.923879
vn 0.412439 0.301372 0.859691
vn 0.005920 0.002879 0.999978
vn 0.923884 0.000000 0.382674
vn 0.999991 0.000000 0.004310
vn 0.999980 0.001386 0.006210
vn 0.935801 0.145132 0.321267
vn 0.000000 0.752587 0.658493
vn 0.005866 0.752623 0.658425
vn 0.004410 0.756232 0.654289
vn 0.000000 0.756239 0.654295
vn 1.000000 0.000000 0.000000
vn 1.000000 0.000000 0.000000
vn 0.999994 0.002578 0.002230
vn 0.000000 0.000000 1.000000
vn 0.000000 0.002919 0.999996
vn 1.000000 0.000000 0.000000
vn 0.000000 -1.000000 0.000000
vn 0.000000 -1.000000 0.000000
vn 0.000000 -1.000000 0.000000
vn 0.000000 -1.000000 0.000000
vn 0.000000 -1.000000 0.000000
vn 0.000000 -1.000000 0.000000
vn 0.000000 1.000000 0.000000
vn 0.000000 1.000000 0.000000
vn 0.000000 1.000000 0.000000
vn 0.000000 1.000000 0.000000
vn 0.000000 1.000000 0.000000
vn 0.000000 1.000000 0.000000
vn 0.923882 0.289396 0.250383
vn 0.382690 0.698670 0.604490
vn 0.382690 0.698670 0.604490
vn 0.000000 0.415753 0.909478
vn 0.000403 0.415781 0.909465
vn -1.000000 -0.000003 0.000000
s 1
g pCube9
usemtl initialShadingGroup
f 3/15/1 4/1/2 7/3/3 8/4/4
s 2
f 8/20/5 19/31/6 18/28/7 2/25/8 3/21/9
s 1
f 8/4/4 7/3/3 6/11/10 5/2/11
s 2
f 5/22/12 1/26/13 20/30/14 19/31/6 8/20/5
s 3
f 11/27/15 10/18/16 12/23/17 23/33/18 22/29/19
s 4
f 10/18/20 9/5/21 13/6/22 12/23/23
s 3
f 18/28/24 24/32/25 16/24/26 2/25/27
s 4
f 13/6/22 7/9/28 4/7/29 15/16/30
s 3
f 1/26/31 11/27/15 22/29/19 20/30/32
s 4
f 13/6/22 9/5/21 6/8/33 7/9/28
s off
f 1/10/34 5/2/35 6/11/36 9/12/37 10/17/38 11/13/39
f 14/19/40 15/14/41 4/1/42 3/15/43 2/25/44 16/24/45
s 4
f 12/23/23 13/6/22 15/16/30 14/19/46
s 3
f 24/32/25 23/33/18 12/23/47 14/19/48 16/24/26
f 18/28/24 17/34/49 21/35/50 24/32/25
f 17/34/49 20/30/32 22/29/19 21/35/50
s 2
f 19/31/6 20/30/14 17/34/51
f 19/31/6 17/34/51 18/28/7
s 3
f 23/33/18 24/32/25 21/35/50
f 23/33/18 21/35/50 22/29/19
