# This file uses centimeters as units for non-parametric coordinates.

mtllib Perednya_babka.mtl
g default
v -0.597590 1.334018 0.299518
v -0.597590 1.931325 -0.448119
v -0.597590 1.334018 -0.448119
v -0.597590 1.931325 0.292042
v -0.597590 1.923849 0.299518
v -0.597590 1.929136 0.297328
v 0.514560 1.929136 0.292042
v 0.509274 1.931325 0.292042
v 0.509274 1.929136 0.297328
v 0.509274 1.923849 0.299518
v 0.514560 1.923849 0.297328
v 0.516749 1.923849 0.292042
v 0.516749 1.334018 0.292042
v 0.514560 1.334018 0.297328
v 0.509274 1.334018 0.299518
v 0.509274 1.931325 -0.448119
v 0.514560 1.929136 -0.445930
v 0.516749 1.923849 -0.440644
v 0.516749 1.334018 -0.440644
v 0.509274 1.334018 -0.448119
v 0.514560 1.334018 -0.445930
v 0.513588 1.928164 0.296357
vt 0.375000 0.246871
vt 0.627500 0.000000
vt 0.623323 0.246871
vt 0.623323 0.000000
vt 0.375000 0.000000
vt 0.375000 0.252500
vt 0.623323 0.252500
vt 0.623323 0.500000
vt 0.375000 0.500000
vt 0.375000 0.750000
vt 0.627500 0.246871
vt 0.372500 0.250000
vt 0.125000 0.250000
vt 0.125000 0.000000
vt 0.625000 0.752500
vt 0.625000 0.997500
vt 0.623323 1.000000
vt 0.375000 1.000000
vt 0.623323 0.750000
vt 0.872500 0.246871
vt 0.872500 -0.000000
vt 0.375000 0.250000
vt 0.625000 0.251557
vt 0.626557 0.250000
vt 0.623332 0.250121
vt 0.625125 0.246875
vt 0.625000 0.000000
vt 0.625000 1.000000
vt 0.875000 0.250000
vt 0.625000 0.500000
vt 0.625000 0.750000
vt 0.875000 0.000000
vt 0.625000 0.250000
vn 0.000000 0.999996 0.002937
vn 0.000000 0.923880 0.382682
vn 0.001319 0.923940 0.382534
vn 0.001959 0.999994 0.002931
vn 0.000000 0.382684 0.923879
vn 0.000000 0.003679 0.999993
vn 0.001963 0.003673 0.999991
vn 0.001007 0.382572 0.923925
vn 0.382450 0.923974 0.002126
vn 0.382688 0.923878 0.000000
vn 0.001446 0.999999 0.000000
vn 0.923952 0.382505 0.001592
vn 0.999989 0.003684 0.002959
vn 0.999976 0.004933 -0.004774
vn 0.923880 0.382683 0.000000
vn 0.923982 0.002286 0.382429
vn 0.923879 0.000000 0.382685
vn 0.999996 0.000000 0.002967
vn 0.382417 0.002448 0.923987
vn 0.001969 0.000000 0.999998
vn 0.382691 0.000000 0.923876
vn 0.000000 0.000000 1.000000
vn 0.000000 1.000000 0.000000
vn 0.000000 0.000000 -1.000000
vn 0.001103 0.000000 -0.999999
vn 0.001965 0.000000 -0.999998
vn 0.000000 0.000000 -1.000000
vn 0.999996 0.000000 -0.002980
vn -1.000000 0.000000 0.000000
vn -1.000000 0.000000 0.000000
vn -1.000000 0.000000 0.000000
vn -1.000000 0.000000 0.000000
vn -1.000000 0.000000 0.000000
vn -1.000000 0.000000 0.000000
vn 0.000000 -1.000000 0.000000
vn 0.000000 -1.000000 0.000000
vn 0.000000 -1.000000 0.000000
vn 0.000000 -1.000000 0.000000
vn 0.000000 -1.000000 0.000000
vn 0.000000 -1.000000 0.000000
vn 0.000000 -1.000000 0.000000
vn 0.000000 -1.000000 0.000000
vn 0.382687 0.000000 -0.923878
vn 0.382687 0.000000 -0.923878
vn 0.923879 0.000000 -0.382685
vn 0.923879 0.000000 -0.382685
vn 0.887919 0.325266 0.325272
vn 0.325278 0.887913 0.325277
vn 0.325281 0.325267 0.887915
s 1
g pCube40
usemtl initialShadingGroup
f 4/6/1 6/22/2 9/25/3 8/7/4
s 2
f 6/22/5 5/1/6 10/3/7 9/25/8
s 1
f 8/7/4 7/23/9 17/30/10 16/8/11
s 3
f 7/24/12 12/11/13 18/20/14 17/29/15
f 12/11/13 11/26/16 14/27/17 13/2/18
s 2
f 11/26/19 10/3/7 15/4/20 14/27/21
f 1/5/22 15/4/20 10/3/7 5/1/6
s 1
f 4/6/1 8/7/4 16/8/11 2/9/23
s 4
f 2/9/24 16/8/25 20/19/26 3/10/27
s 3
f 12/11/13 13/2/18 19/21/28 18/20/14
s off
f 4/12/29 2/13/30 3/14/31 1/5/32 5/1/33 6/22/34
f 19/15/35 13/16/36 14/28/37 15/17/38 1/18/39 3/10/40 20/19/41 21/31/42
s 4
f 16/8/25 17/30/43 21/31/44 20/19/26
s 3
f 17/29/45 18/20/14 19/21/28 21/32/46
f 11/26/16 12/11/13 7/24/12 22/33/47
s 1
f 7/23/9 8/7/4 9/25/3 22/33/48
s 2
f 9/25/8 10/3/7 11/26/19 22/33/49
