# This file uses centimeters as units for non-parametric coordinates.

mtllib Rezez3.mtl
g default
v 1.023465 1.598225 0.482422
v 1.223930 1.598225 0.482422
v 1.023465 1.628572 0.482422
v 1.223930 1.628572 0.482422
v 1.023465 1.628572 0.455236
v 1.223930 1.628572 0.455236
v 1.023465 1.598225 0.455236
v 1.223930 1.598225 0.455236
vt 0.375000 0.000000
vt 0.625000 0.000000
vt 0.625000 0.250000
vt 0.375000 0.250000
vt 0.625000 0.500000
vt 0.375000 0.500000
vt 0.625000 0.750000
vt 0.375000 0.750000
vt 0.625000 1.000000
vt 0.375000 1.000000
vt 0.875000 0.000000
vt 0.875000 0.250000
vt 0.125000 0.000000
vt 0.125000 0.250000
vn 0.000000 0.000000 1.000000
vn 0.000000 0.000000 1.000000
vn 0.000000 0.000000 1.000000
vn 0.000000 0.000000 1.000000
vn 0.000000 1.000000 0.000000
vn 0.000000 1.000000 0.000000
vn 0.000000 1.000000 0.000000
vn 0.000000 1.000000 0.000000
vn 0.000000 0.000000 -1.000000
vn 0.000000 0.000000 -1.000000
vn 0.000000 0.000000 -1.000000
vn 0.000000 0.000000 -1.000000
vn 0.000000 -1.000000 0.000000
vn 0.000000 -1.000000 0.000000
vn 0.000000 -1.000000 0.000000
vn 0.000000 -1.000000 0.000000
vn 1.000000 0.000000 0.000000
vn 1.000000 0.000000 0.000000
vn 1.000000 0.000000 0.000000
vn 1.000000 0.000000 0.000000
vn -1.000000 0.000000 0.000000
vn -1.000000 0.000000 0.000000
vn -1.000000 0.000000 0.000000
vn -1.000000 0.000000 0.000000
s off
g polySurface47 pCube39
usemtl initialShadingGroup
f 1/1/1 2/2/2 4/3/3 3/4/4
f 3/4/5 4/3/6 6/5/7 5/6/8
f 5/6/9 6/5/10 8/7/11 7/8/12
f 7/8/13 8/7/14 2/9/15 1/10/16
f 2/2/17 8/11/18 6/12/19 4/3/20
f 7/13/21 1/1/22 3/4/23 5/14/24
g default
v 1.084329 1.598225 0.238407
v 1.091457 1.598225 0.422355
v 1.074703 1.628572 0.233808
v 1.091457 1.628572 0.422355
v 1.087775 1.628572 0.209971
v 1.118643 1.628572 0.422355
v 1.097400 1.598225 0.214570
v 1.118643 1.598225 0.422355
v 1.091457 1.598225 0.247562
v 1.118643 1.598225 0.247562
v 1.118643 1.628572 0.247562
v 1.091457 1.628572 0.247562
v 1.086304 1.598225 0.243332
v 1.118735 1.598225 0.236000
v 1.118735 1.628572 0.236000
v 1.086304 1.628572 0.243332
vt 0.375000 0.000000
vt 0.625000 0.000000
vt 0.625000 0.250000
vt 0.375000 0.250000
vt 0.625000 0.500000
vt 0.375000 0.500000
vt 0.625000 0.750000
vt 0.375000 0.750000
vt 0.625000 1.000000
vt 0.375000 1.000000
vt 0.875000 0.000000
vt 0.875000 0.250000
vt 0.125000 0.000000
vt 0.125000 0.250000
vt 0.407016 0.000000
vt 0.407016 1.000000
vt 0.407016 0.750000
vt 0.407016 0.500000
vt 0.407016 0.250000
vt 0.397169 0.000000
vt 0.397169 1.000000
vt 0.397169 0.750000
vt 0.397169 0.500000
vt 0.397169 0.250000
vn -0.999586 0.000000 0.028774
vn -0.999586 0.000000 0.028774
vn -1.000000 0.000000 0.000000
vn -1.000000 0.000000 0.000000
vn 0.000000 1.000000 0.000000
vn 0.000000 1.000000 0.000001
vn 0.000000 1.000000 0.000000
vn 0.000000 1.000000 0.000000
vn 1.000000 0.000000 0.000493
vn 1.000000 0.000000 0.000493
vn 1.000000 0.000000 0.000000
vn 1.000000 0.000000 0.000000
vn 0.000000 -1.000000 -0.000001
vn 0.000000 -1.000000 -0.000000
vn 0.000000 -1.000000 0.000000
vn 0.000000 -1.000000 0.000000
vn 0.000000 0.000000 1.000000
vn 0.000000 0.000000 1.000000
vn 0.000000 0.000000 1.000000
vn 0.000000 0.000000 1.000000
vn -0.827340 -0.331167 -0.453693
vn -0.827340 -0.331167 -0.453693
vn -0.827340 -0.331167 -0.453693
vn -0.827340 -0.331167 -0.453693
vn 0.000000 -1.000000 -0.000008
vn 0.000000 -1.000000 -0.000008
vn 0.803834 0.040585 -0.593468
vn 0.803834 0.040585 -0.593468
vn 0.000000 1.000000 0.000003
vn 0.000000 1.000000 0.000001
vn -0.691735 -0.038121 0.721144
vn -0.691735 -0.038121 0.721144
vn 0.000000 -1.000000 -0.000008
vn 0.000000 -1.000000 -0.000008
vn 0.671179 0.050399 -0.739580
vn 0.671179 0.050399 -0.739580
vn 0.000000 1.000000 0.000000
vn 0.000000 1.000000 0.000000
vn -0.727274 -0.063550 0.683399
vn -0.727274 -0.063550 0.683399
s 1
g pCube39 polySurface48
usemtl initialShadingGroup
f 20/33/25 17/29/26 10/16/27 12/17/28
s 2
f 19/32/29 20/33/30 12/17/31 14/19/32
s 3
f 18/31/33 19/32/34 14/19/35 16/21/36
s 4
f 17/30/37 18/31/38 16/21/39 10/23/40
s off
f 10/16/41 16/25/42 14/26/43 12/17/44
f 15/27/45 9/15/46 11/18/47 13/28/48
s 4
f 21/35/49 22/36/50 18/31/38 17/30/37
s 3
f 22/36/51 23/37/52 19/32/34 18/31/33
s 2
f 23/37/53 24/38/54 20/33/30 19/32/29
s 1
f 24/38/55 21/34/56 17/29/26 20/33/25
s 4
f 15/22/57 22/36/50 21/35/49 9/24/58
s 3
f 13/20/59 23/37/52 22/36/51 15/22/60
s 2
f 11/18/61 24/38/54 23/37/53 13/20/62
s 1
f 9/15/63 21/34/56 24/38/55 11/18/64
g default
v 1.342450 1.598225 0.292274
v 1.141985 1.598225 0.292274
v 1.342450 1.628572 0.292274
v 1.141985 1.628572 0.292274
v 1.342450 1.628572 0.319460
v 1.141985 1.628572 0.319460
v 1.342450 1.598225 0.319460
v 1.141985 1.598225 0.319460
vt 0.375000 0.000000
vt 0.625000 0.000000
vt 0.625000 0.250000
vt 0.375000 0.250000
vt 0.625000 0.500000
vt 0.375000 0.500000
vt 0.625000 0.750000
vt 0.375000 0.750000
vt 0.625000 1.000000
vt 0.375000 1.000000
vt 0.875000 0.000000
vt 0.875000 0.250000
vt 0.125000 0.000000
vt 0.125000 0.250000
vn 0.000000 0.000000 -1.000000
vn 0.000000 0.000000 -1.000000
vn 0.000000 0.000000 -1.000000
vn 0.000000 0.000000 -1.000000
vn 0.000000 1.000000 0.000000
vn 0.000000 1.000000 0.000000
vn 0.000000 1.000000 0.000000
vn 0.000000 1.000000 0.000000
vn 0.000000 0.000000 1.000000
vn 0.000000 0.000000 1.000000
vn 0.000000 0.000000 1.000000
vn 0.000000 0.000000 1.000000
vn 0.000000 -1.000000 0.000000
vn 0.000000 -1.000000 0.000000
vn 0.000000 -1.000000 0.000000
vn 0.000000 -1.000000 0.000000
vn -1.000000 0.000000 0.000000
vn -1.000000 0.000000 0.000000
vn -1.000000 0.000000 0.000000
vn -1.000000 0.000000 0.000000
vn 1.000000 0.000000 0.000000
vn 1.000000 0.000000 0.000000
vn 1.000000 0.000000 0.000000
vn 1.000000 0.000000 0.000000
s off
g pCube39 polySurface49
usemtl initialShadingGroup
f 25/39/65 26/40/66 28/41/67 27/42/68
f 27/42/69 28/41/70 30/43/71 29/44/72
f 29/44/73 30/43/74 32/45/75 31/46/76
f 31/46/77 32/45/78 26/47/79 25/48/80
f 26/40/81 32/49/82 30/50/83 28/41/84
f 31/51/85 25/39/86 27/42/87 29/52/88
g default
v 1.281366 1.598225 0.560752
v 1.281366 1.598225 0.360287
v 1.281366 1.628572 0.560752
v 1.281366 1.628572 0.360287
v 1.254180 1.628572 0.560752
v 1.254180 1.628572 0.360287
v 1.254180 1.598225 0.560752
v 1.254180 1.598225 0.360287
vt 0.375000 0.000000
vt 0.625000 0.000000
vt 0.625000 0.250000
vt 0.375000 0.250000
vt 0.625000 0.500000
vt 0.375000 0.500000
vt 0.625000 0.750000
vt 0.375000 0.750000
vt 0.625000 1.000000
vt 0.375000 1.000000
vt 0.875000 0.000000
vt 0.875000 0.250000
vt 0.125000 0.000000
vt 0.125000 0.250000
vn 1.000000 0.000000 0.000000
vn 1.000000 0.000000 0.000000
vn 1.000000 0.000000 0.000000
vn 1.000000 0.000000 0.000000
vn 0.000000 1.000000 0.000000
vn 0.000000 1.000000 0.000000
vn 0.000000 1.000000 0.000000
vn 0.000000 1.000000 0.000000
vn -1.000000 0.000000 0.000000
vn -1.000000 0.000000 0.000000
vn -1.000000 0.000000 0.000000
vn -1.000000 0.000000 0.000000
vn 0.000000 -1.000000 0.000000
vn 0.000000 -1.000000 0.000000
vn 0.000000 -1.000000 0.000000
vn 0.000000 -1.000000 0.000000
vn 0.000000 0.000000 -1.000000
vn 0.000000 0.000000 -1.000000
vn 0.000000 0.000000 -1.000000
vn 0.000000 0.000000 -1.000000
vn 0.000000 0.000000 1.000000
vn 0.000000 0.000000 1.000000
vn 0.000000 0.000000 1.000000
vn 0.000000 0.000000 1.000000
s off
g pCube39 polySurface50
usemtl initialShadingGroup
f 33/53/89 34/54/90 36/55/91 35/56/92
f 35/56/93 36/55/94 38/57/95 37/58/96
f 37/58/97 38/57/98 40/59/99 39/60/100
f 39/60/101 40/59/102 34/61/103 33/62/104
f 34/54/105 40/63/106 38/64/107 36/55/108
f 39/65/109 33/53/110 35/56/111 37/66/112
