# This file uses centimeters as units for non-parametric coordinates.

mtllib Ruchka4.mtl
g default
v -0.022366 1.071103 0.463635
v -0.022366 1.089767 0.463635
v 0.039854 1.133323 0.463635
v 0.021190 1.133323 0.463635
v 0.021190 1.027546 0.463635
v 0.039854 1.027546 0.463635
v 0.083411 1.071103 0.463635
v 0.083411 1.089767 0.463635
v -0.011102 1.085101 0.551629
v -0.022366 1.089767 0.540365
v 0.025856 1.122059 0.551629
v 0.021190 1.133323 0.540365
v -0.011102 1.075768 0.551629
v -0.022366 1.071103 0.540365
v 0.035189 1.122059 0.551629
v 0.039854 1.133323 0.540365
v 0.035189 1.038810 0.551629
v 0.039854 1.027546 0.540365
v 0.072147 1.075768 0.551629
v 0.083411 1.071103 0.540365
v 0.025856 1.038810 0.551629
v 0.021190 1.027546 0.540365
v 0.072147 1.085101 0.551629
v 0.083411 1.089767 0.540365
v 0.086665 1.100687 0.452393
v 0.078298 1.117108 0.452393
v 0.065266 1.130140 0.452393
v 0.048845 1.138507 0.452393
v 0.030642 1.141390 0.452393
v 0.012439 1.138507 0.452393
v -0.003982 1.130140 0.452393
v -0.017014 1.117108 0.452393
v -0.025381 1.100687 0.452393
v -0.028264 1.082484 0.452393
v -0.025381 1.064281 0.452393
v -0.017014 1.047860 0.452393
v -0.003982 1.034828 0.452393
v 0.012439 1.026461 0.452393
v 0.030642 1.023578 0.452393
v 0.048845 1.026461 0.452393
v 0.065266 1.034828 0.452393
v 0.078298 1.047860 0.452393
v 0.086665 1.064281 0.452393
v 0.089548 1.082484 0.452393
v 0.086665 1.100687 0.494937
v 0.078298 1.117108 0.494937
v 0.065266 1.130140 0.494937
v 0.048845 1.138507 0.494937
v 0.030642 1.141390 0.494937
v 0.012439 1.138507 0.494937
v -0.003982 1.130140 0.494937
v -0.017014 1.117108 0.494937
v -0.025381 1.100687 0.494937
v -0.028264 1.082484 0.494937
v -0.025381 1.064281 0.494937
v -0.017014 1.047860 0.494937
v -0.003982 1.034828 0.494937
v 0.012439 1.026461 0.494937
v 0.030642 1.023578 0.494937
v 0.048845 1.026461 0.494937
v 0.065266 1.034828 0.494937
v 0.078298 1.047860 0.494937
v 0.086665 1.064281 0.494937
v 0.089548 1.082484 0.494937
v 0.030642 1.082484 0.452393
v 0.030642 1.082484 0.494937
vt 0.625000 0.537497
vt 0.375000 0.712504
vt 0.375000 0.254105
vt 0.425752 0.217998
vt 0.574248 0.217998
vt 0.657002 0.212503
vt 0.592998 0.199248
vt 0.425752 1.000000
vt 0.574248 1.000000
vt 0.412496 0.000000
vt 0.425752 0.032002
vt 0.342998 0.037496
vt 0.587504 0.000000
vt 0.592998 0.050752
vt 0.412496 0.500000
vt 0.587504 0.282002
vt 0.412496 0.967998
vt 0.587504 0.750000
vt 0.657002 0.037496
vt 0.875000 0.037496
vt 0.875000 0.212503
vt 0.125000 0.037496
vt 0.342998 0.212503
vt 0.125000 0.212503
vt 0.407002 0.050752
vt 0.574248 0.032002
vt 0.407002 0.199248
vt 0.412496 0.282002
vt 0.375000 0.537497
vt 0.625000 0.254105
vt 0.587504 0.500000
vt 0.375000 0.963198
vt 0.412496 0.750000
vt 0.625000 0.963198
vt 0.587504 0.967998
vt 0.625000 0.712504
vt 0.375000 0.312500
vt 0.387500 0.312500
vt 0.387500 0.688440
vt 0.375000 0.688440
vt 0.400000 0.312500
vt 0.400000 0.688440
vt 0.412500 0.312500
vt 0.412500 0.688440
vt 0.425000 0.312500
vt 0.425000 0.688440
vt 0.437500 0.312500
vt 0.437500 0.688440
vt 0.450000 0.312500
vt 0.450000 0.688440
vt 0.462500 0.312500
vt 0.462500 0.688440
vt 0.475000 0.312500
vt 0.475000 0.688440
vt 0.487500 0.312500
vt 0.487500 0.688440
vt 0.500000 0.312500
vt 0.500000 0.688440
vt 0.512500 0.312500
vt 0.512500 0.688440
vt 0.525000 0.312500
vt 0.525000 0.688440
vt 0.537500 0.312500
vt 0.537500 0.688440
vt 0.550000 0.312500
vt 0.550000 0.688440
vt 0.562500 0.312500
vt 0.562500 0.688440
vt 0.575000 0.312500
vt 0.575000 0.688440
vt 0.587500 0.312500
vt 0.587500 0.688440
vt 0.600000 0.312500
vt 0.600000 0.688440
vt 0.612500 0.312500
vt 0.612500 0.688440
vt 0.625000 0.312500
vt 0.625000 0.688440
vt 0.626409 0.064408
vt 0.648603 0.107966
vt 0.500000 0.150000
vt 0.591842 0.029841
vt 0.548284 0.007647
vt 0.500000 -0.000000
vt 0.451716 0.007647
vt 0.408159 0.029841
vt 0.373591 0.064409
vt 0.351397 0.107966
vt 0.343750 0.156250
vt 0.351397 0.204534
vt 0.373591 0.248091
vt 0.408159 0.282659
vt 0.451716 0.304853
vt 0.500000 0.312500
vt 0.548284 0.304853
vt 0.591841 0.282659
vt 0.626409 0.248091
vt 0.648603 0.204534
vt 0.656250 0.156250
vt 0.648603 0.892034
vt 0.626409 0.935591
vt 0.500000 0.837500
vt 0.591841 0.970159
vt 0.548284 0.992353
vt 0.500000 1.000000
vt 0.451716 0.992353
vt 0.408159 0.970159
vt 0.373591 0.935591
vt 0.351397 0.892034
vt 0.343750 0.843750
vt 0.351397 0.795466
vt 0.373591 0.751909
vt 0.408159 0.717341
vt 0.451716 0.695147
vt 0.500000 0.687500
vt 0.548284 0.695147
vt 0.591842 0.717341
vt 0.626409 0.751908
vt 0.648603 0.795466
vt 0.656250 0.843750
vn -0.000000 0.000000 -1.000000
vn -0.000000 0.000000 -1.000000
vn -0.000000 0.000000 -1.000000
vn -0.000000 0.000000 -1.000000
vn -0.000000 0.000000 -1.000000
vn -0.000000 0.000000 -1.000000
vn -0.000000 0.000000 -1.000000
vn -0.000000 0.000000 -1.000000
vn -0.707105 0.000000 0.707109
vn -0.707105 0.000000 0.707109
vn -0.707105 0.000000 0.707109
vn -0.707105 0.000000 0.707109
vn -0.499999 0.499998 0.707109
vn -0.499999 0.499998 0.707109
vn -0.499999 0.499998 0.707109
vn -0.499999 0.499998 0.707109
vn 0.000001 0.707103 0.707110
vn 0.000001 0.707103 0.707110
vn 0.000001 0.707103 0.707110
vn 0.000001 0.707103 0.707110
vn -0.500003 -0.500003 0.707103
vn -0.500003 -0.500003 0.707103
vn -0.500003 -0.500003 0.707103
vn -0.500003 -0.500003 0.707103
vn 0.500001 0.500001 0.707105
vn 0.500001 0.500001 0.707105
vn 0.500001 0.500001 0.707105
vn 0.500001 0.500001 0.707105
vn 0.500008 -0.500008 0.707095
vn 0.500008 -0.500008 0.707095
vn 0.500008 -0.500008 0.707095
vn 0.500008 -0.500008 0.707095
vn 0.000000 -0.707111 0.707102
vn 0.000000 -0.707111 0.707102
vn 0.000000 -0.707111 0.707102
vn 0.000000 -0.707111 0.707102
vn 0.707112 0.000000 0.707102
vn 0.707112 0.000000 0.707102
vn 0.707112 0.000000 0.707102
vn 0.707112 0.000000 0.707102
vn -0.707107 0.707107 0.000000
vn -0.707107 0.707107 0.000000
vn -0.707107 0.707107 0.000000
vn -0.707107 0.707107 0.000000
vn 0.707107 -0.707107 0.000000
vn 0.707107 -0.707107 0.000000
vn 0.707107 -0.707107 0.000000
vn 0.707107 -0.707107 0.000000
vn 0.707107 0.707107 0.000000
vn 0.707107 0.707107 0.000000
vn 0.707107 0.707107 0.000000
vn 0.707107 0.707107 0.000000
vn -0.707107 -0.707107 0.000000
vn -0.707107 -0.707107 0.000000
vn -0.707107 -0.707107 0.000000
vn -0.707107 -0.707107 0.000000
vn 0.000001 0.000000 1.000000
vn 0.000001 0.000000 1.000000
vn 0.000001 0.000000 1.000000
vn 0.000001 0.000000 1.000000
vn 0.000001 0.000000 1.000000
vn 0.000001 0.000000 1.000000
vn 0.000001 0.000000 1.000000
vn 0.000001 0.000000 1.000000
vn -1.000000 -0.000004 0.000000
vn -1.000000 -0.000004 0.000000
vn -1.000000 -0.000004 0.000000
vn -1.000000 -0.000004 0.000000
vn 0.000006 1.000000 0.000000
vn 0.000006 1.000000 0.000000
vn 0.000006 1.000000 0.000000
vn 0.000006 1.000000 0.000000
vn 0.000000 -1.000000 0.000000
vn 0.000000 -1.000000 0.000000
vn 0.000000 -1.000000 0.000000
vn 0.000000 -1.000000 0.000000
vn 1.000000 -0.000003 0.000000
vn 1.000000 -0.000003 0.000000
vn 1.000000 -0.000003 0.000000
vn 1.000000 -0.000003 0.000000
vn 0.951057 0.309016 0.000000
vn 0.809016 0.587786 0.000000
vn 0.809016 0.587786 0.000000
vn 0.951057 0.309016 0.000000
vn 0.587784 0.809018 0.000000
vn 0.587784 0.809018 0.000000
vn 0.309014 0.951058 0.000000
vn 0.309014 0.951058 0.000000
vn 0.000000 1.000000 0.000000
vn 0.000000 1.000000 0.000000
vn -0.309014 0.951058 0.000000
vn -0.309014 0.951058 0.000000
vn -0.587785 0.809018 0.000000
vn -0.587785 0.809018 0.000000
vn -0.809017 0.587786 0.000000
vn -0.809017 0.587786 0.000000
vn -0.951057 0.309016 0.000000
vn -0.951057 0.309016 0.000000
vn -1.000000 0.000000 0.000000
vn -1.000000 0.000000 0.000000
vn -0.951057 -0.309016 0.000000
vn -0.951057 -0.309016 0.000000
vn -0.809017 -0.587786 0.000000
vn -0.809017 -0.587786 0.000000
vn -0.587784 -0.809018 0.000000
vn -0.587784 -0.809018 0.000000
vn -0.309014 -0.951058 0.000000
vn -0.309014 -0.951058 0.000000
vn 0.000000 -1.000000 0.000000
vn 0.000000 -1.000000 0.000000
vn 0.309014 -0.951058 0.000000
vn 0.309014 -0.951058 0.000000
vn 0.587785 -0.809018 0.000000
vn 0.587785 -0.809018 0.000000
vn 0.809018 -0.587784 0.000000
vn 0.809018 -0.587784 0.000000
vn 0.951057 -0.309017 0.000000
vn 0.951057 -0.309017 0.000000
vn 1.000000 -0.000001 0.000000
vn 1.000000 -0.000001 0.000000
vn 0.000000 0.000000 -1.000000
vn 0.000000 0.000000 -1.000000
vn -0.000000 0.000000 -1.000000
vn 0.000000 0.000000 -1.000000
vn 0.000000 0.000000 -1.000000
vn 0.000000 0.000000 -1.000000
vn 0.000001 0.000000 -1.000000
vn 0.000001 0.000000 -1.000000
vn 0.000000 0.000000 -1.000000
vn 0.000000 0.000000 -1.000000
vn 0.000000 0.000000 -1.000000
vn 0.000000 0.000000 -1.000000
vn 0.000000 0.000000 -1.000000
vn 0.000000 0.000000 -1.000000
vn 0.000000 0.000000 -1.000000
vn 0.000000 0.000000 -1.000000
vn -0.000001 0.000000 -1.000000
vn -0.000001 0.000000 -1.000000
vn -0.000000 0.000000 -1.000000
vn -0.000000 0.000000 -1.000000
vn 0.000000 0.000000 -1.000000
vn 0.000000 0.000000 1.000000
vn 0.000001 0.000000 1.000000
vn 0.000000 0.000000 1.000000
vn 0.000001 0.000000 1.000000
vn 0.000000 0.000000 1.000000
vn 0.000000 0.000000 1.000000
vn 0.000000 0.000000 1.000000
vn 0.000000 0.000000 1.000000
vn 0.000000 0.000000 1.000000
vn 0.000000 0.000000 1.000000
vn 0.000000 0.000000 1.000000
vn 0.000000 0.000000 1.000000
vn -0.000001 0.000000 1.000000
vn -0.000001 0.000000 1.000000
vn 0.000000 0.000000 1.000000
vn 0.000000 0.000000 1.000000
vn 0.000000 0.000000 1.000000
vn 0.000000 0.000000 1.000000
vn 0.000000 0.000000 1.000000
vn 0.000000 0.000000 1.000000
vn 0.000000 0.000000 1.000000
s off
g pCube67
usemtl initialShadingGroup
f 1/29/1 2/15/2 4/31/3 3/1/4 8/36/5 7/18/6 6/33/7 5/2/8
f 9/4/9 10/28/10 14/3/11 13/27/12
f 10/28/13 9/4/14 11/5/15 12/16/16
f 12/16/17 11/5/18 15/7/19 16/6/20
f 13/27/21 14/23/22 22/12/23 21/25/24
f 16/6/25 15/7/26 23/14/27 24/19/28
f 17/8/29 18/17/30 20/35/31 19/9/32
f 18/10/33 17/11/34 21/25/35 22/12/36
f 19/26/37 20/13/38 24/19/39 23/14/40
f 2/15/41 10/28/42 12/16/43 4/31/44
f 18/17/45 6/33/46 7/18/47 20/35/48
f 24/19/49 8/20/50 3/21/51 16/6/52
f 5/22/53 22/12/54 14/23/55 1/24/56
f 21/25/57 17/11/58 19/26/59 23/14/60 15/7/61 11/5/62 9/4/63 13/27/64
f 14/3/65 10/28/66 2/15/67 1/29/68
f 12/16/69 16/30/70 3/1/71 4/31/72
f 18/17/73 22/32/74 5/2/75 6/33/76
f 24/34/77 20/35/78 7/18/79 8/36/80
s 1
f 25/37/81 26/38/82 46/39/83 45/40/84
f 26/38/82 27/41/85 47/42/86 46/39/83
f 27/41/85 28/43/87 48/44/88 47/42/86
f 28/43/87 29/45/89 49/46/90 48/44/88
f 29/45/89 30/47/91 50/48/92 49/46/90
f 30/47/91 31/49/93 51/50/94 50/48/92
f 31/49/93 32/51/95 52/52/96 51/50/94
f 32/51/95 33/53/97 53/54/98 52/52/96
f 33/53/97 34/55/99 54/56/100 53/54/98
f 34/55/99 35/57/101 55/58/102 54/56/100
f 35/57/101 36/59/103 56/60/104 55/58/102
f 36/59/103 37/61/105 57/62/106 56/60/104
f 37/61/105 38/63/107 58/64/108 57/62/106
f 38/63/107 39/65/109 59/66/110 58/64/108
f 39/65/109 40/67/111 60/68/112 59/66/110
f 40/67/111 41/69/113 61/70/114 60/68/112
f 41/69/113 42/71/115 62/72/116 61/70/114
f 42/71/115 43/73/117 63/74/118 62/72/116
f 43/73/117 44/75/119 64/76/120 63/74/118
f 44/75/119 25/77/81 45/78/84 64/76/120
s 2
f 26/79/121 25/80/122 65/81/123
f 27/82/124 26/79/121 65/81/123
f 28/83/125 27/82/124 65/81/123
f 29/84/126 28/83/125 65/81/123
f 30/85/127 29/84/126 65/81/123
f 31/86/128 30/85/127 65/81/123
f 32/87/129 31/86/128 65/81/123
f 33/88/130 32/87/129 65/81/123
f 34/89/131 33/88/130 65/81/123
f 35/90/132 34/89/131 65/81/123
f 36/91/133 35/90/132 65/81/123
f 37/92/134 36/91/133 65/81/123
f 38/93/135 37/92/134 65/81/123
f 39/94/136 38/93/135 65/81/123
f 40/95/137 39/94/136 65/81/123
f 41/96/138 40/95/137 65/81/123
f 42/97/139 41/96/138 65/81/123
f 43/98/140 42/97/139 65/81/123
f 44/99/141 43/98/140 65/81/123
f 25/80/122 44/99/141 65/81/123
s 3
f 45/100/142 46/101/143 66/102/144
f 46/101/143 47/103/145 66/102/144
f 47/103/145 48/104/146 66/102/144
f 48/104/146 49/105/147 66/102/144
f 49/105/147 50/106/148 66/102/144
f 50/106/148 51/107/149 66/102/144
f 51/107/149 52/108/150 66/102/144
f 52/108/150 53/109/151 66/102/144
f 53/109/151 54/110/152 66/102/144
f 54/110/152 55/111/153 66/102/144
f 55/111/153 56/112/154 66/102/144
f 56/112/154 57/113/155 66/102/144
f 57/113/155 58/114/156 66/102/144
f 58/114/156 59/115/157 66/102/144
f 59/115/157 60/116/158 66/102/144
f 60/116/158 61/117/159 66/102/144
f 61/117/159 62/118/160 66/102/144
f 62/118/160 63/119/161 66/102/144
f 63/119/161 64/120/162 66/102/144
f 64/120/162 45/100/142 66/102/144
