# This file uses centimeters as units for non-parametric coordinates.

mtllib Ruchka3_2.mtl
g default
v -0.397335 1.509136 0.285402
v -0.400337 1.509662 0.287987
v -0.403724 1.509125 0.290039
v -0.407166 1.507578 0.291357
v -0.410325 1.505171 0.291811
v -0.412891 1.502141 0.291357
v -0.414614 1.498784 0.290039
v -0.415326 1.495429 0.287987
v -0.414955 1.492404 0.285402
v -0.413539 1.490005 0.282535
v -0.411217 1.488467 0.279669
v -0.408215 1.487941 0.277083
v -0.404827 1.488478 0.275031
v -0.401386 1.490025 0.273714
v -0.398227 1.492432 0.273260
v -0.395661 1.495462 0.273714
v -0.393937 1.498819 0.275031
v -0.393226 1.502174 0.277083
v -0.393597 1.505199 0.279669
v -0.395012 1.507598 0.282535
v -0.328858 1.437026 0.379576
v -0.331860 1.437552 0.382161
v -0.335247 1.437015 0.384214
v -0.338689 1.435468 0.385531
v -0.341847 1.433061 0.385985
v -0.344414 1.430031 0.385531
v -0.346137 1.426674 0.384214
v -0.346848 1.423319 0.382161
v -0.346478 1.420293 0.379576
v -0.345062 1.417895 0.376710
v -0.342740 1.416357 0.373843
v -0.339738 1.415831 0.371257
v -0.336350 1.416368 0.369205
v -0.332909 1.417915 0.367888
v -0.329750 1.420322 0.367434
v -0.327184 1.423352 0.367888
v -0.325460 1.426709 0.369205
v -0.324749 1.430064 0.371257
v -0.325120 1.433089 0.373843
v -0.326535 1.435488 0.376710
v -0.404276 1.498802 0.282535
v -0.335799 1.426691 0.376710
vt 0.375000 0.312500
vt 0.387500 0.312500
vt 0.387500 0.688440
vt 0.375000 0.688440
vt 0.400000 0.312500
vt 0.400000 0.688440
vt 0.412500 0.312500
vt 0.412500 0.688440
vt 0.425000 0.312500
vt 0.425000 0.688440
vt 0.437500 0.312500
vt 0.437500 0.688440
vt 0.450000 0.312500
vt 0.450000 0.688440
vt 0.462500 0.312500
vt 0.462500 0.688440
vt 0.475000 0.312500
vt 0.475000 0.688440
vt 0.487500 0.312500
vt 0.487500 0.688440
vt 0.500000 0.312500
vt 0.500000 0.688440
vt 0.512500 0.312500
vt 0.512500 0.688440
vt 0.525000 0.312500
vt 0.525000 0.688440
vt 0.537500 0.312500
vt 0.537500 0.688440
vt 0.550000 0.312500
vt 0.550000 0.688440
vt 0.562500 0.312500
vt 0.562500 0.688440
vt 0.575000 0.312500
vt 0.575000 0.688440
vt 0.587500 0.312500
vt 0.587500 0.688440
vt 0.600000 0.312500
vt 0.600000 0.688440
vt 0.612500 0.312500
vt 0.612500 0.688440
vt 0.625000 0.312500
vt 0.625000 0.688440
vt 0.626409 0.064408
vt 0.648603 0.107966
vt 0.500000 0.150000
vt 0.591842 0.029841
vt 0.548284 0.007647
vt 0.500000 -0.000000
vt 0.451716 0.007647
vt 0.408159 0.029841
vt 0.373591 0.064409
vt 0.351397 0.107966
vt 0.343750 0.156250
vt 0.351397 0.204534
vt 0.373591 0.248091
vt 0.408159 0.282659
vt 0.451716 0.304853
vt 0.500000 0.312500
vt 0.548284 0.304853
vt 0.591841 0.282659
vt 0.626409 0.248091
vt 0.648603 0.204534
vt 0.656250 0.156250
vt 0.648603 0.892034
vt 0.626409 0.935591
vt 0.500000 0.837500
vt 0.591841 0.970159
vt 0.548284 0.992353
vt 0.500000 1.000000
vt 0.451716 0.992353
vt 0.408159 0.970159
vt 0.373591 0.935591
vt 0.351397 0.892034
vt 0.343750 0.843750
vt 0.351397 0.795466
vt 0.373591 0.751909
vt 0.408159 0.717341
vt 0.451716 0.695147
vt 0.500000 0.687500
vt 0.548284 0.695147
vt 0.591842 0.717341
vt 0.626409 0.751908
vt 0.648603 0.795466
vt 0.656250 0.843750
vn 0.543327 0.808982 0.224375
vn 0.308342 0.850169 0.426776
vn 0.308341 0.850169 0.426776
vn 0.543327 0.808982 0.224375
vn 0.043171 0.808132 0.587417
vn 0.043170 0.808132 0.587418
vn -0.226234 0.686993 0.690549
vn -0.226233 0.686994 0.690549
vn -0.473492 0.498616 0.726077
vn -0.473491 0.498616 0.726077
vn -0.674397 0.261426 0.690540
vn -0.674397 0.261426 0.690539
vn -0.809285 -0.001364 0.587415
vn -0.809285 -0.001364 0.587415
vn -0.864954 -0.264014 0.426791
vn -0.864954 -0.264014 0.426791
vn -0.835963 -0.500821 0.224375
vn -0.835963 -0.500821 0.224374
vn -0.725137 -0.688604 -0.000007
vn -0.725138 -0.688604 -0.000007
vn -0.543327 -0.808982 -0.224375
vn -0.543329 -0.808981 -0.224374
vn -0.308333 -0.850169 -0.426783
vn -0.308333 -0.850169 -0.426782
vn -0.043171 -0.808136 -0.587411
vn -0.043170 -0.808136 -0.587412
vn 0.226232 -0.686997 -0.690546
vn 0.226233 -0.686997 -0.690546
vn 0.473486 -0.498610 -0.726085
vn 0.473486 -0.498610 -0.726085
vn 0.674395 -0.261418 -0.690545
vn 0.674395 -0.261418 -0.690545
vn 0.809293 0.001372 -0.587403
vn 0.809293 0.001370 -0.587404
vn 0.864960 0.264013 -0.426779
vn 0.864961 0.264013 -0.426779
vn 0.835963 0.500818 -0.224382
vn 0.835963 0.500819 -0.224381
vn 0.725137 0.688605 -0.000000
vn 0.725137 0.688605 -0.000000
vn -0.499985 0.526510 -0.687606
vn -0.499979 0.526504 -0.687615
vn -0.499985 0.526510 -0.687607
vn -0.499984 0.526509 -0.687608
vn -0.499976 0.526512 -0.687611
vn -0.499979 0.526511 -0.687610
vn -0.499999 0.526522 -0.687587
vn -0.500003 0.526529 -0.687578
vn -0.499990 0.526515 -0.687599
vn -0.499979 0.526505 -0.687615
vn -0.499979 0.526501 -0.687618
vn -0.499982 0.526506 -0.687612
vn -0.499985 0.526505 -0.687610
vn -0.499975 0.526508 -0.687615
vn -0.499982 0.526511 -0.687607
vn -0.499988 0.526508 -0.687606
vn -0.499972 0.526496 -0.687627
vn -0.499996 0.526508 -0.687600
vn -0.500002 0.526524 -0.687583
vn -0.499981 0.526510 -0.687609
vn -0.499975 0.526504 -0.687618
vn 0.499996 -0.526509 0.687598
vn 0.499990 -0.526507 0.687605
vn 0.499981 -0.526507 0.687611
vn 0.499983 -0.526506 0.687611
vn 0.499987 -0.526516 0.687600
vn 0.499974 -0.526507 0.687617
vn 0.499969 -0.526500 0.687626
vn 0.499975 -0.526509 0.687614
vn 0.499966 -0.526498 0.687629
vn 0.499976 -0.526502 0.687619
vn 0.499977 -0.526506 0.687615
vn 0.499978 -0.526505 0.687616
vn 0.499981 -0.526518 0.687603
vn 0.499973 -0.526519 0.687608
vn 0.499977 -0.526515 0.687609
vn 0.499980 -0.526518 0.687604
vn 0.499991 -0.526516 0.687597
vn 0.499991 -0.526498 0.687611
vn 0.499989 -0.526500 0.687611
vn 0.499983 -0.526502 0.687614
vn 0.499983 -0.526499 0.687616
s 1
g polySurface22 pCylinder48
usemtl initialShadingGroup
f 1/1/1 2/2/2 22/3/3 21/4/4
f 2/2/2 3/5/5 23/6/6 22/3/3
f 3/5/5 4/7/7 24/8/8 23/6/6
f 4/7/7 5/9/9 25/10/10 24/8/8
f 5/9/9 6/11/11 26/12/12 25/10/10
f 6/11/11 7/13/13 27/14/14 26/12/12
f 7/13/13 8/15/15 28/16/16 27/14/14
f 8/15/15 9/17/17 29/18/18 28/16/16
f 9/17/17 10/19/19 30/20/20 29/18/18
f 10/19/19 11/21/21 31/22/22 30/20/20
f 11/21/21 12/23/23 32/24/24 31/22/22
f 12/23/23 13/25/25 33/26/26 32/24/24
f 13/25/25 14/27/27 34/28/28 33/26/26
f 14/27/27 15/29/29 35/30/30 34/28/28
f 15/29/29 16/31/31 36/32/32 35/30/30
f 16/31/31 17/33/33 37/34/34 36/32/32
f 17/33/33 18/35/35 38/36/36 37/34/34
f 18/35/35 19/37/37 39/38/38 38/36/36
f 19/37/37 20/39/39 40/40/40 39/38/38
f 20/39/39 1/41/1 21/42/4 40/40/40
s 2
f 2/43/41 1/44/42 41/45/43
f 3/46/44 2/43/41 41/45/43
f 4/47/45 3/46/44 41/45/43
f 5/48/46 4/47/45 41/45/43
f 6/49/47 5/48/46 41/45/43
f 7/50/48 6/49/47 41/45/43
f 8/51/49 7/50/48 41/45/43
f 9/52/50 8/51/49 41/45/43
f 10/53/51 9/52/50 41/45/43
f 11/54/52 10/53/51 41/45/43
f 12/55/53 11/54/52 41/45/43
f 13/56/54 12/55/53 41/45/43
f 14/57/55 13/56/54 41/45/43
f 15/58/56 14/57/55 41/45/43
f 16/59/57 15/58/56 41/45/43
f 17/60/58 16/59/57 41/45/43
f 18/61/59 17/60/58 41/45/43
f 19/62/60 18/61/59 41/45/43
f 20/63/61 19/62/60 41/45/43
f 1/44/42 20/63/61 41/45/43
s 3
f 21/64/62 22/65/63 42/66/64
f 22/65/63 23/67/65 42/66/64
f 23/67/65 24/68/66 42/66/64
f 24/68/66 25/69/67 42/66/64
f 25/69/67 26/70/68 42/66/64
f 26/70/68 27/71/69 42/66/64
f 27/71/69 28/72/70 42/66/64
f 28/72/70 29/73/71 42/66/64
f 29/73/71 30/74/72 42/66/64
f 30/74/72 31/75/73 42/66/64
f 31/75/73 32/76/74 42/66/64
f 32/76/74 33/77/75 42/66/64
f 33/77/75 34/78/76 42/66/64
f 34/78/76 35/79/77 42/66/64
f 35/79/77 36/80/78 42/66/64
f 36/80/78 37/81/79 42/66/64
f 37/81/79 38/82/80 42/66/64
f 38/82/80 39/83/81 42/66/64
f 39/83/81 40/84/82 42/66/64
f 40/84/82 21/64/62 42/66/64
g default
v -0.373358 1.464161 0.316418
v -0.375297 1.463567 0.312973
v -0.377840 1.462142 0.310240
v -0.380740 1.460024 0.308485
v -0.383712 1.457421 0.307880
v -0.386465 1.454587 0.308485
v -0.388730 1.451801 0.310240
v -0.390285 1.449334 0.312973
v -0.390978 1.447429 0.316418
v -0.390741 1.446271 0.320236
v -0.389597 1.445974 0.324054
v -0.387659 1.446568 0.327498
v -0.385115 1.447994 0.330232
v -0.382215 1.450112 0.331987
v -0.379243 1.452715 0.332592
v -0.376490 1.455548 0.331987
v -0.374225 1.458335 0.330232
v -0.372670 1.460801 0.327498
v -0.371977 1.462707 0.324054
v -0.372214 1.463864 0.320236
v -0.464576 1.560218 0.351206
v -0.466514 1.559624 0.347762
v -0.469058 1.558199 0.345028
v -0.471958 1.556081 0.343273
v -0.474930 1.553478 0.342669
v -0.477683 1.550644 0.343273
v -0.479948 1.547858 0.345028
v -0.481503 1.545391 0.347762
v -0.482196 1.543486 0.351206
v -0.481959 1.542328 0.355024
v -0.480815 1.542031 0.358842
v -0.478876 1.542625 0.362287
v -0.476332 1.544051 0.365020
v -0.473433 1.546169 0.366775
v -0.470461 1.548772 0.367380
v -0.467708 1.551605 0.366775
v -0.465442 1.554392 0.365020
v -0.463888 1.556858 0.362287
v -0.463195 1.558764 0.358842
v -0.463432 1.559921 0.355024
v -0.381478 1.455068 0.320236
v -0.472695 1.551125 0.355024
vt 0.375000 0.312500
vt 0.387500 0.312500
vt 0.387500 0.688440
vt 0.375000 0.688440
vt 0.400000 0.312500
vt 0.400000 0.688440
vt 0.412500 0.312500
vt 0.412500 0.688440
vt 0.425000 0.312500
vt 0.425000 0.688440
vt 0.437500 0.312500
vt 0.437500 0.688440
vt 0.450000 0.312500
vt 0.450000 0.688440
vt 0.462500 0.312500
vt 0.462500 0.688440
vt 0.475000 0.312500
vt 0.475000 0.688440
vt 0.487500 0.312500
vt 0.487500 0.688440
vt 0.500000 0.312500
vt 0.500000 0.688440
vt 0.512500 0.312500
vt 0.512500 0.688440
vt 0.525000 0.312500
vt 0.525000 0.688440
vt 0.537500 0.312500
vt 0.537500 0.688440
vt 0.550000 0.312500
vt 0.550000 0.688440
vt 0.562500 0.312500
vt 0.562500 0.688440
vt 0.575000 0.312500
vt 0.575000 0.688440
vt 0.587500 0.312500
vt 0.587500 0.688440
vt 0.600000 0.312500
vt 0.600000 0.688440
vt 0.612500 0.312500
vt 0.612500 0.688440
vt 0.625000 0.312500
vt 0.625000 0.688440
vt 0.626409 0.064408
vt 0.648603 0.107966
vt 0.500000 0.150000
vt 0.591842 0.029841
vt 0.548284 0.007647
vt 0.500000 -0.000000
vt 0.451716 0.007647
vt 0.408159 0.029841
vt 0.373591 0.064409
vt 0.351397 0.107966
vt 0.343750 0.156250
vt 0.351397 0.204534
vt 0.373591 0.248091
vt 0.408159 0.282659
vt 0.451716 0.304853
vt 0.500000 0.312500
vt 0.548284 0.304853
vt 0.591841 0.282659
vt 0.626409 0.248091
vt 0.648603 0.204534
vt 0.656250 0.156250
vt 0.648603 0.892034
vt 0.626409 0.935591
vt 0.500000 0.837500
vt 0.591841 0.970159
vt 0.548284 0.992353
vt 0.500000 1.000000
vt 0.451716 0.992353
vt 0.408159 0.970159
vt 0.373591 0.935591
vt 0.351397 0.892034
vt 0.343750 0.843750
vt 0.351397 0.795466
vt 0.373591 0.751909
vt 0.408159 0.717341
vt 0.451716 0.695147
vt 0.500000 0.687500
vt 0.548284 0.695147
vt 0.591842 0.717341
vt 0.626409 0.751908
vt 0.648603 0.795466
vt 0.656250 0.843750
vn 0.635599 0.711822 -0.298869
vn 0.483840 0.665359 -0.568504
vn 0.483840 0.665359 -0.568503
vn 0.635598 0.711822 -0.298871
vn 0.284720 0.553759 -0.782487
vn 0.284718 0.553758 -0.782488
vn 0.057729 0.387965 -0.919864
vn 0.057727 0.387964 -0.919865
vn -0.174910 0.184192 -0.967202
vn -0.174911 0.184191 -0.967202
vn -0.390427 -0.037620 -0.919865
vn -0.390426 -0.037619 -0.919865
vn -0.567725 -0.255738 -0.782487
vn -0.567724 -0.255736 -0.782489
vn -0.689460 -0.448830 -0.568504
vn -0.689460 -0.448831 -0.568503
vn -0.743699 -0.597987 -0.298871
vn -0.743698 -0.597987 -0.298872
vn -0.725138 -0.688603 -0.000014
vn -0.725138 -0.688604 -0.000014
vn -0.635603 -0.711823 0.298859
vn -0.635603 -0.711823 0.298858
vn -0.483839 -0.665360 0.568503
vn -0.483838 -0.665360 0.568503
vn -0.284717 -0.553761 0.782486
vn -0.284716 -0.553761 0.782487
vn -0.057731 -0.387964 0.919865
vn -0.057730 -0.387963 0.919865
vn 0.174907 -0.184190 0.967203
vn 0.174906 -0.184191 0.967203
vn 0.390427 0.037613 0.919865
vn 0.390426 0.037612 0.919866
vn 0.567726 0.255736 0.782488
vn 0.567725 0.255734 0.782489
vn 0.689453 0.448827 0.568514
vn 0.689454 0.448828 0.568512
vn 0.743701 0.597985 0.298871
vn 0.743700 0.597984 0.298872
vn 0.725138 0.688604 -0.000016
vn 0.725138 0.688603 -0.000012
vn 0.666022 -0.701356 -0.253998
vn 0.666008 -0.701367 -0.254004
vn 0.666019 -0.701357 -0.254004
vn 0.666012 -0.701360 -0.254012
vn 0.666011 -0.701360 -0.254016
vn 0.666018 -0.701360 -0.253997
vn 0.666023 -0.701349 -0.254014
vn 0.666029 -0.701346 -0.254006
vn 0.666015 -0.701365 -0.253991
vn 0.666016 -0.701352 -0.254024
vn 0.666018 -0.701351 -0.254023
vn 0.666020 -0.701356 -0.254003
vn 0.666023 -0.701356 -0.253995
vn 0.666025 -0.701352 -0.253998
vn 0.666025 -0.701351 -0.254002
vn 0.666013 -0.701361 -0.254007
vn 0.666016 -0.701357 -0.254011
vn 0.666026 -0.701362 -0.253971
vn 0.666019 -0.701356 -0.254005
vn 0.666020 -0.701350 -0.254020
vn 0.666017 -0.701364 -0.253987
vn -0.666016 0.701359 0.254004
vn -0.666024 0.701351 0.254005
vn -0.666019 0.701356 0.254007
vn -0.666003 0.701364 0.254024
vn -0.666013 0.701356 0.254020
vn -0.666021 0.701353 0.254009
vn -0.666020 0.701347 0.254027
vn -0.666027 0.701348 0.254005
vn -0.666013 0.701368 0.253988
vn -0.666017 0.701352 0.254022
vn -0.666021 0.701354 0.254005
vn -0.666024 0.701357 0.253988
vn -0.666017 0.701352 0.254022
vn -0.666019 0.701348 0.254025
vn -0.666024 0.701351 0.254005
vn -0.666016 0.701359 0.254005
vn -0.666011 0.701364 0.254005
vn -0.666015 0.701367 0.253986
vn -0.666022 0.701352 0.254008
vn -0.666027 0.701349 0.254004
vn -0.666020 0.701362 0.253986
s 1
g pCylinder48 polySurface20
usemtl initialShadingGroup
f 43/85/83 44/86/84 64/87/85 63/88/86
f 44/86/84 45/89/87 65/90/88 64/87/85
f 45/89/87 46/91/89 66/92/90 65/90/88
f 46/91/89 47/93/91 67/94/92 66/92/90
f 47/93/91 48/95/93 68/96/94 67/94/92
f 48/95/93 49/97/95 69/98/96 68/96/94
f 49/97/95 50/99/97 70/100/98 69/98/96
f 50/99/97 51/101/99 71/102/100 70/100/98
f 51/101/99 52/103/101 72/104/102 71/102/100
f 52/103/101 53/105/103 73/106/104 72/104/102
f 53/105/103 54/107/105 74/108/106 73/106/104
f 54/107/105 55/109/107 75/110/108 74/108/106
f 55/109/107 56/111/109 76/112/110 75/110/108
f 56/111/109 57/113/111 77/114/112 76/112/110
f 57/113/111 58/115/113 78/116/114 77/114/112
f 58/115/113 59/117/115 79/118/116 78/116/114
f 59/117/115 60/119/117 80/120/118 79/118/116
f 60/119/117 61/121/119 81/122/120 80/120/118
f 61/121/119 62/123/121 82/124/122 81/122/120
f 62/123/121 43/125/83 63/126/86 82/124/122
s 2
f 44/127/123 43/128/124 83/129/125
f 45/130/126 44/127/123 83/129/125
f 46/131/127 45/130/126 83/129/125
f 47/132/128 46/131/127 83/129/125
f 48/133/129 47/132/128 83/129/125
f 49/134/130 48/133/129 83/129/125
f 50/135/131 49/134/130 83/129/125
f 51/136/132 50/135/131 83/129/125
f 52/137/133 51/136/132 83/129/125
f 53/138/134 52/137/133 83/129/125
f 54/139/135 53/138/134 83/129/125
f 55/140/136 54/139/135 83/129/125
f 56/141/137 55/140/136 83/129/125
f 57/142/138 56/141/137 83/129/125
f 58/143/139 57/142/138 83/129/125
f 59/144/140 58/143/139 83/129/125
f 60/145/141 59/144/140 83/129/125
f 61/146/142 60/145/141 83/129/125
f 62/147/143 61/146/142 83/129/125
f 43/128/124 62/147/143 83/129/125
s 3
f 63/148/144 64/149/145 84/150/146
f 64/149/145 65/151/147 84/150/146
f 65/151/147 66/152/148 84/150/146
f 66/152/148 67/153/149 84/150/146
f 67/153/149 68/154/150 84/150/146
f 68/154/150 69/155/151 84/150/146
f 69/155/151 70/156/152 84/150/146
f 70/156/152 71/157/153 84/150/146
f 71/157/153 72/158/154 84/150/146
f 72/158/154 73/159/155 84/150/146
f 73/159/155 74/160/156 84/150/146
f 74/160/156 75/161/157 84/150/146
f 75/161/157 76/162/158 84/150/146
f 76/162/158 77/163/159 84/150/146
f 77/163/159 78/164/160 84/150/146
f 78/164/160 79/165/161 84/150/146
f 79/165/161 80/166/162 84/150/146
f 80/166/162 81/167/163 84/150/146
f 81/167/163 82/168/164 84/150/146
f 82/168/164 63/148/144 84/150/146
