# This file uses centimeters as units for non-parametric coordinates.

mtllib Support_shtuka.mtl
g default
v 1.091539 1.508678 0.388709
v 1.094201 1.507576 0.388709
v 1.094201 1.508678 0.391371
v 1.094201 1.511340 0.392473
v 1.091539 1.511340 0.391371
v 1.090437 1.511340 0.388709
v 1.597470 1.508678 0.388709
v 1.598573 1.511340 0.388709
v 1.597470 1.511340 0.391371
v 1.594808 1.511340 0.392473
v 1.594808 1.508678 0.391371
v 1.594808 1.507576 0.388709
v 1.597470 1.564387 0.388709
v 1.594808 1.565489 0.388709
v 1.594808 1.564387 0.391371
v 1.594808 1.561725 0.392473
v 1.597470 1.561725 0.391371
v 1.598573 1.561725 0.388709
v 1.091539 1.564387 0.388709
v 1.090437 1.561725 0.388709
v 1.091539 1.561725 0.391371
v 1.094201 1.561725 0.392473
v 1.094201 1.564387 0.391371
v 1.094201 1.565489 0.388709
v 1.597470 1.561725 0.180610
v 1.594808 1.561725 0.179507
v 1.594808 1.564387 0.180610
v 1.594808 1.565489 0.183271
v 1.597470 1.564387 0.183271
v 1.598573 1.561725 0.183271
v 1.091539 1.561725 0.180610
v 1.090437 1.561725 0.183271
v 1.091539 1.564387 0.183271
v 1.094201 1.565489 0.183271
v 1.094201 1.564387 0.180610
v 1.094201 1.561725 0.179507
v 1.597470 1.508678 0.183271
v 1.594808 1.507576 0.183271
v 1.594808 1.508678 0.180610
v 1.594808 1.511340 0.179507
v 1.597470 1.511340 0.180610
v 1.598573 1.511340 0.183271
v 1.091539 1.508678 0.183271
v 1.090437 1.511340 0.183271
v 1.091539 1.511340 0.180610
v 1.094201 1.511340 0.179507
v 1.094201 1.508678 0.180610
v 1.094201 1.507576 0.183271
v 1.092029 1.509167 0.390882
v 1.596981 1.509167 0.390882
v 1.596981 1.563898 0.390882
v 1.092029 1.563898 0.390882
v 1.596981 1.563898 0.181099
v 1.092029 1.563898 0.181099
v 1.596981 1.509167 0.181099
v 1.092029 1.509167 0.181099
vt 0.376852 0.995581
vt 0.376852 0.016249
vt 0.623148 0.995582
vt 0.629418 0.016249
vt 0.629419 0.233751
vt 0.376852 0.233751
vt 0.623148 0.254418
vt 0.376852 0.254419
vt 0.870582 0.233751
vt 0.870582 0.016249
vt 0.376852 0.495581
vt 0.623148 0.516249
vt 0.129419 0.016249
vt 0.376852 0.516249
vt 0.376852 0.733751
vt 0.623148 0.754418
vt 0.376852 0.754418
vt 0.623148 0.016249
vt 0.623148 0.233751
vt 0.623148 0.495582
vt 0.623148 0.733751
vt 0.370581 0.016249
vt 0.370582 0.233751
vt 0.129419 0.233751
vt 0.375000 0.997324
vt 0.372324 -0.000000
vt 0.376128 -0.000000
vt 0.376128 1.000000
vt 0.373955 0.015795
vt 0.627676 -0.000000
vt 0.625000 0.997324
vt 0.626045 0.015795
vt 0.623872 1.000000
vt 0.623872 -0.000000
vt 0.625000 0.252676
vt 0.627676 0.250000
vt 0.623152 0.243181
vt 0.626045 0.234205
vt 0.372324 0.250000
vt 0.375000 0.252676
vt 0.373955 0.234205
vt 0.376848 0.243181
vt 0.625000 0.510601
vt 0.875000 0.239399
vt 0.623152 0.506819
vt 0.872324 0.250000
vt 0.625000 0.497324
vt 0.125000 0.239399
vt 0.375000 0.510601
vt 0.375000 0.497324
vt 0.127676 0.250000
vt 0.376848 0.506819
vt 0.625000 0.752676
vt 0.872324 -0.000000
vt 0.623152 0.743181
vt 0.875000 0.010601
vt 0.625000 0.739399
vt 0.127676 -0.000000
vt 0.375000 0.752676
vt 0.375000 0.739399
vt 0.125000 0.010601
vt 0.376848 0.743181
vt 0.375000 1.000000
vt 0.375000 0.000000
vt 0.625000 0.000000
vt 0.625000 1.000000
vt 0.625000 0.250000
vt 0.375000 0.250000
vt 0.625000 0.500000
vt 0.875000 0.250000
vt 0.125000 0.250000
vt 0.375000 0.500000
vt 0.625000 0.750000
vt 0.875000 0.000000
vt 0.125000 0.000000
vt 0.375000 0.750000
vn -0.002181 -0.999984 0.005288
vn -0.382290 -0.924037 0.003260
vn -0.382290 -0.924037 -0.003259
vn -0.002181 -0.999984 -0.005288
vn -0.924019 -0.382332 0.003394
vn -0.999772 -0.020690 0.005206
vn -0.999772 -0.020690 -0.005206
vn -0.924019 -0.382332 -0.003394
vn -0.002149 -0.020738 0.999783
vn -0.001418 -0.382513 0.923949
vn 0.001418 -0.382513 0.923949
vn 0.002149 -0.020738 0.999783
vn -0.001300 -0.923959 0.382488
vn 0.002181 -0.999984 0.005288
vn 0.001300 -0.923959 0.382488
vn -0.924372 -0.012507 0.381287
vn -0.924373 0.012506 0.381286
vn -0.999772 0.020690 0.005206
vn -0.381192 -0.013096 0.924403
vn -0.002149 0.020738 0.999783
vn -0.381191 0.013096 0.924404
vn 0.999772 -0.020692 0.005205
vn 0.924007 -0.382361 0.003394
vn 0.924007 -0.382360 -0.003394
vn 0.999772 -0.020692 -0.005205
vn 0.382266 -0.924046 0.003258
vn 0.002181 -0.999984 -0.005288
vn 0.382266 -0.924046 -0.003259
vn 0.381155 -0.013097 0.924418
vn 0.381154 0.013098 0.924419
vn 0.002149 0.020738 0.999783
vn 0.924390 -0.012508 0.381244
vn 0.999772 0.020691 0.005205
vn 0.924390 0.012508 0.381244
vn 0.002181 0.999984 0.005288
vn 0.382266 0.924046 0.003259
vn 0.382266 0.924046 -0.003259
vn 0.002181 0.999984 -0.005288
vn 0.924041 0.382277 0.003394
vn 0.999772 0.020691 -0.005205
vn 0.924042 0.382277 -0.003394
vn 0.001418 0.382437 0.923980
vn -0.001418 0.382437 0.923980
vn 0.001300 0.923959 0.382488
vn -0.002181 0.999984 0.005288
vn -0.001300 0.923959 0.382488
vn -0.924053 0.382249 0.003394
vn -0.924053 0.382249 -0.003394
vn -0.999772 0.020690 -0.005206
vn -0.382290 0.924037 0.003259
vn -0.002181 0.999984 -0.005288
vn -0.382290 0.924037 -0.003259
vn 0.002149 0.020738 -0.999783
vn 0.381163 0.013097 -0.924415
vn 0.381164 -0.013097 -0.924415
vn 0.002149 -0.020739 -0.999783
vn 0.924387 0.012507 -0.381251
vn 0.924387 -0.012508 -0.381251
vn 0.001300 0.923957 -0.382494
vn -0.001300 0.923957 -0.382494
vn 0.001418 0.382447 -0.923976
vn -0.002149 0.020738 -0.999783
vn -0.001418 0.382447 -0.923977
vn -0.924370 0.012507 -0.381293
vn -0.924369 -0.012507 -0.381294
vn -0.381199 0.013096 -0.924400
vn -0.002149 -0.020739 -0.999783
vn -0.381201 -0.013096 -0.924399
vn 0.001418 -0.382523 -0.923945
vn -0.001418 -0.382523 -0.923945
vn 0.001300 -0.923957 -0.382494
vn -0.001300 -0.923957 -0.382494
vn -0.887899 -0.325311 0.325282
vn -0.325269 -0.887912 0.325289
vn -0.325269 -0.325272 0.887918
vn 0.325269 -0.887946 0.325196
vn 0.887894 -0.325343 0.325263
vn 0.325242 -0.325313 0.887913
vn 0.887928 0.325238 0.325275
vn 0.325260 0.887935 0.325234
vn 0.325228 0.325220 0.887952
vn -0.325279 0.887938 0.325206
vn -0.887941 0.325216 0.325262
vn -0.325256 0.325173 0.887959
vn 0.887929 0.325225 -0.325285
vn 0.325245 0.325212 -0.887949
vn 0.325258 0.887929 -0.325252
vn -0.325273 0.325171 -0.887953
vn -0.887930 0.325237 -0.325270
vn -0.325273 0.887935 -0.325220
vn 0.887897 -0.325327 -0.325271
vn 0.325259 -0.887945 -0.325207
vn 0.325263 -0.325316 -0.887904
vn -0.325268 -0.887922 -0.325262
vn -0.887899 -0.325305 -0.325288
vn -0.325286 -0.325265 -0.887914
s 1
g polySurface17 pCube33
usemtl initialShadingGroup
f 2/1/1 1/25/2 43/59/3 48/17/4
s 2
f 1/26/5 6/22/6 44/13/7 43/58/8
s 3
f 4/2/9 3/27/10 11/34/11 10/18/12
s 1
f 3/28/13 2/1/1 12/3/14 11/33/15
s 2
f 6/22/6 5/29/16 21/41/17 20/23/18
s 3
f 5/29/19 4/2/9 22/6/20 21/41/21
s 4
f 8/4/22 7/30/23 37/54/24 42/10/25
s 1
f 7/31/26 12/3/14 38/16/27 37/53/28
s 3
f 10/18/12 9/32/29 17/38/30 16/19/31
s 4
f 9/32/32 8/4/22 18/5/33 17/38/34
s 5
f 14/7/35 13/35/36 29/47/37 28/20/38
s 4
f 13/36/39 18/5/33 30/9/40 29/46/41
s 3
f 16/19/31 15/37/42 23/42/43 22/6/20
s 5
f 15/37/44 14/7/35 24/8/45 23/42/46
s 2
f 20/23/18 19/39/47 33/51/48 32/24/49
s 5
f 19/40/50 24/8/45 34/11/51 33/50/52
s 6
f 26/12/53 25/43/54 41/57/55 40/21/56
s 4
f 25/44/57 30/9/40 42/10/25 41/56/58
s 5
f 28/20/38 27/45/59 35/52/60 34/11/51
s 6
f 27/45/61 26/12/53 36/14/62 35/52/63
s 2
f 32/24/49 31/48/64 45/61/65 44/13/7
s 6
f 31/49/66 36/14/62 46/15/67 45/60/68
f 40/21/56 39/55/69 47/62/70 46/15/67
s 1
f 39/55/71 38/16/27 48/17/4 47/62/72
s 3
f 4/2/9 10/18/12 16/19/31 22/6/20
s 5
f 24/8/45 14/7/35 28/20/38 34/11/51
s 6
f 36/14/62 26/12/53 40/21/56 46/15/67
s 1
f 48/17/4 38/16/27 12/3/14 2/1/1
s 4
f 8/4/22 42/10/25 30/9/40 18/5/33
s 2
f 44/13/7 6/22/6 20/23/18 32/24/49
f 5/29/16 6/22/6 1/26/5 49/64/73
s 1
f 1/25/2 2/1/1 3/28/13 49/63/74
s 3
f 3/27/10 4/2/9 5/29/19 49/64/75
s 1
f 11/33/15 12/3/14 7/31/26 50/66/76
s 4
f 7/30/23 8/4/22 9/32/32 50/65/77
s 3
f 9/32/29 10/18/12 11/34/11 50/65/78
s 4
f 17/38/34 18/5/33 13/36/39 51/67/79
s 5
f 13/35/36 14/7/35 15/37/44 51/67/80
s 3
f 15/37/42 16/19/31 17/38/30 51/67/81
s 5
f 23/42/46 24/8/45 19/40/50 52/68/82
s 2
f 19/39/47 20/23/18 21/41/17 52/68/83
s 3
f 21/41/21 22/6/20 23/42/43 52/68/84
s 4
f 29/46/41 30/9/40 25/44/57 53/70/85
s 6
f 25/43/54 26/12/53 27/45/61 53/69/86
s 5
f 27/45/59 28/20/38 29/47/37 53/69/87
s 6
f 35/52/63 36/14/62 31/49/66 54/72/88
s 2
f 31/48/64 32/24/49 33/51/48 54/71/89
s 5
f 33/50/52 34/11/51 35/52/60 54/72/90
s 4
f 41/56/58 42/10/25 37/54/24 55/74/91
s 1
f 37/53/28 38/16/27 39/55/71 55/73/92
s 6
f 39/55/69 40/21/56 41/57/55 55/73/93
s 1
f 47/62/72 48/17/4 43/59/3 56/76/94
s 2
f 43/58/8 44/13/7 45/61/65 56/75/95
s 6
f 45/60/68 46/15/67 47/62/70 56/76/96
