# This file uses centimeters as units for non-parametric coordinates.

mtllib Support_shtuka2.mtl
g default
v 1.116540 1.376303 -0.323016
v 1.159886 1.376303 -0.323016
v 1.159886 1.376303 0.427845
v 1.116540 1.376303 0.427845
v 1.116540 1.453125 0.427845
v 1.116540 1.453125 -0.323016
v 1.152455 1.396779 -0.323016
v 1.152455 1.396779 0.427845
v 1.389146 1.396779 -0.323016
v 1.389146 1.396779 0.427845
v 1.425061 1.453125 0.427845
v 1.425061 1.453125 -0.323016
v 1.381715 1.376303 -0.323016
v 1.381715 1.376303 0.427845
v 1.425061 1.376303 -0.323016
v 1.425061 1.376303 0.427845
vt 0.375000 0.750000
vt 0.410124 0.750000
vt 0.410124 1.000000
vt 0.375000 1.000000
vt 0.125000 0.000000
vt 0.375000 0.000000
vt 0.375000 0.250000
vt 0.125000 0.250000
vt 0.375000 0.108315
vt 0.125000 0.108315
vt 0.125000 0.250000
vt 0.375000 0.250000
vt 0.375000 0.500000
vt 0.625000 0.500000
vt 0.625000 0.250000
vt 0.625000 0.250000
vt 0.625000 0.500000
vt 0.375000 0.500000
vt 0.875000 0.108315
vt 0.625000 0.108315
vt 0.875000 0.250000
vt 0.589876 0.750000
vt 0.625000 0.750000
vt 0.625000 1.000000
vt 0.589876 1.000000
vt 0.625000 0.000000
vt 0.875000 0.000000
vt 0.875000 0.250000
vt 0.595897 0.683365
vt 0.404103 0.683365
vt 0.410124 0.000000
vt 0.404103 0.066635
vt 0.595897 0.066635
vt 0.589876 0.000000
vn 0.000000 -1.000000 0.000000
vn 0.000000 -1.000000 0.000000
vn 0.000000 -1.000000 0.000000
vn 0.000000 -1.000000 0.000000
vn -1.000000 0.000000 0.000000
vn -1.000000 0.000000 0.000000
vn -1.000000 0.000000 0.000000
vn -1.000000 0.000000 0.000000
vn 0.940015 0.341134 0.000000
vn 0.940015 0.341134 0.000000
vn 0.940015 0.341134 0.000000
vn 0.940015 0.341134 0.000000
vn 0.000000 -1.000000 0.000000
vn 0.000000 -1.000000 0.000000
vn 0.000000 -1.000000 0.000000
vn 0.000000 -1.000000 0.000000
vn 0.000000 1.000000 0.000000
vn 0.000000 1.000000 0.000000
vn 0.000000 1.000000 0.000000
vn 0.000000 1.000000 0.000000
vn -0.940016 0.341131 0.000000
vn -0.940016 0.341131 0.000000
vn -0.940016 0.341131 0.000000
vn -0.940016 0.341131 0.000000
vn 0.000000 -1.000000 0.000000
vn 0.000000 -1.000000 0.000000
vn 0.000000 -1.000000 0.000000
vn 0.000000 -1.000000 0.000000
vn 1.000000 0.000000 0.000000
vn 1.000000 0.000000 0.000000
vn 1.000000 0.000000 0.000000
vn 1.000000 0.000000 0.000000
vn 0.000000 0.000000 -1.000000
vn 0.000000 0.000000 -1.000000
vn 0.000000 0.000000 -1.000000
vn 0.000000 0.000000 -1.000000
vn 0.000000 0.000000 -1.000000
vn 0.000000 0.000000 -1.000000
vn 0.000000 0.000000 -1.000000
vn 0.000000 0.000000 -1.000000
vn 0.000000 0.000000 1.000000
vn 0.000000 0.000000 1.000000
vn 0.000000 0.000000 1.000000
vn 0.000000 0.000000 1.000000
vn 0.000000 0.000000 1.000000
vn 0.000000 0.000000 1.000000
vn 0.000000 0.000000 1.000000
vn 0.000000 0.000000 1.000000
s off
g polySurface6
usemtl initialShadingGroup
f 1/1/1 2/2/2 3/3/3 4/4/4
f 1/5/5 4/6/6 5/7/7 6/8/8
f 3/9/9 2/10/10 7/11/11 8/12/12
f 8/12/13 7/13/14 9/14/15 10/15/16
f 5/7/17 11/16/18 12/17/19 6/18/20
f 13/19/21 14/20/22 10/15/23 9/21/24
f 13/22/25 15/23/26 16/24/27 14/25/28
f 16/26/29 15/27/30 12/28/31 11/16/32
f 6/18/33 12/17/34 15/23/35 13/22/36 9/29/37 7/30/38 2/2/39 1/1/40
f 4/6/41 3/31/42 8/32/43 10/33/44 14/34/45 16/26/46 11/16/47 5/7/48
